<svg xmlns="http://www.w3.org/2000/svg" viewBox="0 0 324.57 86.93"><g id="Layer_2" data-name="Layer 2"><g id="Layer_1-2" data-name="Layer 1"><path d="M168.47,29.25l-4.06,4a6.91,6.91,0,0,0-2,4.86v10a6.88,6.88,0,0,0,2,4.87l4.06,4a6.79,6.79,0,0,0,4.86,2h21.52V51H174.6a1.82,1.82,0,0,1-1.3-.54L171,48.14a1.82,1.82,0,0,1-.54-1.3V39.4a1.78,1.78,0,0,1,.54-1.28l2.27-2.29a1.86,1.86,0,0,1,1.3-.53h20.26V27.24H173.33A6.8,6.8,0,0,0,168.47,29.25Z"/><path d="M272.41,29.25a6.87,6.87,0,0,0-4.86-2H240.81V59h8.06V52.67H267.5a6.84,6.84,0,0,0,4.86-2l2.92-2.91a6.91,6.91,0,0,0,2-4.86V37a6.84,6.84,0,0,0-1.95-4.82Zm-3.13,12.4a1.86,1.86,0,0,1-.54,1.29l-1.13,1.14a1.86,1.86,0,0,1-1.3.53H248.92V35.29h17.39a1.86,1.86,0,0,1,1.3.53L268.74,37a1.86,1.86,0,0,1,.54,1.29Z"/><polygon points="201.97 35.3 213.99 35.3 213.99 59 222.04 59 222.04 35.3 234.06 35.3 234.06 27.24 201.97 27.24 201.97 35.3"/><path d="M140.88,27.28h-6.62a5.68,5.68,0,0,0-5.1,3.15L114.71,59h9l3.39-6.7H148l3.4,6.74h9L146,30.43A5.72,5.72,0,0,0,140.88,27.28ZM131.2,44.2,135.32,36a1.36,1.36,0,0,1,1.22-.75h2.05a1.39,1.39,0,0,1,1.23.75l4.11,8.16Z"/><path d="M310.15,30.43a5.68,5.68,0,0,0-5.08-3.15h-6.63a5.73,5.73,0,0,0-5.1,3.15L278.9,59h9l3.43-6.74H312.2L315.61,59h9ZM295.4,44.2,299.52,36a1.37,1.37,0,0,1,1.23-.75h2A1.36,1.36,0,0,1,304,36l4.11,8.16Z"/><path d="M55.08,66.54H42.63a11.22,11.22,0,0,0-5.71,1.57L7.84,85.43l.89,1.5L30.94,80.6a22.48,22.48,0,0,1,6.11-.85H60.66a22.48,22.48,0,0,1,6.11.85L89,86.93l.89-1.5L60.79,68.11A11.22,11.22,0,0,0,55.08,66.54Z"/><path d="M39.81,0l-6,26.1a22.37,22.37,0,0,1-2.61,6.48L19.94,51.28a22.16,22.16,0,0,1-3.3,4.24L0,72.26l.89,1.5L29.25,56.88a11.2,11.2,0,0,0,3.85-3.83L40,41.69a11.15,11.15,0,0,0,1.61-5.76V0Z"/><path d="M57.9,0l6,26.1a22.37,22.37,0,0,0,2.61,6.48l11.24,18.7a22.16,22.16,0,0,0,3.3,4.24L97.71,72.26l-.89,1.5L68.46,56.88a11.2,11.2,0,0,1-3.85-3.83L57.76,41.69a11.15,11.15,0,0,1-1.61-5.76V0Z"/></g></g></svg>