<?xml version="1.0" encoding="utf-8"?>
<!-- Generator: Adobe Illustrator 28.0.0, SVG Export Plug-In . SVG Version: 6.00 Build 0)  -->
<svg version="1.1" id="Layer_1" xmlns="http://www.w3.org/2000/svg" xmlns:xlink="http://www.w3.org/1999/xlink" x="0px" y="0px"
	 viewBox="0 0 881.82 685.53" style="enable-background:new 0 0 881.82 685.53;" xml:space="preserve">
<style type="text/css">
	.st0{fill:#28334E;}
	.st1{fill:#5BC3F5;}
</style>
<g>
	<g>
		<path class="st0" d="M235.07,509.6l-16.25,16.25c-5.15,5.18-8.04,12.2-8.03,19.51v39.92c-0.01,7.31,2.89,14.33,8.06,19.51
			l16.29,16.12c5.16,5.19,12.19,8.09,19.51,8.06h86.31v-32.31h-81.27c-1.95,0-3.82-0.77-5.2-2.15l-9.14-9.14
			c-1.37-1.38-2.14-3.25-2.15-5.2v-29.84c0-1.94,0.77-3.8,2.15-5.17l9.14-9.17c1.38-1.38,3.25-2.15,5.2-2.15h81.27v-32.31h-86.38
			C247.25,501.5,240.23,504.41,235.07,509.6z"/>
		<path class="st0" d="M652.13,509.6c-5.17-5.18-12.19-8.08-19.51-8.06H525.34v127.44h32.31v-25.42h74.77
			c7.32,0.02,14.34-2.88,19.51-8.06l11.7-11.67c5.15-5.18,8.04-12.2,8.03-19.51v-23.67c0.04-7.23-2.78-14.18-7.83-19.34
			L652.13,509.6z M639.55,559.33c0,1.94-0.77,3.8-2.15,5.17l-4.55,4.58c-1.38,1.38-3.25,2.15-5.2,2.15h-69.77v-37.42h69.77
			c1.95,0,3.82,0.77,5.2,2.15l4.55,4.58c1.37,1.37,2.14,3.23,2.15,5.17V559.33z"/>
		<polygon class="st0" points="369.49,533.85 417.7,533.85 417.7,628.97 450.02,628.97 450.02,533.85 498.26,533.85 498.26,501.53 
			369.49,501.53 		"/>
		<path class="st0" d="M124.37,501.7H97.81c-8.66-0.03-16.59,4.86-20.45,12.61L19.4,628.97h36.22l13.62-26.89h83.68l13.65,27.05
			h36.18l-57.93-114.82C140.93,506.59,133.02,501.71,124.37,501.7z M85.56,569.58l16.51-32.74c0.93-1.85,2.83-3.02,4.91-3.02h8.22
			c2.07,0.01,3.97,1.17,4.91,3.02l16.51,32.74H85.56z"/>
		<path class="st0" d="M803.56,514.31c-3.86-7.74-11.77-12.63-20.42-12.61h-26.59c-8.65,0.02-16.55,4.89-20.45,12.61l-57.93,114.82
			h36.18l13.75-27.05h83.68l13.65,27.05h35.96L803.56,514.31z M744.36,569.58l16.55-32.74c0.93-1.86,2.83-3.03,4.91-3.02h8.19
			c2.08-0.01,3.98,1.16,4.91,3.02l16.48,32.74H744.36z"/>
	</g>
	<path class="st1" d="M458.87,323.69l-49.98,0c-8.06,0-15.98,2.18-22.9,6.3L269.3,399.48l3.59,6.02l89.09-25.39
		c7.98-2.28,16.24-3.43,24.54-3.43l94.72,0c8.3,0,16.56,1.15,24.54,3.43l89.09,25.39l3.59-6.02l-116.68-69.48
		C474.84,325.87,466.93,323.69,458.87,323.69z"/>
	<path class="st1" d="M397.58,56.7l-24.13,104.71c-2.11,9.17-5.66,17.94-10.5,26.01l-45.08,75.03c-3.71,6.18-8.16,11.89-13.24,17
		l-66.77,67.18l3.56,5.99l113.79-67.72c6.33-3.77,11.63-9.04,15.44-15.35l27.5-45.59c4.21-6.98,6.43-14.97,6.43-23.12l0-144.14
		L397.58,56.7z"/>
	<path class="st1" d="M470.18,56.7l24.13,104.71c2.11,9.17,5.66,17.94,10.5,26.01l45.08,75.03c3.71,6.18,8.16,11.89,13.24,17
		l66.77,67.18l-3.56,5.99l-113.79-67.72c-6.33-3.77-11.63-9.04-15.44-15.35l-27.5-45.59c-4.21-6.98-6.43-14.97-6.43-23.12l0-144.14
		L470.18,56.7z"/>
</g>
</svg>
