<?xml version="1.0" encoding="utf-8"?>
<!-- Generator: Adobe Illustrator 28.0.0, SVG Export Plug-In . SVG Version: 6.00 Build 0)  -->
<svg version="1.1" id="Layer_1" xmlns="http://www.w3.org/2000/svg" xmlns:xlink="http://www.w3.org/1999/xlink" x="0px" y="0px"
	 viewBox="0 0 289.42 244.48" style="enable-background:new 0 0 289.42 244.48;" xml:space="preserve">
<g>
	<g>
		<path d="M200.72,186.04l1.48-1.47c1.35-1.36,2.1-3.19,2.1-5.1v-5.47c0.01-1.89-0.73-3.71-2.05-5.06l-3.06-3.06
			c-1.35-1.36-3.19-2.11-5.1-2.11h-28.07v33.34h8.45v-7.37h18.08c0.67,0,1.31,0.27,1.78,0.74l0.77,0.77
			c0.47,0.47,0.74,1.12,0.74,1.79v4.08h8.45v-5.24c0-1.44-0.57-2.82-1.59-3.83L200.72,186.04z M174.54,172.2h18.25
			c0.51,0,1,0.2,1.36,0.56l1.19,1.2c0.36,0.36,0.56,0.85,0.56,1.35v2.84c0,0.51-0.2,0.99-0.56,1.35l-1.19,1.2
			c-0.36,0.36-0.85,0.56-1.36,0.56h-18.25V172.2z"/>
		<polygon points="125.25,172.21 137.87,172.21 137.87,197.1 146.32,197.1 146.32,172.21 158.94,172.21 158.94,163.76 
			125.25,163.76 		"/>
		<path d="M61.13,163.76h-6.95c-2.27-0.01-4.34,1.27-5.35,3.3l-15.16,30h9.47l3.56-7.03h21.89l3.57,7.08h9.47l-15.16-30.04
			C65.46,165.04,63.39,163.76,61.13,163.76z M50.97,181.52l4.32-8.56c0.24-0.48,0.74-0.79,1.28-0.79h2.15
			c0.54,0,1.04,0.31,1.28,0.79l4.32,8.56H50.97z"/>
		<path d="M240.63,167.06c-1.01-2.03-3.08-3.3-5.34-3.3h-6.96c-2.26,0-4.33,1.28-5.35,3.3l-15.16,30.04h9.47l3.6-7.08h21.89
			l3.57,7.08h9.41L240.63,167.06z M225.14,181.52l4.33-8.56c0.24-0.49,0.74-0.79,1.28-0.79h2.14c0.54,0,1.04,0.3,1.28,0.79
			l4.31,8.56H225.14z"/>
	</g>
	<g>
		<path d="M148.63,117.23l-13.08,0c-2.11,0-4.18,0.57-5.99,1.65l-30.52,18.18l0.94,1.58l23.31-6.64c2.09-0.6,4.25-0.9,6.42-0.9
			l24.78,0c2.17,0,4.33,0.3,6.42,0.9l23.31,6.64l0.94-1.58l-30.52-18.18C152.81,117.8,150.74,117.23,148.63,117.23z"/>
		<path d="M125.56,103.07l7.2-11.93c1.1-1.83,1.68-3.92,1.68-6.05l0-37.71l-1.84,0l-6.31,27.39c-0.55,2.4-1.48,4.69-2.75,6.8
			l-11.79,19.63c-0.97,1.62-2.13,3.11-3.46,4.45l-17.47,17.58l0.93,1.57l29.77-17.72C123.17,106.1,124.56,104.72,125.56,103.07z"/>
		<path d="M175.91,105.66c-1.33-1.34-2.49-2.83-3.46-4.45l-11.79-19.63c-1.27-2.11-2.19-4.41-2.75-6.8l-6.31-27.39l-1.84,0l0,37.71
			c0,2.13,0.58,4.22,1.68,6.05l7.2,11.93c1,1.65,2.38,3.03,4.04,4.01l29.77,17.72l0.93-1.57L175.91,105.66z"/>
	</g>
	<path d="M118.06,172.21v-8.45H92.03c-1.44,0-2.81,0.57-3.83,1.59l-2.97,2.97c-1.02,1.02-1.59,2.39-1.59,3.83v4.17
		c0,1.44,0.57,2.81,1.59,3.83l2.97,2.97c1.02,1.02,2.39,1.59,3.83,1.59h17.08c0.32,0,0.63,0.13,0.85,0.35l0.38,0.38
		c0.23,0.23,0.35,0.53,0.35,0.85v0.78c0,0.32-0.13,0.63-0.35,0.85l-0.38,0.38c-0.23,0.23-0.53,0.35-0.85,0.35H84.73v8.45h26.03
		c1.44,0,2.82-0.57,3.83-1.59l2.97-2.97c1.02-1.02,1.59-2.39,1.59-3.83v-4.08c0-1.44-0.57-2.82-1.59-3.83l-2.97-2.97
		c-1.02-1.02-2.39-1.59-3.83-1.59H93.68c-0.32,0-0.63-0.13-0.85-0.35l-0.38-0.38c-0.23-0.23-0.35-0.53-0.35-0.85v-0.86
		c0-0.32,0.13-0.63,0.35-0.85l0.38-0.38c0.23-0.23,0.53-0.35,0.85-0.35H118.06z"/>
</g>
</svg>
