<svg xmlns="http://www.w3.org/2000/svg" viewBox="0 0 209.85 142.67"><defs><style>.cls-1{fill:#fff;}</style></defs><g id="Layer_2" data-name="Layer 2"><g id="Layer_1-2" data-name="Layer 1"><path class="cls-1" d="M53.75,112.88l-4,4.05a6.91,6.91,0,0,0-2,4.86v10a6.87,6.87,0,0,0,2,4.86l4.06,4a6.81,6.81,0,0,0,4.86,2H80.14v-8H59.89a1.85,1.85,0,0,1-1.3-.54l-2.28-2.28a1.83,1.83,0,0,1-.53-1.29V123a1.83,1.83,0,0,1,.53-1.29l2.28-2.28a1.81,1.81,0,0,1,1.3-.54H80.14v-8H58.61A6.79,6.79,0,0,0,53.75,112.88Z"/><path class="cls-1" d="M157.7,112.88a6.83,6.83,0,0,0-4.86-2H126.1v31.76h8.05v-6.34h18.64a6.79,6.79,0,0,0,4.86-2l2.92-2.9a6.93,6.93,0,0,0,2-4.87v-5.89a6.85,6.85,0,0,0-1.95-4.83Zm-3.14,12.39a1.81,1.81,0,0,1-.53,1.29l-1.14,1.15a1.83,1.83,0,0,1-1.29.53H134.21v-9.33H151.6a1.84,1.84,0,0,1,1.29.54l1.14,1.14a1.83,1.83,0,0,1,.53,1.29Z"/><polygon class="cls-1" points="87.26 118.92 99.27 118.92 99.27 142.63 107.33 142.63 107.33 118.92 119.35 118.92 119.35 110.87 87.26 110.87 87.26 118.92"/><path class="cls-1" d="M26.16,110.91H19.54a5.65,5.65,0,0,0-5.09,3.14L0,142.63H9l3.39-6.7H33.28l3.4,6.74h9L31.26,114.05A5.72,5.72,0,0,0,26.16,110.91Zm-9.67,16.92,4.11-8.16a1.39,1.39,0,0,1,1.23-.76h2.05a1.39,1.39,0,0,1,1.22.76l4.12,8.16Z"/><path class="cls-1" d="M195.44,114.05a5.65,5.65,0,0,0-5.09-3.14h-6.63a5.71,5.71,0,0,0-5.09,3.14l-14.44,28.62h9l3.42-6.74h20.86l3.4,6.74h9Zm-14.75,13.78,4.12-8.16a1.36,1.36,0,0,1,1.22-.76h2a1.37,1.37,0,0,1,1.23.76l4.11,8.16Z"/><path class="cls-1" d="M109.53,66.54H97.07a11.19,11.19,0,0,0-5.7,1.57L62.28,85.43l.9,1.5,22.2-6.33a22.6,22.6,0,0,1,6.12-.85h23.61a22.58,22.58,0,0,1,6.11.85l22.21,6.33.89-1.5L115.24,68.11A11.25,11.25,0,0,0,109.53,66.54Z"/><path class="cls-1" d="M94.25,0l-6,26.1a22.4,22.4,0,0,1-2.62,6.48L74.39,51.28a23,23,0,0,1-3.3,4.24L54.45,72.26l.89,1.5L83.7,56.88a11.2,11.2,0,0,0,3.85-3.83L94.4,41.69A11.14,11.14,0,0,0,96,35.93V0Z"/><path class="cls-1" d="M112.35,0l6,26.1A22.4,22.4,0,0,0,121,32.58l11.24,18.7a22.16,22.16,0,0,0,3.3,4.24l16.64,16.74-.89,1.5L122.91,56.88a11.2,11.2,0,0,1-3.85-3.83l-6.85-11.36a11.15,11.15,0,0,1-1.61-5.76V0Z"/></g></g></svg>