<?xml version="1.0" encoding="utf-8"?>
<!-- Generator: Adobe Illustrator 28.0.0, SVG Export Plug-In . SVG Version: 6.00 Build 0)  -->
<svg version="1.1" id="Layer_1" xmlns="http://www.w3.org/2000/svg" xmlns:xlink="http://www.w3.org/1999/xlink" x="0px" y="0px"
	 viewBox="0 0 1366 768" style="enable-background:new 0 0 1366 768;" xml:space="preserve">
<style type="text/css">
	.st0{fill:#FFFFFF;}
	.st1{fill:#5BC3F5;}
</style>
<g>
	<g>
		<path class="st0" d="M700.38,344.52l-11.36,11.36c-3.6,3.62-5.62,8.52-5.61,13.63v27.9c-0.01,5.11,2.02,10.02,5.63,13.63
			l11.38,11.27c3.61,3.63,8.52,5.65,13.63,5.63h60.32v-22.58h-56.8c-1.36,0-2.67-0.54-3.64-1.5l-6.38-6.38
			c-0.96-0.97-1.49-2.27-1.5-3.63v-20.86c0-1.36,0.54-2.65,1.5-3.61l6.38-6.41c0.97-0.96,2.27-1.5,3.64-1.5h56.8v-22.58h-60.36
			C708.9,338.86,703.99,340.89,700.38,344.52z"/>
		<path class="st0" d="M991.83,344.52c-3.61-3.62-8.52-5.65-13.63-5.63h-74.97v89.06h22.58v-17.77h52.25
			c5.11,0.01,10.02-2.01,13.63-5.63l8.18-8.16c3.6-3.62,5.62-8.52,5.61-13.63v-16.54c0.03-5.05-1.94-9.91-5.47-13.52L991.83,344.52z
			 M983.04,379.27c0,1.36-0.54,2.65-1.5,3.61l-3.18,3.2c-0.97,0.96-2.27,1.5-3.63,1.5h-48.75v-26.15h48.75
			c1.36,0,2.67,0.54,3.63,1.5l3.18,3.2c0.96,0.96,1.5,2.26,1.5,3.61V379.27z"/>
		<polygon class="st0" points="794.32,361.46 828.01,361.46 828.01,427.94 850.59,427.94 850.59,361.46 884.31,361.46 
			884.31,338.88 794.32,338.88 		"/>
		<path class="st0" d="M623.02,339h-18.56c-6.05-0.02-11.59,3.4-14.29,8.81l-40.51,80.13h25.31l9.52-18.79h58.48l9.54,18.9h25.29
			l-40.48-80.24C634.59,342.41,629.07,339.01,623.02,339z M595.9,386.43l11.54-22.88c0.65-1.29,1.98-2.11,3.43-2.11h5.75
			c1.45,0,2.77,0.82,3.43,2.11l11.54,22.88H595.9z"/>
		<path class="st0" d="M1097.65,347.81c-2.69-5.41-8.22-8.83-14.27-8.81h-18.58c-6.04,0.01-11.57,3.42-14.29,8.81l-40.48,80.24
			h25.29l9.61-18.9h58.48l9.54,18.9h25.13L1097.65,347.81z M1056.28,386.43l11.56-22.88c0.65-1.3,1.98-2.12,3.43-2.11h5.72
			c1.45-0.01,2.78,0.81,3.43,2.11l11.52,22.88H1056.28z"/>
	</g>
	<path class="st1" d="M382.47,449.08l-34.93,0c-5.63,0-11.16,1.52-16.01,4.4L250,502.04l2.51,4.21l62.26-17.75
		c5.58-1.59,11.35-2.4,17.15-2.4l66.19,0c5.8,0,11.57,0.81,17.15,2.4l62.26,17.75l2.51-4.21l-81.54-48.56
		C393.64,450.6,388.11,449.08,382.47,449.08z"/>
	<path class="st1" d="M339.64,262.5l-16.86,73.18c-1.48,6.41-3.95,12.54-7.34,18.17l-31.5,52.43c-2.59,4.32-5.7,8.31-9.25,11.88
		l-46.66,46.95l2.49,4.19l79.52-47.32c4.42-2.63,8.13-6.32,10.79-10.72l19.22-31.86c2.94-4.88,4.5-10.46,4.5-16.16l0-100.73
		L339.64,262.5z"/>
	<path class="st1" d="M390.38,262.5l16.86,73.18c1.48,6.41,3.95,12.54,7.34,18.17l31.5,52.43c2.59,4.32,5.7,8.31,9.25,11.88
		l46.66,46.95l-2.49,4.19l-79.52-47.32c-4.42-2.63-8.13-6.32-10.79-10.72l-19.22-31.86c-2.94-4.88-4.5-10.46-4.5-16.16l0-100.73
		L390.38,262.5z"/>
</g>
</svg>
