<?xml version="1.0" encoding="utf-8"?>
<!-- Generator: Adobe Illustrator 28.0.0, SVG Export Plug-In . SVG Version: 6.00 Build 0)  -->
<svg version="1.1" id="Layer_1" xmlns="http://www.w3.org/2000/svg" xmlns:xlink="http://www.w3.org/1999/xlink" x="0px" y="0px"
	 viewBox="0 0 495.6 244.48" style="enable-background:new 0 0 495.6 244.48;" xml:space="preserve">
<style type="text/css">
	.st0{fill:#4EB9E5;}
	.st1{fill:#28334E;}
</style>
<g>
	<path class="st0" d="M138.99,145.32l-12.46,0c-2.01,0-3.98,0.54-5.71,1.57l-29.08,17.32l0.89,1.5l22.2-6.33
		c1.99-0.57,4.05-0.85,6.12-0.85l23.61,0c2.07,0,4.13,0.29,6.12,0.85l22.2,6.33l0.89-1.5l-29.08-17.32
		C142.98,145.86,141,145.32,138.99,145.32z"/>
	<path class="st0" d="M123.72,78.78l-6.01,26.1c-0.53,2.28-1.41,4.47-2.62,6.48l-11.24,18.7c-0.93,1.54-2.03,2.96-3.3,4.24
		l-16.64,16.74l0.89,1.49l28.36-16.88c1.58-0.94,2.9-2.25,3.85-3.82l6.85-11.36c1.05-1.74,1.6-3.73,1.6-5.76l0-35.93L123.72,78.78z"
		/>
	<path class="st0" d="M141.81,78.78l6.01,26.1c0.53,2.28,1.41,4.47,2.62,6.48l11.24,18.7c0.93,1.54,2.03,2.96,3.3,4.24l16.64,16.74
		l-0.89,1.49l-28.36-16.88c-1.58-0.94-2.9-2.25-3.85-3.82l-6.85-11.36c-1.05-1.74-1.6-3.73-1.6-5.76l0-35.93L141.81,78.78z"/>
	<g>
		<g>
			<path class="st1" d="M358.89,127.28l1.42-1.41c1.29-1.3,2.02-3.06,2.02-4.9v-5.25c0.01-1.81-0.7-3.56-1.97-4.85l-2.94-2.94
				c-1.3-1.3-3.06-2.03-4.9-2.02H325.6v31.98h8.11v-7.07h17.35c0.64,0,1.26,0.26,1.71,0.71l0.74,0.74c0.45,0.45,0.71,1.07,0.71,1.72
				v3.91h8.11v-5.02c0-1.38-0.55-2.7-1.52-3.68L358.89,127.28z M333.77,114.01h17.51c0.49,0,0.96,0.19,1.31,0.54l1.14,1.15
				c0.34,0.34,0.54,0.81,0.54,1.3v2.73c0,0.49-0.19,0.95-0.54,1.3l-1.14,1.15c-0.35,0.35-0.82,0.54-1.31,0.54h-17.51V114.01z"/>
			<polygon class="st1" points="286.49,114.02 298.59,114.02 298.59,137.89 306.7,137.89 306.7,114.02 318.81,114.02 318.81,105.91 
				286.49,105.91 			"/>
			<path class="st1" d="M224.97,105.91h-6.67c-2.17-0.01-4.16,1.22-5.13,3.17l-14.55,28.78h9.09l3.42-6.75h21l3.43,6.79h9.08
				l-14.54-28.82C229.12,107.13,227.14,105.91,224.97,105.91z M215.23,122.94l4.14-8.22c0.23-0.47,0.71-0.76,1.23-0.76h2.06
				c0.52,0,1,0.29,1.23,0.76l4.14,8.22H215.23z"/>
			<path class="st1" d="M397.17,109.07c-0.97-1.94-2.95-3.17-5.12-3.17h-6.67c-2.17,0-4.15,1.23-5.13,3.17l-14.54,28.82h9.08
				l3.45-6.79h21l3.43,6.79h9.02L397.17,109.07z M382.31,122.94l4.15-8.22c0.23-0.47,0.71-0.76,1.23-0.76h2.06
				c0.52,0,1,0.29,1.23,0.76l4.14,8.22H382.31z"/>
		</g>
		<path class="st1" d="M279.59,114.02v-8.11h-24.97c-1.38,0-2.7,0.55-3.68,1.52l-2.85,2.85c-0.97,0.97-1.52,2.3-1.52,3.68v4
			c0,1.38,0.55,2.7,1.52,3.68l2.85,2.85c0.97,0.97,2.3,1.52,3.68,1.52H271c0.31,0,0.6,0.12,0.82,0.34l0.36,0.36
			c0.22,0.22,0.34,0.51,0.34,0.82v0.75c0,0.31-0.12,0.6-0.34,0.82l-0.36,0.36c-0.22,0.22-0.51,0.34-0.82,0.34h-23.39v8.11h24.97
			c1.38,0,2.7-0.55,3.68-1.52l2.85-2.85c0.97-0.97,1.52-2.3,1.52-3.68v-3.92c0-1.38-0.55-2.7-1.52-3.68l-2.85-2.85
			c-0.97-0.97-2.3-1.52-3.68-1.52H256.2c-0.31,0-0.6-0.12-0.82-0.34l-0.36-0.36c-0.22-0.22-0.34-0.51-0.34-0.82v-0.83
			c0-0.31,0.12-0.6,0.34-0.82l0.36-0.36c0.22-0.22,0.51-0.34,0.82-0.34H279.59z"/>
	</g>
</g>
</svg>
