<svg width="261" height="150" viewBox="0 0 261 150" fill="none" xmlns="http://www.w3.org/2000/svg">
<g clip-path="url(#clip0_6_481)">
<path d="M115.759 68.0273C111.861 68.9607 108.073 69.949 104.394 70.9373L104.065 70.8275C103.68 70.6628 101.265 69.6196 97.1472 68.0822L115.759 68.0273Z" fill="url(#paint0_linear_6_481)"/>
<path d="M163.632 58.3086C151.005 60.2852 138.707 62.7559 127.013 65.3913H89.6257C82.9826 63.1951 74.3083 60.6695 64.0417 58.3635V58.3086H163.632Z" fill="url(#paint1_linear_6_481)"/>
<path d="M185.867 54.85H45.5401C40.8186 54.1362 35.8775 53.4774 30.7717 52.9832C31.3207 51.5008 31.9246 50.0183 32.5835 48.5908H183.452C184.275 50.6223 185.099 52.7087 185.867 54.85Z" fill="url(#paint2_linear_6_481)"/>
<path d="M178.236 38.873H37.6345C36.5365 40.6849 35.4934 42.4968 34.5601 44.3635H181.311C180.377 42.4968 179.334 40.63 178.236 38.873Z" fill="url(#paint3_linear_6_481)"/>
<path d="M171.264 29.1543H44.6618C43.3991 30.6916 42.1913 32.229 41.0383 33.8212H174.887C173.734 32.229 172.527 30.6367 171.264 29.1543Z" fill="url(#paint4_linear_6_481)"/>
<path d="M161.656 19.4365H54.2694C52.842 20.6993 51.4146 21.9621 50.0969 23.2799H165.883C164.511 21.9621 163.083 20.6993 161.656 19.4365Z" fill="url(#paint5_linear_6_481)"/>
<path d="M147.656 9.71777H68.2691C66.5123 10.7061 64.8104 11.6943 63.1633 12.7924H152.762C151.115 11.6943 149.413 10.6512 147.656 9.71777Z" fill="url(#paint6_linear_6_481)"/>
<path d="M116.527 0H99.3981C95.1707 0.439239 91.0531 1.20791 86.9355 2.2511H128.99C124.872 1.20791 120.755 0.439239 116.527 0Z" fill="url(#paint7_linear_6_481)"/>
<path d="M-3.81594 130.234H-14.1374C-16.004 130.234 -17.3216 130.234 -18.1451 130.289C-18.9138 130.344 -19.4628 130.454 -19.7922 130.729C-20.1216 131.003 -20.2863 131.387 -20.3412 131.991C-20.3961 132.266 -20.451 132.431 -20.6157 132.431C-20.7804 132.431 -20.8353 132.266 -20.8353 131.991C-20.8353 131.497 -20.8902 130.564 -21 129.136C-21 128.972 -20.9451 128.917 -20.8353 128.917C-20.2314 129.027 -19.2981 129.027 -18.0902 129.027C-17.9255 129.027 -17.7608 128.917 -17.5961 128.697L-10.2394 111.567C-9.90997 110.853 -9.63546 110.469 -9.47076 110.469C-9.30606 110.469 -9.14135 110.743 -8.86685 111.292C-8.81195 111.457 -7.65902 113.873 -5.57278 118.54C-3.43164 123.207 -1.89441 126.611 -0.851282 128.752C-0.74148 128.917 -0.576778 129.027 -0.357174 129.027C1.18006 129.027 2.22318 128.972 2.88199 128.862C2.9918 128.862 3.0467 128.862 3.0467 128.862C3.0467 128.862 3.0467 128.972 3.0467 129.081C2.82709 130.18 2.66239 131.168 2.66239 132.046C2.66239 132.321 2.60749 132.431 2.44279 132.431C2.27808 132.431 2.22318 132.321 2.16828 132.046C2.11338 130.948 1.39966 130.344 0.191837 130.289C-0.357174 130.234 -1.7297 130.234 -3.81594 130.234ZM-12.5452 129.081H-7.43942C-5.57278 129.081 -4.41986 129.081 -3.87085 129.027C-3.70614 128.972 -3.70614 128.917 -3.76104 128.807C-4.31005 127.599 -5.29827 125.293 -6.72571 121.999C-8.15313 118.704 -9.25116 116.179 -10.0198 114.422C-10.0747 114.312 -10.1296 114.312 -10.1845 114.422L-15.455 127.489C-15.8393 128.368 -16.004 128.807 -16.004 128.917C-16.004 128.972 -15.9491 129.027 -15.8393 129.027C-15.2903 129.081 -14.1923 129.081 -12.5452 129.081Z" fill="#102D69"/>
<path d="M-3.81595 130.234H-14.1374C-16.004 130.234 -17.3216 130.234 -18.1451 130.289C-18.9138 130.344 -19.4628 130.454 -19.7922 130.729C-20.1216 131.003 -20.2863 131.387 -20.3412 131.991C-20.3961 132.266 -20.451 132.431 -20.6157 132.431C-20.7804 132.431 -20.8353 132.266 -20.8353 131.991C-20.8353 131.497 -20.8902 130.564 -21 129.136C-21 128.972 -20.9451 128.917 -20.8353 128.917C-20.2314 129.027 -19.2981 129.027 -18.0902 129.027C-17.9255 129.027 -17.7608 128.917 -17.5961 128.697L-10.2394 111.567C-9.90997 110.853 -9.63547 110.469 -9.47076 110.469C-9.30606 110.469 -9.14135 110.743 -8.86685 111.292C-8.81195 111.457 -7.65902 113.873 -5.57278 118.54C-3.43164 123.207 -1.8944 126.611 -0.851283 128.752C-0.741481 128.917 -0.576779 129.027 -0.357174 129.027C1.18006 129.027 2.22318 128.972 2.88199 128.862C2.9918 128.862 3.0467 128.862 3.0467 128.862C3.0467 128.862 3.0467 128.972 3.0467 129.081C2.82709 130.18 2.66239 131.168 2.66239 132.046C2.66239 132.321 2.60749 132.431 2.44279 132.431C2.27808 132.431 2.22318 132.321 2.16828 132.046C2.11338 130.948 1.39966 130.344 0.191837 130.289C-0.357174 130.234 -1.7297 130.234 -3.81595 130.234ZM-12.5452 129.081H-7.43942C-5.57278 129.081 -4.41986 129.081 -3.87085 129.027C-3.70614 128.972 -3.70614 128.917 -3.76104 128.807C-4.31006 127.599 -5.29828 125.293 -6.7257 121.999C-8.15313 118.704 -9.25116 116.179 -10.0198 114.422C-10.0747 114.312 -10.1296 114.312 -10.1845 114.422L-15.455 127.489C-15.8393 128.368 -16.004 128.807 -16.004 128.917C-16.004 128.972 -15.9491 129.027 -15.8393 129.027C-15.2903 129.081 -14.1923 129.081 -12.5452 129.081Z" stroke="#102D69" stroke-width="0.98" stroke-miterlimit="10"/>
<path d="M7.71341 122.822V118.265C7.71341 115.08 7.71341 113.268 7.65851 112.719C7.60361 112.28 7.49381 111.896 7.3291 111.676C7.1644 111.457 6.83499 111.292 6.34088 111.237C6.28598 111.237 6.17618 111.182 6.12128 111.182C6.01148 111.182 5.90167 111.182 5.79187 111.182C5.68207 111.182 5.57227 111.182 5.51737 111.182C5.24286 111.127 5.13306 111.072 5.13306 111.017C5.13306 110.908 5.29776 110.798 5.62717 110.798C6.67029 110.798 7.82321 110.798 9.08594 110.853C13.3133 110.853 15.6192 110.853 16.1133 110.853C16.8819 110.798 17.3211 110.743 17.5407 110.688C17.7054 110.633 17.8152 110.578 17.8701 110.578C17.925 110.578 17.9799 110.633 17.9799 110.798C17.9799 110.853 17.925 110.962 17.8701 111.237C17.8152 111.512 17.7603 111.731 17.7054 112.006L17.5956 113.543C17.5407 113.818 17.4858 113.982 17.376 113.982C17.2113 113.982 17.1564 113.872 17.1564 113.653C17.1564 113.323 17.1015 113.049 16.9917 112.829C16.7721 112.28 16.0584 112.006 14.7957 111.896C14.2466 111.841 12.8741 111.841 10.5683 111.841C10.4585 111.841 10.4036 111.951 10.4036 112.115V119.253C10.4036 119.418 10.4585 119.528 10.5683 119.528C13.3682 119.528 14.9604 119.528 15.4545 119.473C16.2231 119.418 16.7172 119.253 16.9917 119.033C17.1564 118.869 17.2662 118.759 17.376 118.759C17.4858 118.759 17.5407 118.814 17.5407 118.979C17.5407 119.033 17.5407 119.088 17.4858 119.198C17.4309 119.308 17.4309 119.473 17.376 119.692C17.3211 119.912 17.3211 120.132 17.2662 120.406C17.2113 120.736 17.2113 121.065 17.1564 121.504C17.1564 121.943 17.1015 122.163 17.1015 122.163C17.0466 122.438 16.9917 122.547 16.8819 122.547C16.7172 122.547 16.6623 122.438 16.6623 122.108C16.6623 121.834 16.6074 121.614 16.5525 121.394C16.3878 120.9 15.8937 120.626 14.9604 120.571C14.027 120.516 12.5996 120.461 10.5683 120.461C10.4036 120.461 10.3487 120.516 10.3487 120.626V122.877C10.3487 123.042 10.3487 123.481 10.3487 124.195C10.3487 124.908 10.3487 125.567 10.3487 126.171C10.3487 126.775 10.3487 127.104 10.3487 127.269C10.4036 127.818 10.4585 128.257 10.6232 128.532C10.733 128.807 11.0075 129.026 11.3918 129.136C11.831 129.301 12.7094 129.356 13.9172 129.356C15.1251 129.356 16.0584 129.301 16.6623 129.136C17.1564 129.026 17.4858 128.807 17.7054 128.532C17.925 128.257 18.0897 127.818 18.1995 127.214C18.2544 126.94 18.3642 126.83 18.474 126.83C18.5838 126.83 18.6387 126.94 18.6387 127.214C18.6387 127.324 18.5838 127.708 18.474 128.367C18.3642 129.026 18.3093 129.465 18.2544 129.685C18.1446 130.014 18.0348 130.179 17.8152 130.289C17.6505 130.344 17.2113 130.399 16.6074 130.399C16.0035 130.399 14.5212 130.399 12.1055 130.344C9.63495 130.289 8.37222 130.289 8.26242 130.289C8.04282 130.289 7.71341 130.289 7.1644 130.344C6.67029 130.399 6.23108 130.399 5.95657 130.344C5.62717 130.344 5.46246 130.289 5.46246 130.124C5.46246 130.069 5.57227 130.014 5.79187 129.96C6.17618 129.905 6.39578 129.905 6.50559 129.905C6.88989 129.85 7.1644 129.63 7.3291 129.301C7.49381 128.971 7.60361 128.367 7.60361 127.489C7.71341 126.116 7.71341 124.579 7.71341 122.822Z" fill="#102D69"/>
<path d="M7.71341 122.822V118.265C7.71341 115.08 7.71341 113.268 7.65851 112.719C7.60361 112.28 7.49381 111.896 7.3291 111.676C7.1644 111.457 6.83499 111.292 6.34088 111.237C6.28598 111.237 6.17618 111.182 6.12128 111.182C6.01148 111.182 5.90167 111.182 5.79187 111.182C5.68207 111.182 5.57227 111.182 5.51737 111.182C5.24286 111.127 5.13306 111.072 5.13306 111.017C5.13306 110.908 5.29776 110.798 5.62717 110.798C6.67029 110.798 7.82321 110.798 9.08594 110.853C13.3133 110.853 15.6192 110.853 16.1133 110.853C16.8819 110.798 17.3211 110.743 17.5407 110.688C17.7054 110.633 17.8152 110.578 17.8701 110.578C17.925 110.578 17.9799 110.633 17.9799 110.798C17.9799 110.853 17.925 110.962 17.8701 111.237C17.8152 111.512 17.7603 111.731 17.7054 112.006L17.5956 113.543C17.5407 113.818 17.4858 113.982 17.376 113.982C17.2113 113.982 17.1564 113.872 17.1564 113.653C17.1564 113.323 17.1015 113.049 16.9917 112.829C16.7721 112.28 16.0584 112.006 14.7957 111.896C14.2466 111.841 12.8741 111.841 10.5683 111.841C10.4585 111.841 10.4036 111.951 10.4036 112.115V119.253C10.4036 119.418 10.4585 119.528 10.5683 119.528C13.3682 119.528 14.9604 119.528 15.4545 119.473C16.2231 119.418 16.7172 119.253 16.9917 119.033C17.1564 118.869 17.2662 118.759 17.376 118.759C17.4858 118.759 17.5407 118.814 17.5407 118.979C17.5407 119.033 17.5407 119.088 17.4858 119.198C17.4309 119.308 17.4309 119.473 17.376 119.692C17.3211 119.912 17.3211 120.132 17.2662 120.406C17.2113 120.736 17.2113 121.065 17.1564 121.504C17.1564 121.943 17.1015 122.163 17.1015 122.163C17.0466 122.438 16.9917 122.547 16.8819 122.547C16.7172 122.547 16.6623 122.438 16.6623 122.108C16.6623 121.834 16.6074 121.614 16.5525 121.394C16.3878 120.9 15.8937 120.626 14.9604 120.571C14.027 120.516 12.5996 120.461 10.5683 120.461C10.4036 120.461 10.3487 120.516 10.3487 120.626V122.877C10.3487 123.042 10.3487 123.481 10.3487 124.195C10.3487 124.908 10.3487 125.567 10.3487 126.171C10.3487 126.775 10.3487 127.104 10.3487 127.269C10.4036 127.818 10.4585 128.257 10.6232 128.532C10.733 128.807 11.0075 129.026 11.3918 129.136C11.831 129.301 12.7094 129.356 13.9172 129.356C15.1251 129.356 16.0584 129.301 16.6623 129.136C17.1564 129.026 17.4858 128.807 17.7054 128.532C17.925 128.257 18.0897 127.818 18.1995 127.214C18.2544 126.94 18.3642 126.83 18.474 126.83C18.5838 126.83 18.6387 126.94 18.6387 127.214C18.6387 127.324 18.5838 127.708 18.474 128.367C18.3642 129.026 18.3093 129.465 18.2544 129.685C18.1446 130.014 18.0348 130.179 17.8152 130.289C17.6505 130.344 17.2113 130.399 16.6074 130.399C16.0035 130.399 14.5212 130.399 12.1055 130.344C9.63495 130.289 8.37222 130.289 8.26242 130.289C8.04282 130.289 7.71341 130.289 7.1644 130.344C6.67029 130.399 6.23108 130.399 5.95657 130.344C5.62717 130.344 5.46246 130.289 5.46246 130.124C5.46246 130.069 5.57227 130.014 5.79187 129.96C6.17618 129.905 6.39578 129.905 6.50559 129.905C6.88989 129.85 7.1644 129.63 7.3291 129.301C7.49381 128.971 7.60361 128.367 7.60361 127.489C7.71341 126.116 7.71341 124.579 7.71341 122.822Z" stroke="#102D69" stroke-width="0.98" stroke-miterlimit="10"/>
<path d="M31.4306 114.751L26.3797 127.434C26.1052 128.093 25.9405 128.697 25.9405 129.136C25.9405 129.356 26.0503 129.576 26.2699 129.685C26.4895 129.795 26.764 129.905 27.0385 129.905H27.313C27.5875 129.905 27.6973 129.96 27.6973 130.07C27.6973 130.18 27.5326 130.289 27.1483 130.289C26.8738 130.289 26.4346 130.289 25.8307 130.234C25.2268 130.234 24.8974 130.18 24.8425 130.18C24.8425 130.18 24.4033 130.18 23.5248 130.234C22.6464 130.234 21.9327 130.289 21.3837 130.289C20.9994 130.289 20.7798 130.234 20.7798 130.07C20.7798 129.96 20.9445 129.905 21.219 129.905C21.3837 129.905 21.6033 129.905 21.9327 129.85C22.5915 129.795 23.0856 129.521 23.4699 129.136C23.8542 128.752 24.1837 128.148 24.5131 127.434L31.5404 111.457C31.8149 110.798 32.0345 110.469 32.1992 110.469C32.3639 110.469 32.5835 110.798 32.858 111.402C32.9129 111.567 33.462 112.72 34.3953 114.806C35.3286 116.893 36.3717 119.144 37.4697 121.56C38.5678 123.975 39.3913 125.787 39.9952 126.94C40.8187 128.642 41.6971 129.576 42.6304 129.795C43.0147 129.905 43.3991 129.96 43.8383 129.96C44.0579 129.96 44.1677 130.015 44.1677 130.125C44.1677 130.234 43.9481 130.344 43.5638 130.344C41.752 130.344 40.1599 130.344 38.7325 130.289C38.1285 130.234 37.7991 130.18 37.7991 130.125C37.7991 130.07 37.854 129.96 38.0187 129.96C38.2932 129.85 38.3482 129.631 38.1834 129.246L31.8698 114.751C31.7051 114.367 31.5953 114.367 31.4306 114.751Z" fill="#102D69"/>
<path d="M31.4306 114.751L26.3797 127.434C26.1052 128.093 25.9405 128.697 25.9405 129.136C25.9405 129.356 26.0503 129.576 26.2699 129.685C26.4895 129.795 26.764 129.905 27.0385 129.905H27.313C27.5875 129.905 27.6973 129.96 27.6973 130.07C27.6973 130.18 27.5326 130.289 27.1483 130.289C26.8738 130.289 26.4346 130.289 25.8307 130.234C25.2268 130.234 24.8974 130.18 24.8425 130.18C24.8425 130.18 24.4033 130.18 23.5248 130.234C22.6464 130.234 21.9327 130.289 21.3837 130.289C20.9994 130.289 20.7798 130.234 20.7798 130.07C20.7798 129.96 20.9445 129.905 21.219 129.905C21.3837 129.905 21.6033 129.905 21.9327 129.85C22.5915 129.795 23.0856 129.521 23.4699 129.136C23.8542 128.752 24.1837 128.148 24.5131 127.434L31.5404 111.457C31.8149 110.798 32.0345 110.469 32.1992 110.469C32.3639 110.469 32.5835 110.798 32.858 111.402C32.9129 111.567 33.462 112.72 34.3953 114.806C35.3286 116.893 36.3717 119.144 37.4697 121.56C38.5678 123.975 39.3913 125.787 39.9952 126.94C40.8187 128.642 41.6971 129.576 42.6304 129.795C43.0147 129.905 43.3991 129.96 43.8383 129.96C44.0579 129.96 44.1677 130.015 44.1677 130.125C44.1677 130.234 43.9481 130.344 43.5638 130.344C41.752 130.344 40.1599 130.344 38.7325 130.289C38.1285 130.234 37.7991 130.18 37.7991 130.125C37.7991 130.07 37.854 129.96 38.0187 129.96C38.2932 129.85 38.3482 129.631 38.1834 129.246L31.8698 114.751C31.7051 114.367 31.5953 114.367 31.4306 114.751Z" stroke="#102D69" stroke-width="0.98" stroke-miterlimit="10"/>
<path d="M57.4538 130.674C55.8617 130.674 54.3794 130.454 53.0068 130.07C51.6343 129.686 50.5363 129.137 49.6579 128.478C48.7795 127.819 48.0108 127.05 47.352 126.117C46.6932 125.238 46.254 124.305 45.9795 123.372C45.705 122.438 45.5403 121.505 45.5403 120.517C45.5403 119.418 45.7599 118.32 46.254 117.167C46.7481 116.014 47.4618 114.971 48.3951 113.928C49.3285 112.885 50.5912 112.061 52.2382 111.402C53.8304 110.743 55.6421 110.414 57.6734 110.414C61.1871 110.414 64.0969 111.293 66.3478 113.049C68.5988 114.806 69.7517 117.167 69.7517 120.077C69.7517 123.042 68.5988 125.513 66.3478 127.544C64.042 129.631 61.0773 130.674 57.4538 130.674ZM58.2773 129.686C58.9362 129.686 59.5401 129.631 60.1989 129.466C60.8577 129.356 61.5714 129.082 62.3949 128.697C63.2184 128.313 63.9322 127.819 64.5361 127.215C65.14 126.611 65.689 125.733 66.0733 124.634C66.5125 123.536 66.6772 122.274 66.6772 120.846C66.6772 117.881 65.7439 115.575 63.9322 113.873C62.1204 112.171 59.9244 111.347 57.344 111.347C54.7088 111.347 52.5127 112.061 50.8657 113.544C49.2187 115.026 48.3951 117.112 48.3951 119.858C48.3951 122.823 49.3285 125.183 51.1951 126.995C53.1166 128.752 55.4774 129.686 58.2773 129.686Z" fill="#102D69"/>
<path d="M57.4538 130.674C55.8617 130.674 54.3794 130.454 53.0068 130.07C51.6343 129.686 50.5363 129.137 49.6579 128.478C48.7795 127.819 48.0108 127.05 47.352 126.117C46.6932 125.238 46.254 124.305 45.9795 123.372C45.705 122.438 45.5403 121.505 45.5403 120.517C45.5403 119.418 45.7599 118.32 46.254 117.167C46.7481 116.014 47.4618 114.971 48.3951 113.928C49.3285 112.885 50.5912 112.061 52.2382 111.402C53.8304 110.743 55.6421 110.414 57.6734 110.414C61.1871 110.414 64.0969 111.293 66.3478 113.049C68.5988 114.806 69.7517 117.167 69.7517 120.077C69.7517 123.042 68.5988 125.513 66.3478 127.544C64.042 129.631 61.0773 130.674 57.4538 130.674ZM58.2773 129.686C58.9362 129.686 59.5401 129.631 60.1989 129.466C60.8577 129.356 61.5714 129.082 62.3949 128.697C63.2184 128.313 63.9322 127.819 64.5361 127.215C65.14 126.611 65.689 125.733 66.0733 124.634C66.5125 123.536 66.6772 122.274 66.6772 120.846C66.6772 117.881 65.7439 115.575 63.9322 113.873C62.1204 112.171 59.9244 111.347 57.344 111.347C54.7088 111.347 52.5127 112.061 50.8657 113.544C49.2187 115.026 48.3951 117.112 48.3951 119.858C48.3951 122.823 49.3285 125.183 51.1951 126.995C53.1166 128.752 55.4774 129.686 58.2773 129.686Z" stroke="#102D69" stroke-width="0.98" stroke-miterlimit="10"/>
<path d="M76.6692 122.822V118.265C76.6692 115.081 76.6692 113.269 76.6143 112.72C76.5594 112.281 76.4496 111.896 76.2849 111.677C76.1202 111.457 75.7908 111.292 75.2967 111.237C75.0771 111.182 74.7476 111.182 74.4182 111.182C74.1437 111.182 74.0339 111.127 74.0339 111.018C74.0339 110.908 74.1986 110.798 74.528 110.798C74.9124 110.798 75.4065 110.798 75.9555 110.798C76.5045 110.798 76.9986 110.798 77.3829 110.853C77.7672 110.853 77.9868 110.853 77.9868 110.853C78.1515 110.853 78.6456 110.853 79.4142 110.798C80.1829 110.743 80.7868 110.743 81.3358 110.743C82.5436 110.743 83.5318 110.853 84.4102 111.182C85.2887 111.457 85.8926 111.786 86.3318 112.226C86.7161 112.665 87.0455 113.049 87.2102 113.488C87.3749 113.873 87.4847 114.257 87.4847 114.641C87.4847 115.3 87.32 115.904 86.9906 116.508C86.6612 117.112 86.3318 117.606 86.0024 117.936C85.673 118.265 85.1789 118.704 84.575 119.253C85.9475 119.638 87.1553 120.242 88.2533 121.23C89.3513 122.163 89.9004 123.316 89.9004 124.689C89.9004 126.226 89.2415 127.489 87.869 128.642C86.4965 129.74 84.575 130.289 82.1044 130.289C81.9946 130.289 81.8299 130.289 81.6103 130.289C81.3907 130.289 81.1162 130.289 80.7868 130.234C80.4574 130.234 80.1829 130.234 79.9084 130.234C79.0299 130.179 78.426 130.179 78.0417 130.179C77.7123 130.179 77.2182 130.179 76.5594 130.234C75.9006 130.234 75.4065 130.289 75.0221 130.289C74.6927 130.289 74.528 130.234 74.528 130.125C74.528 130.015 74.6927 129.96 74.9673 129.96C75.1869 129.96 75.4614 129.96 75.681 129.905C76.1202 129.85 76.3947 129.356 76.5594 128.477C76.6143 127.709 76.6692 125.842 76.6692 122.822ZM79.0848 111.951V118.869C79.0848 119.034 79.1397 119.089 79.3044 119.144C79.7985 119.199 80.4025 119.253 81.1711 119.253C82.0495 119.253 82.7083 119.199 83.0377 119.144C83.3671 119.089 83.6965 118.869 83.971 118.595C84.6848 117.881 85.0691 117.002 85.0691 116.014C85.0691 114.806 84.7397 113.763 84.0259 112.884C83.3671 112.006 82.324 111.567 80.8966 111.567C80.3476 111.567 79.8534 111.622 79.4142 111.677C79.2495 111.731 79.0848 111.786 79.0848 111.951ZM79.0848 120.132V121.614C79.0848 125.073 79.0848 126.94 79.1397 127.16C79.1946 127.654 79.1946 128.038 79.2495 128.203C79.3044 128.368 79.3593 128.532 79.524 128.752C79.6888 128.917 79.9084 129.081 80.1829 129.191C80.8417 129.466 81.7201 129.576 82.873 129.576C83.3671 129.576 83.8063 129.521 84.2455 129.411C84.6848 129.301 85.1789 129.136 85.6181 128.862C86.0573 128.587 86.4416 128.203 86.7161 127.709C86.9906 127.215 87.1553 126.611 87.1553 125.897C87.1553 124.964 86.9357 124.03 86.4416 123.097C86.0024 122.163 85.2338 121.395 84.1357 120.736C83.422 120.352 82.5985 120.077 81.6103 119.967C81.3358 119.912 80.5672 119.912 79.1946 119.912C79.1946 119.912 79.0848 119.967 79.0848 120.132Z" fill="#102D69"/>
<path d="M76.6692 122.822V118.265C76.6692 115.081 76.6692 113.269 76.6143 112.72C76.5594 112.281 76.4496 111.896 76.2849 111.677C76.1202 111.457 75.7908 111.292 75.2967 111.237C75.0771 111.182 74.7476 111.182 74.4182 111.182C74.1437 111.182 74.0339 111.127 74.0339 111.018C74.0339 110.908 74.1986 110.798 74.528 110.798C74.9124 110.798 75.4065 110.798 75.9555 110.798C76.5045 110.798 76.9986 110.798 77.3829 110.853C77.7672 110.853 77.9868 110.853 77.9868 110.853C78.1515 110.853 78.6456 110.853 79.4142 110.798C80.1829 110.743 80.7868 110.743 81.3358 110.743C82.5436 110.743 83.5318 110.853 84.4102 111.182C85.2887 111.457 85.8926 111.786 86.3318 112.226C86.7161 112.665 87.0455 113.049 87.2102 113.488C87.3749 113.873 87.4847 114.257 87.4847 114.641C87.4847 115.3 87.32 115.904 86.9906 116.508C86.6612 117.112 86.3318 117.606 86.0024 117.936C85.673 118.265 85.1789 118.704 84.575 119.253C85.9475 119.638 87.1553 120.242 88.2533 121.23C89.3513 122.163 89.9004 123.316 89.9004 124.689C89.9004 126.226 89.2415 127.489 87.869 128.642C86.4965 129.74 84.575 130.289 82.1044 130.289C81.9946 130.289 81.8299 130.289 81.6103 130.289C81.3907 130.289 81.1162 130.289 80.7868 130.234C80.4574 130.234 80.1829 130.234 79.9084 130.234C79.0299 130.179 78.426 130.179 78.0417 130.179C77.7123 130.179 77.2182 130.179 76.5594 130.234C75.9006 130.234 75.4065 130.289 75.0221 130.289C74.6927 130.289 74.528 130.234 74.528 130.125C74.528 130.015 74.6927 129.96 74.9673 129.96C75.1869 129.96 75.4614 129.96 75.681 129.905C76.1202 129.85 76.3947 129.356 76.5594 128.477C76.6143 127.709 76.6692 125.842 76.6692 122.822ZM79.0848 111.951V118.869C79.0848 119.034 79.1397 119.089 79.3044 119.144C79.7985 119.199 80.4025 119.253 81.1711 119.253C82.0495 119.253 82.7083 119.199 83.0377 119.144C83.3671 119.089 83.6965 118.869 83.971 118.595C84.6848 117.881 85.0691 117.002 85.0691 116.014C85.0691 114.806 84.7397 113.763 84.0259 112.884C83.3671 112.006 82.324 111.567 80.8966 111.567C80.3476 111.567 79.8534 111.622 79.4142 111.677C79.2495 111.731 79.0848 111.786 79.0848 111.951ZM79.0848 120.132V121.614C79.0848 125.073 79.0848 126.94 79.1397 127.16C79.1946 127.654 79.1946 128.038 79.2495 128.203C79.3044 128.368 79.3593 128.532 79.524 128.752C79.6888 128.917 79.9084 129.081 80.1829 129.191C80.8417 129.466 81.7201 129.576 82.873 129.576C83.3671 129.576 83.8063 129.521 84.2455 129.411C84.6848 129.301 85.1789 129.136 85.6181 128.862C86.0573 128.587 86.4416 128.203 86.7161 127.709C86.9906 127.215 87.1553 126.611 87.1553 125.897C87.1553 124.964 86.9357 124.03 86.4416 123.097C86.0024 122.163 85.2338 121.395 84.1357 120.736C83.422 120.352 82.5985 120.077 81.6103 119.967C81.3358 119.912 80.5672 119.912 79.1946 119.912C79.1946 119.912 79.0848 119.967 79.0848 120.132Z" stroke="#102D69" stroke-width="0.98" stroke-miterlimit="10"/>
<path d="M105.986 122.712H99.3983C99.2336 122.712 99.1786 122.767 99.0688 122.932L97.2022 127.489C96.9277 128.148 96.763 128.752 96.763 129.191C96.763 129.411 96.8728 129.63 97.0924 129.74C97.312 129.85 97.5865 129.96 97.861 129.96H98.1355C98.41 129.96 98.5198 130.015 98.5198 130.124C98.5198 130.234 98.3551 130.344 97.9708 130.344C97.6963 130.344 97.2571 130.344 96.6532 130.289C96.0493 130.289 95.7199 130.234 95.665 130.234C95.665 130.234 95.2258 130.234 94.3474 130.289C93.4689 130.289 92.7552 130.344 92.2062 130.344C91.8219 130.344 91.6023 130.289 91.6023 130.124C91.6023 130.015 91.767 129.96 92.0415 129.96C92.2062 129.96 92.4258 129.96 92.7552 129.905C93.414 129.85 93.9081 129.575 94.2924 129.191C94.6768 128.807 95.0062 128.203 95.3356 127.489L102.308 111.512C102.583 110.853 102.802 110.523 102.967 110.523C103.132 110.523 103.351 110.853 103.626 111.457C103.681 111.622 104.23 112.775 105.163 114.861C106.096 116.947 107.139 119.198 108.237 121.614C109.335 124.03 110.159 125.842 110.763 126.995C111.586 128.697 112.465 129.63 113.398 129.85C113.782 129.96 114.167 130.015 114.606 130.015C114.825 130.015 114.935 130.07 114.935 130.179C114.935 130.289 114.716 130.399 114.331 130.399C112.52 130.399 110.927 130.399 109.5 130.344C108.896 130.289 108.567 130.234 108.567 130.179C108.567 130.124 108.622 130.015 108.786 130.015C109.061 129.905 109.116 129.685 108.951 129.301L106.096 122.987C106.206 122.767 106.096 122.712 105.986 122.712ZM99.7277 121.779H105.547C105.657 121.779 105.712 121.724 105.657 121.614L102.747 114.641C102.583 114.257 102.473 114.257 102.308 114.641L99.6179 121.614C99.563 121.724 99.6179 121.779 99.7277 121.779Z" fill="#102D69"/>
<path d="M105.986 122.712H99.3983C99.2336 122.712 99.1786 122.767 99.0688 122.932L97.2022 127.489C96.9277 128.148 96.763 128.752 96.763 129.191C96.763 129.411 96.8728 129.63 97.0924 129.74C97.312 129.85 97.5865 129.96 97.861 129.96H98.1355C98.41 129.96 98.5198 130.015 98.5198 130.124C98.5198 130.234 98.3551 130.344 97.9708 130.344C97.6963 130.344 97.2571 130.344 96.6532 130.289C96.0493 130.289 95.7199 130.234 95.665 130.234C95.665 130.234 95.2258 130.234 94.3474 130.289C93.4689 130.289 92.7552 130.344 92.2062 130.344C91.8219 130.344 91.6023 130.289 91.6023 130.124C91.6023 130.015 91.767 129.96 92.0415 129.96C92.2062 129.96 92.4258 129.96 92.7552 129.905C93.414 129.85 93.9081 129.575 94.2924 129.191C94.6768 128.807 95.0062 128.203 95.3356 127.489L102.308 111.512C102.583 110.853 102.802 110.523 102.967 110.523C103.132 110.523 103.351 110.853 103.626 111.457C103.681 111.622 104.23 112.775 105.163 114.861C106.096 116.947 107.139 119.198 108.237 121.614C109.335 124.03 110.159 125.842 110.763 126.995C111.586 128.697 112.465 129.63 113.398 129.85C113.782 129.96 114.167 130.015 114.606 130.015C114.825 130.015 114.935 130.07 114.935 130.179C114.935 130.289 114.716 130.399 114.331 130.399C112.52 130.399 110.927 130.399 109.5 130.344C108.896 130.289 108.567 130.234 108.567 130.179C108.567 130.124 108.622 130.015 108.786 130.015C109.061 129.905 109.116 129.685 108.951 129.301L106.096 122.987C106.206 122.767 106.096 122.712 105.986 122.712ZM99.7277 121.779H105.547C105.657 121.779 105.712 121.724 105.657 121.614L102.747 114.641C102.583 114.257 102.473 114.257 102.308 114.641L99.6179 121.614C99.563 121.724 99.6179 121.779 99.7277 121.779Z" stroke="#102D69" stroke-width="0.98" stroke-miterlimit="10"/>
<path d="M130.911 110.908C130.966 110.908 131.406 110.908 132.229 110.853C132.998 110.853 133.602 110.798 133.931 110.798C134.26 110.798 134.425 110.853 134.425 111.017C134.425 111.127 134.37 111.182 134.206 111.182C134.041 111.182 133.821 111.182 133.437 111.237C133.053 111.292 132.723 111.457 132.613 111.676C132.504 111.896 132.339 112.225 132.339 112.72C132.284 113.269 132.284 115.135 132.284 118.265V122.822C132.284 125.842 132.339 127.709 132.449 128.422C132.504 128.862 132.613 129.191 132.778 129.411C132.943 129.63 133.217 129.795 133.657 129.85C134.206 129.905 134.645 129.96 134.919 129.96C135.139 129.96 135.304 130.015 135.304 130.124C135.304 130.234 135.139 130.344 134.864 130.344C134.37 130.344 133.821 130.344 133.217 130.344C132.613 130.344 132.119 130.344 131.68 130.289C131.296 130.289 131.076 130.289 131.076 130.289C131.076 130.289 130.857 130.289 130.472 130.289C130.088 130.289 129.704 130.289 129.21 130.344C128.715 130.344 128.386 130.344 128.112 130.344C127.782 130.344 127.617 130.289 127.617 130.124C127.617 130.015 127.727 129.96 127.947 129.96C128.166 129.96 128.441 129.96 128.77 129.905C129.264 129.795 129.539 129.356 129.704 128.477C129.813 127.763 129.868 125.897 129.868 122.932V122.163C129.868 122.053 129.813 121.998 129.649 121.998C128.99 121.998 128.002 121.998 126.684 121.944C126.574 121.944 126.464 121.944 126.355 121.998C126.19 122.053 125.97 122.218 125.751 122.438C125.696 122.493 124.653 123.7 122.621 126.061C121.414 127.599 120.37 128.697 119.547 129.301C118.559 130.069 116.912 130.454 114.661 130.454H113.178C112.794 130.454 112.629 130.399 112.629 130.234C112.629 130.124 112.794 130.069 113.124 130.069C113.453 130.069 113.782 130.069 114.112 130.069C114.825 130.015 115.429 129.85 115.978 129.575C116.527 129.301 117.076 128.807 117.79 128.148C118.614 127.324 119.712 126.116 121.084 124.579C121.139 124.524 121.359 124.25 121.798 123.81C122.237 123.371 122.512 123.042 122.676 122.877C122.841 122.712 123.061 122.493 123.39 122.218C123.719 121.944 123.994 121.724 124.214 121.614C122.731 121.12 121.633 120.406 120.919 119.473C120.206 118.539 119.821 117.551 119.821 116.508C119.821 114.641 120.81 113.214 122.676 112.116C123.884 111.402 125.641 111.017 127.837 111.017C128.331 111.017 128.99 111.017 129.704 111.072C130.253 110.853 130.747 110.908 130.911 110.908ZM129.704 120.571V112.17C129.704 112.061 129.649 112.006 129.539 111.896C129.21 111.786 128.715 111.731 128.002 111.731C126.245 111.731 124.872 112.116 123.884 112.939C122.896 113.763 122.347 114.861 122.347 116.398C122.347 117.826 122.896 118.979 124.049 119.802C125.202 120.626 126.574 121.065 128.276 121.065C128.935 121.065 129.319 121.01 129.539 120.955C129.649 120.845 129.704 120.736 129.704 120.571Z" fill="#102D69"/>
<path d="M130.911 110.908C130.966 110.908 131.406 110.908 132.229 110.853C132.998 110.853 133.602 110.798 133.931 110.798C134.26 110.798 134.425 110.853 134.425 111.017C134.425 111.127 134.37 111.182 134.206 111.182C134.041 111.182 133.821 111.182 133.437 111.237C133.053 111.292 132.723 111.457 132.613 111.676C132.504 111.896 132.339 112.225 132.339 112.72C132.284 113.269 132.284 115.135 132.284 118.265V122.822C132.284 125.842 132.339 127.709 132.449 128.422C132.504 128.862 132.613 129.191 132.778 129.411C132.943 129.63 133.217 129.795 133.657 129.85C134.206 129.905 134.645 129.96 134.919 129.96C135.139 129.96 135.304 130.015 135.304 130.124C135.304 130.234 135.139 130.344 134.864 130.344C134.37 130.344 133.821 130.344 133.217 130.344C132.613 130.344 132.119 130.344 131.68 130.289C131.296 130.289 131.076 130.289 131.076 130.289C131.076 130.289 130.857 130.289 130.472 130.289C130.088 130.289 129.704 130.289 129.21 130.344C128.715 130.344 128.386 130.344 128.112 130.344C127.782 130.344 127.617 130.289 127.617 130.124C127.617 130.015 127.727 129.96 127.947 129.96C128.166 129.96 128.441 129.96 128.77 129.905C129.264 129.795 129.539 129.356 129.704 128.477C129.813 127.763 129.868 125.897 129.868 122.932V122.163C129.868 122.053 129.813 121.998 129.649 121.998C128.99 121.998 128.002 121.998 126.684 121.944C126.574 121.944 126.464 121.944 126.355 121.998C126.19 122.053 125.97 122.218 125.751 122.438C125.696 122.493 124.653 123.7 122.621 126.061C121.414 127.599 120.37 128.697 119.547 129.301C118.559 130.069 116.912 130.454 114.661 130.454H113.178C112.794 130.454 112.629 130.399 112.629 130.234C112.629 130.124 112.794 130.069 113.124 130.069C113.453 130.069 113.782 130.069 114.112 130.069C114.825 130.015 115.429 129.85 115.978 129.575C116.527 129.301 117.076 128.807 117.79 128.148C118.614 127.324 119.712 126.116 121.084 124.579C121.139 124.524 121.359 124.25 121.798 123.81C122.237 123.371 122.512 123.042 122.676 122.877C122.841 122.712 123.061 122.493 123.39 122.218C123.719 121.944 123.994 121.724 124.214 121.614C122.731 121.12 121.633 120.406 120.919 119.473C120.206 118.539 119.821 117.551 119.821 116.508C119.821 114.641 120.81 113.214 122.676 112.116C123.884 111.402 125.641 111.017 127.837 111.017C128.331 111.017 128.99 111.017 129.704 111.072C130.253 110.853 130.747 110.908 130.911 110.908ZM129.704 120.571V112.17C129.704 112.061 129.649 112.006 129.539 111.896C129.21 111.786 128.715 111.731 128.002 111.731C126.245 111.731 124.872 112.116 123.884 112.939C122.896 113.763 122.347 114.861 122.347 116.398C122.347 117.826 122.896 118.979 124.049 119.802C125.202 120.626 126.574 121.065 128.276 121.065C128.935 121.065 129.319 121.01 129.539 120.955C129.649 120.845 129.704 120.736 129.704 120.571Z" stroke="#102D69" stroke-width="0.98" stroke-miterlimit="10"/>
<path d="M161.107 122.712H154.519C154.354 122.712 154.299 122.767 154.189 122.932L152.323 127.489C152.048 128.148 151.884 128.752 151.884 129.191C151.884 129.411 151.993 129.63 152.213 129.74C152.433 129.85 152.707 129.96 152.982 129.96H153.256C153.531 129.96 153.64 130.015 153.64 130.124C153.64 130.234 153.476 130.344 153.091 130.344C152.817 130.344 152.378 130.344 151.774 130.289C151.17 130.289 150.84 130.234 150.786 130.234C150.786 130.234 150.346 130.234 149.468 130.289C148.59 130.289 147.876 130.344 147.327 130.344C146.943 130.344 146.723 130.289 146.723 130.124C146.723 130.015 146.888 129.96 147.162 129.96C147.327 129.96 147.546 129.96 147.876 129.905C148.535 129.85 149.029 129.575 149.413 129.191C149.797 128.807 150.127 128.203 150.456 127.489L157.429 111.512C157.703 110.853 157.923 110.523 158.087 110.523C158.252 110.523 158.472 110.853 158.746 111.457C158.801 111.622 159.35 112.775 160.283 114.861C161.217 116.947 162.26 119.198 163.358 121.614C164.456 124.03 165.279 125.842 165.883 126.995C166.707 128.697 167.585 129.63 168.519 129.85C168.903 129.96 169.287 130.015 169.726 130.015C169.946 130.015 170.056 130.07 170.056 130.179C170.056 130.289 169.836 130.399 169.452 130.399C167.64 130.399 166.048 130.399 164.621 130.344C164.017 130.289 163.687 130.234 163.687 130.179C163.687 130.124 163.742 130.015 163.907 130.015C164.181 129.905 164.236 129.685 164.072 129.301L161.217 122.987C161.327 122.767 161.217 122.712 161.107 122.712ZM154.848 121.779H160.723C160.832 121.779 160.887 121.724 160.832 121.614L157.923 114.641C157.758 114.257 157.648 114.257 157.484 114.641L154.793 121.614C154.684 121.724 154.738 121.779 154.848 121.779Z" fill="#102D69"/>
<path d="M161.107 122.712H154.519C154.354 122.712 154.299 122.767 154.189 122.932L152.323 127.489C152.048 128.148 151.884 128.752 151.884 129.191C151.884 129.411 151.993 129.63 152.213 129.74C152.433 129.85 152.707 129.96 152.982 129.96H153.256C153.531 129.96 153.64 130.015 153.64 130.124C153.64 130.234 153.476 130.344 153.091 130.344C152.817 130.344 152.378 130.344 151.774 130.289C151.17 130.289 150.84 130.234 150.786 130.234C150.786 130.234 150.346 130.234 149.468 130.289C148.59 130.289 147.876 130.344 147.327 130.344C146.943 130.344 146.723 130.289 146.723 130.124C146.723 130.015 146.888 129.96 147.162 129.96C147.327 129.96 147.546 129.96 147.876 129.905C148.535 129.85 149.029 129.575 149.413 129.191C149.797 128.807 150.127 128.203 150.456 127.489L157.429 111.512C157.703 110.853 157.923 110.523 158.087 110.523C158.252 110.523 158.472 110.853 158.746 111.457C158.801 111.622 159.35 112.775 160.283 114.861C161.217 116.947 162.26 119.198 163.358 121.614C164.456 124.03 165.279 125.842 165.883 126.995C166.707 128.697 167.585 129.63 168.519 129.85C168.903 129.96 169.287 130.015 169.726 130.015C169.946 130.015 170.056 130.07 170.056 130.179C170.056 130.289 169.836 130.399 169.452 130.399C167.64 130.399 166.048 130.399 164.621 130.344C164.017 130.289 163.687 130.234 163.687 130.179C163.687 130.124 163.742 130.015 163.907 130.015C164.181 129.905 164.236 129.685 164.072 129.301L161.217 122.987C161.327 122.767 161.217 122.712 161.107 122.712ZM154.848 121.779H160.723C160.832 121.779 160.887 121.724 160.832 121.614L157.923 114.641C157.758 114.257 157.648 114.257 157.484 114.641L154.793 121.614C154.684 121.724 154.738 121.779 154.848 121.779Z" stroke="#102D69" stroke-width="0.98" stroke-miterlimit="10"/>
<path d="M177.577 130.673C175.711 130.673 174.283 130.454 173.24 129.959C172.911 129.795 172.691 129.52 172.636 129.136C172.581 128.202 172.636 127.324 172.801 126.5C172.856 126.281 172.966 126.116 173.021 126.116C173.13 126.116 173.24 126.281 173.24 126.555C173.35 128.697 174.997 129.795 178.072 129.795C179.773 129.795 181.146 129.355 182.244 128.532C183.342 127.708 183.891 126.555 183.891 125.018C183.891 123.426 183.287 122.163 182.079 121.284C180.871 120.406 179.389 119.967 177.687 119.857C176.973 119.857 176.589 119.747 176.589 119.582C176.589 119.473 176.973 119.363 177.687 119.253C180.871 119.033 182.464 117.661 182.464 115.19C182.464 114.696 182.409 114.202 182.244 113.817C182.079 113.378 181.86 112.994 181.53 112.555C181.201 112.115 180.707 111.841 180.103 111.566C179.444 111.347 178.675 111.182 177.797 111.182C175.326 111.182 174.009 112.17 173.899 114.147C173.899 114.421 173.789 114.531 173.679 114.531C173.515 114.531 173.46 114.421 173.46 114.147C173.46 113.872 173.46 113.433 173.405 112.829C173.35 112.225 173.35 111.786 173.35 111.566C173.35 111.237 173.46 111.072 173.625 111.072C173.734 111.072 173.844 111.017 174.009 111.017C174.174 111.017 174.338 110.962 174.558 110.907C174.777 110.853 174.997 110.798 175.162 110.798C176.37 110.523 177.577 110.358 178.73 110.358C179.938 110.358 180.926 110.523 181.805 110.798C182.683 111.072 183.342 111.456 183.781 111.896C184.22 112.335 184.55 112.774 184.715 113.213C184.934 113.653 184.989 114.092 184.989 114.531C184.989 115.684 184.55 116.672 183.726 117.441C182.903 118.21 181.915 118.814 180.762 119.143C180.707 119.198 180.707 119.198 180.762 119.198C181.366 119.308 181.969 119.418 182.628 119.692C183.232 119.912 183.891 120.241 184.495 120.626C185.154 121.01 185.648 121.504 186.032 122.163C186.416 122.767 186.636 123.481 186.636 124.249C186.636 126.061 185.813 127.544 184.111 128.752C182.519 130.069 180.322 130.673 177.577 130.673Z" fill="#102D69"/>
<path d="M196.024 113.872L195.969 127.269C197.397 125.786 200.032 123.096 203.875 119.088C207.718 115.08 209.969 112.774 210.683 112.005C211.726 110.962 212.385 110.413 212.659 110.413C212.769 110.413 212.879 110.468 212.934 110.578C212.989 110.688 213.044 110.907 213.098 111.237C213.153 111.621 213.153 112.115 213.153 112.884C213.153 119.143 213.208 123.92 213.263 127.104C213.263 128.092 213.373 128.751 213.538 129.136C213.702 129.52 214.032 129.74 214.526 129.794C214.745 129.849 215.13 129.849 215.734 129.904C216.063 129.904 216.173 129.959 216.173 130.069C216.173 130.179 216.008 130.234 215.734 130.234C215.294 130.234 214.526 130.234 213.318 130.179C212.11 130.124 211.506 130.124 211.396 130.124C211.232 130.124 210.793 130.124 210.189 130.179C209.585 130.234 209.036 130.234 208.651 130.234C208.322 130.234 208.212 130.179 208.212 130.069C208.212 129.959 208.377 129.904 208.651 129.849C209.091 129.794 209.42 129.794 209.53 129.74C209.914 129.685 210.189 129.41 210.353 128.916C210.463 128.422 210.573 127.653 210.573 126.555C210.628 125.018 210.628 122.712 210.628 119.802C210.628 116.837 210.628 114.805 210.683 113.652C209.146 115.3 206.236 118.264 202.063 122.602C197.891 126.939 195.53 129.355 194.981 129.849C194.432 130.344 194.048 130.563 193.828 130.563C193.663 130.563 193.554 130.508 193.499 130.344C193.444 130.179 193.444 129.849 193.444 129.355V114.366C193.444 113.433 193.389 112.774 193.279 112.335C193.169 111.896 193.06 111.621 192.895 111.511C192.73 111.401 192.456 111.292 192.071 111.237C191.907 111.237 191.742 111.182 191.522 111.182C191.303 111.182 191.138 111.182 191.083 111.182C190.863 111.182 190.754 111.127 190.754 111.017C190.754 110.907 190.973 110.852 191.358 110.852C191.687 110.852 192.346 110.852 193.224 110.907C194.103 110.907 194.597 110.962 194.761 110.962C195.091 110.962 195.64 110.962 196.354 110.907C197.067 110.907 197.561 110.852 197.836 110.852C198.165 110.852 198.33 110.907 198.33 111.017C198.33 111.127 198.22 111.182 197.946 111.237C197.561 111.292 197.287 111.292 197.122 111.292C196.683 111.401 196.354 111.566 196.244 111.896C196.134 112.115 196.079 112.829 196.024 113.872Z" fill="#102D69"/>
<path d="M233.577 110.908C233.631 110.908 234.071 110.908 234.894 110.853C235.663 110.853 236.267 110.798 236.596 110.798C236.925 110.798 237.09 110.853 237.09 111.017C237.09 111.127 237.035 111.182 236.871 111.182C236.706 111.182 236.486 111.182 236.102 111.237C235.718 111.292 235.388 111.457 235.278 111.676C235.169 111.896 235.004 112.225 235.004 112.72C234.949 113.269 234.949 115.135 234.949 118.265V122.822C234.949 125.842 235.004 127.709 235.114 128.422C235.169 128.862 235.278 129.191 235.443 129.411C235.608 129.63 235.882 129.795 236.322 129.85C236.871 129.905 237.31 129.96 237.584 129.96C237.804 129.96 237.969 130.015 237.969 130.124C237.969 130.234 237.804 130.344 237.529 130.344C237.035 130.344 236.486 130.344 235.882 130.344C235.278 130.344 234.784 130.344 234.345 130.289C233.961 130.289 233.741 130.289 233.741 130.289C233.741 130.289 233.522 130.289 233.137 130.289C232.753 130.289 232.369 130.289 231.875 130.344C231.38 130.344 231.051 130.344 230.777 130.344C230.447 130.344 230.282 130.289 230.282 130.124C230.282 130.015 230.392 129.96 230.612 129.96C230.831 129.96 231.106 129.96 231.435 129.905C231.929 129.795 232.204 129.356 232.369 128.477C232.478 127.763 232.533 125.897 232.533 122.932V122.163C232.533 122.053 232.478 121.998 232.314 121.998C231.655 121.998 230.667 121.998 229.349 121.944C229.239 121.944 229.13 121.944 229.02 121.998C228.855 122.053 228.635 122.218 228.416 122.438C228.361 122.493 227.318 123.7 225.286 126.061C224.079 127.599 223.035 128.697 222.212 129.301C221.224 130.069 219.577 130.454 217.326 130.454H215.843C215.459 130.454 215.294 130.399 215.294 130.234C215.294 130.124 215.459 130.069 215.789 130.069C216.118 130.069 216.447 130.069 216.777 130.069C217.49 130.015 218.094 129.85 218.643 129.575C219.138 129.301 219.741 128.807 220.455 128.148C221.279 127.324 222.377 126.116 223.749 124.579C223.804 124.524 224.024 124.25 224.463 123.81C224.902 123.371 225.177 123.042 225.341 122.877C225.506 122.712 225.726 122.493 226.055 122.218C226.384 121.944 226.659 121.724 226.879 121.614C225.396 121.12 224.298 120.406 223.585 119.473C222.871 118.539 222.486 117.551 222.486 116.508C222.486 114.641 223.475 113.214 225.341 112.116C226.549 111.402 228.306 111.017 230.502 111.017C230.996 111.017 231.655 111.017 232.369 111.072C232.918 110.853 233.357 110.908 233.577 110.908ZM232.369 120.571V112.17C232.369 112.061 232.314 112.006 232.204 111.896C231.875 111.786 231.38 111.731 230.667 111.731C228.91 111.731 227.537 112.116 226.549 112.939C225.561 113.763 225.012 114.861 225.012 116.398C225.012 117.826 225.561 118.979 226.714 119.802C227.867 120.626 229.239 121.065 230.941 121.065C231.6 121.065 231.984 121.01 232.204 120.955C232.314 120.845 232.369 120.736 232.369 120.571Z" fill="#102D69"/>
<path d="M177.577 130.673C175.711 130.673 174.283 130.454 173.24 129.959C172.911 129.795 172.691 129.52 172.636 129.136C172.581 128.202 172.636 127.324 172.801 126.5C172.856 126.281 172.966 126.116 173.021 126.116C173.13 126.116 173.24 126.281 173.24 126.555C173.35 128.697 174.997 129.795 178.072 129.795C179.773 129.795 181.146 129.355 182.244 128.532C183.342 127.708 183.891 126.555 183.891 125.018C183.891 123.426 183.287 122.163 182.079 121.284C180.871 120.406 179.389 119.967 177.687 119.857C176.973 119.857 176.589 119.747 176.589 119.582C176.589 119.473 176.973 119.363 177.687 119.253C180.871 119.033 182.464 117.661 182.464 115.19C182.464 114.696 182.409 114.202 182.244 113.817C182.079 113.378 181.86 112.994 181.53 112.555C181.201 112.115 180.707 111.841 180.103 111.566C179.444 111.347 178.675 111.182 177.797 111.182C175.326 111.182 174.009 112.17 173.899 114.147C173.899 114.421 173.789 114.531 173.679 114.531C173.515 114.531 173.46 114.421 173.46 114.147C173.46 113.872 173.46 113.433 173.405 112.829C173.35 112.225 173.35 111.786 173.35 111.566C173.35 111.237 173.46 111.072 173.625 111.072C173.734 111.072 173.844 111.017 174.009 111.017C174.174 111.017 174.338 110.962 174.558 110.907C174.777 110.853 174.997 110.798 175.162 110.798C176.37 110.523 177.577 110.358 178.73 110.358C179.938 110.358 180.926 110.523 181.805 110.798C182.683 111.072 183.342 111.456 183.781 111.896C184.22 112.335 184.55 112.774 184.715 113.213C184.934 113.653 184.989 114.092 184.989 114.531C184.989 115.684 184.55 116.672 183.726 117.441C182.903 118.21 181.915 118.814 180.762 119.143C180.707 119.198 180.707 119.198 180.762 119.198C181.366 119.308 181.969 119.418 182.628 119.692C183.232 119.912 183.891 120.241 184.495 120.626C185.154 121.01 185.648 121.504 186.032 122.163C186.416 122.767 186.636 123.481 186.636 124.249C186.636 126.061 185.813 127.544 184.111 128.752C182.519 130.069 180.322 130.673 177.577 130.673Z" stroke="#102D69" stroke-width="0.98" stroke-miterlimit="10"/>
<path d="M196.024 113.872L195.969 127.269C197.397 125.786 200.032 123.096 203.875 119.088C207.718 115.08 209.969 112.774 210.683 112.005C211.726 110.962 212.385 110.413 212.659 110.413C212.769 110.413 212.879 110.468 212.934 110.578C212.989 110.688 213.044 110.907 213.098 111.237C213.153 111.621 213.153 112.115 213.153 112.884C213.153 119.143 213.208 123.92 213.263 127.104C213.263 128.092 213.373 128.751 213.538 129.136C213.702 129.52 214.032 129.74 214.526 129.794C214.745 129.849 215.13 129.849 215.734 129.904C216.063 129.904 216.173 129.959 216.173 130.069C216.173 130.179 216.008 130.234 215.734 130.234C215.294 130.234 214.526 130.234 213.318 130.179C212.11 130.124 211.506 130.124 211.396 130.124C211.232 130.124 210.793 130.124 210.189 130.179C209.585 130.234 209.036 130.234 208.651 130.234C208.322 130.234 208.212 130.179 208.212 130.069C208.212 129.959 208.377 129.904 208.651 129.849C209.091 129.794 209.42 129.794 209.53 129.74C209.914 129.685 210.189 129.41 210.353 128.916C210.463 128.422 210.573 127.653 210.573 126.555C210.628 125.018 210.628 122.712 210.628 119.802C210.628 116.837 210.628 114.805 210.683 113.652C209.146 115.3 206.236 118.264 202.063 122.602C197.891 126.939 195.53 129.355 194.981 129.849C194.432 130.344 194.048 130.563 193.828 130.563C193.663 130.563 193.554 130.508 193.499 130.344C193.444 130.179 193.444 129.849 193.444 129.355V114.366C193.444 113.433 193.389 112.774 193.279 112.335C193.169 111.896 193.06 111.621 192.895 111.511C192.73 111.401 192.456 111.292 192.071 111.237C191.907 111.237 191.742 111.182 191.522 111.182C191.303 111.182 191.138 111.182 191.083 111.182C190.863 111.182 190.754 111.127 190.754 111.017C190.754 110.907 190.973 110.852 191.358 110.852C191.687 110.852 192.346 110.852 193.224 110.907C194.103 110.907 194.597 110.962 194.761 110.962C195.091 110.962 195.64 110.962 196.354 110.907C197.067 110.907 197.561 110.852 197.836 110.852C198.165 110.852 198.33 110.907 198.33 111.017C198.33 111.127 198.22 111.182 197.946 111.237C197.561 111.292 197.287 111.292 197.122 111.292C196.683 111.401 196.354 111.566 196.244 111.896C196.134 112.115 196.079 112.829 196.024 113.872Z" stroke="#102D69" stroke-width="0.98" stroke-miterlimit="10"/>
<path d="M233.577 110.908C233.631 110.908 234.071 110.908 234.894 110.853C235.663 110.853 236.267 110.798 236.596 110.798C236.925 110.798 237.09 110.853 237.09 111.017C237.09 111.127 237.035 111.182 236.871 111.182C236.706 111.182 236.486 111.182 236.102 111.237C235.718 111.292 235.388 111.457 235.278 111.676C235.169 111.896 235.004 112.225 235.004 112.72C234.949 113.269 234.949 115.135 234.949 118.265V122.822C234.949 125.842 235.004 127.709 235.114 128.422C235.169 128.862 235.278 129.191 235.443 129.411C235.608 129.63 235.882 129.795 236.322 129.85C236.871 129.905 237.31 129.96 237.584 129.96C237.804 129.96 237.969 130.015 237.969 130.124C237.969 130.234 237.804 130.344 237.529 130.344C237.035 130.344 236.486 130.344 235.882 130.344C235.278 130.344 234.784 130.344 234.345 130.289C233.961 130.289 233.741 130.289 233.741 130.289C233.741 130.289 233.522 130.289 233.137 130.289C232.753 130.289 232.369 130.289 231.875 130.344C231.38 130.344 231.051 130.344 230.777 130.344C230.447 130.344 230.282 130.289 230.282 130.124C230.282 130.015 230.392 129.96 230.612 129.96C230.831 129.96 231.106 129.96 231.435 129.905C231.929 129.795 232.204 129.356 232.369 128.477C232.478 127.763 232.533 125.897 232.533 122.932V122.163C232.533 122.053 232.478 121.998 232.314 121.998C231.655 121.998 230.667 121.998 229.349 121.944C229.239 121.944 229.13 121.944 229.02 121.998C228.855 122.053 228.635 122.218 228.416 122.438C228.361 122.493 227.318 123.7 225.286 126.061C224.079 127.599 223.035 128.697 222.212 129.301C221.224 130.069 219.577 130.454 217.326 130.454H215.843C215.459 130.454 215.294 130.399 215.294 130.234C215.294 130.124 215.459 130.069 215.789 130.069C216.118 130.069 216.447 130.069 216.777 130.069C217.49 130.015 218.094 129.85 218.643 129.575C219.138 129.301 219.741 128.807 220.455 128.148C221.279 127.324 222.377 126.116 223.749 124.579C223.804 124.524 224.024 124.25 224.463 123.81C224.902 123.371 225.177 123.042 225.341 122.877C225.506 122.712 225.726 122.493 226.055 122.218C226.384 121.944 226.659 121.724 226.879 121.614C225.396 121.12 224.298 120.406 223.585 119.473C222.871 118.539 222.486 117.551 222.486 116.508C222.486 114.641 223.475 113.214 225.341 112.116C226.549 111.402 228.306 111.017 230.502 111.017C230.996 111.017 231.655 111.017 232.369 111.072C232.918 110.853 233.357 110.908 233.577 110.908ZM232.369 120.571V112.17C232.369 112.061 232.314 112.006 232.204 111.896C231.875 111.786 231.38 111.731 230.667 111.731C228.91 111.731 227.537 112.116 226.549 112.939C225.561 113.763 225.012 114.861 225.012 116.398C225.012 117.826 225.561 118.979 226.714 119.802C227.867 120.626 229.239 121.065 230.941 121.065C231.6 121.065 231.984 121.01 232.204 120.955C232.314 120.845 232.369 120.736 232.369 120.571Z" stroke="#102D69" stroke-width="0.98" stroke-miterlimit="10"/>
<path d="M122.951 142.917H120.59V147.913H119.657V142.917H117.351V142.203H123.006V142.917H122.951Z" fill="#102D69"/>
<path d="M128.166 147.584C127.617 147.309 127.178 146.98 126.849 146.541C126.519 146.102 126.355 145.607 126.355 145.058C126.355 144.509 126.519 144.015 126.849 143.576C127.178 143.137 127.617 142.807 128.166 142.533C128.715 142.258 129.319 142.148 130.033 142.148C130.692 142.148 131.351 142.258 131.9 142.533C132.449 142.807 132.888 143.137 133.217 143.576C133.547 144.015 133.711 144.509 133.711 145.058C133.711 145.607 133.547 146.102 133.217 146.541C132.888 146.98 132.449 147.309 131.9 147.584C131.351 147.859 130.747 147.968 130.033 147.968C129.374 147.968 128.715 147.804 128.166 147.584ZM131.406 146.925C131.79 146.76 132.119 146.486 132.339 146.157C132.559 145.827 132.668 145.443 132.668 145.058C132.668 144.619 132.559 144.29 132.339 143.96C132.119 143.631 131.79 143.356 131.406 143.192C131.021 143.027 130.582 142.917 130.033 142.917C129.484 142.917 129.1 143.027 128.661 143.192C128.276 143.356 127.947 143.631 127.727 143.96C127.508 144.29 127.398 144.674 127.398 145.058C127.398 145.498 127.508 145.827 127.727 146.157C127.947 146.486 128.276 146.76 128.661 146.925C129.045 147.09 129.539 147.2 130.033 147.2C130.527 147.2 131.021 147.145 131.406 146.925Z" fill="#102D69"/>
<path d="M142.935 142.697C143.429 143.027 143.703 143.521 143.703 144.18C143.703 144.784 143.429 145.278 142.935 145.662C142.441 146.046 141.727 146.211 140.849 146.211H139.147V147.913H138.158V142.203H140.849C141.727 142.203 142.441 142.368 142.935 142.697ZM142.221 145.113C142.551 144.893 142.715 144.564 142.715 144.18C142.715 143.74 142.551 143.466 142.221 143.246C141.892 143.027 141.398 142.917 140.794 142.917H139.147V145.497H140.794C141.398 145.443 141.892 145.333 142.221 145.113Z" fill="#102D69"/>
<path d="M152.433 142.917H148.919V147.913H147.931V142.203H152.433V142.917Z" fill="#102D69"/>
<path d="M156.88 147.584C156.331 147.309 155.891 146.98 155.562 146.541C155.233 146.102 155.068 145.607 155.068 145.058C155.068 144.509 155.233 144.015 155.562 143.576C155.891 143.137 156.331 142.807 156.88 142.533C157.429 142.258 158.033 142.148 158.746 142.148C159.405 142.148 160.064 142.258 160.613 142.533C161.162 142.807 161.601 143.137 161.931 143.576C162.26 144.015 162.425 144.509 162.425 145.058C162.425 145.607 162.26 146.102 161.931 146.541C161.601 146.98 161.162 147.309 160.613 147.584C160.064 147.859 159.46 147.968 158.746 147.968C158.033 147.968 157.429 147.804 156.88 147.584ZM160.119 146.925C160.503 146.76 160.832 146.486 161.052 146.157C161.272 145.827 161.382 145.443 161.382 145.058C161.382 144.619 161.272 144.29 161.052 143.96C160.832 143.631 160.503 143.356 160.119 143.192C159.734 143.027 159.295 142.917 158.746 142.917C158.197 142.917 157.813 143.027 157.374 143.192C156.989 143.356 156.66 143.631 156.44 143.96C156.221 144.29 156.111 144.674 156.111 145.058C156.111 145.498 156.221 145.827 156.44 146.157C156.66 146.486 156.989 146.76 157.374 146.925C157.758 147.09 158.252 147.2 158.746 147.2C159.24 147.2 159.68 147.145 160.119 146.925Z" fill="#102D69"/>
<path d="M172.197 145.443C172.417 145.662 172.526 145.992 172.526 146.376C172.526 146.87 172.307 147.254 171.868 147.529C171.428 147.803 170.824 147.913 170.001 147.913H166.872V142.203H169.781C170.55 142.203 171.099 142.313 171.538 142.587C171.977 142.862 172.142 143.191 172.142 143.686C172.142 144.015 172.032 144.235 171.868 144.454C171.703 144.674 171.428 144.839 171.099 144.948C171.593 145.003 171.922 145.168 172.197 145.443ZM167.86 144.674H169.781C170.275 144.674 170.605 144.619 170.879 144.454C171.154 144.29 171.264 144.07 171.264 143.74C171.264 143.411 171.154 143.191 170.879 143.027C170.605 142.862 170.275 142.807 169.781 142.807H167.86V144.674ZM171.538 146.266C171.538 145.937 171.428 145.717 171.154 145.552C170.879 145.388 170.495 145.333 170.001 145.333H167.86V147.254H170.001C171.044 147.254 171.538 146.925 171.538 146.266Z" fill="#102D69"/>
<path d="M181.969 144.619C182.409 144.948 182.628 145.388 182.628 145.937C182.628 146.541 182.409 147.035 181.915 147.364C181.475 147.694 180.762 147.858 179.938 147.858H177.138V142.203H178.126V144.18H180.158C180.926 144.18 181.53 144.344 181.969 144.619ZM181.201 146.925C181.53 146.705 181.64 146.376 181.64 145.992C181.64 145.223 181.036 144.839 179.883 144.839H178.072V147.254H179.883C180.432 147.254 180.871 147.145 181.201 146.925ZM183.671 142.203H184.66V147.913H183.671V142.203Z" fill="#102D69"/>
<path d="M189.71 142.203H190.699V146.596L194.761 142.203H195.64V147.913H194.706V143.521L190.644 147.913H189.765V142.203H189.71ZM191.412 141.49C191.138 141.27 190.973 140.995 190.973 140.666H191.687C191.687 140.886 191.797 141.05 191.961 141.16C192.126 141.27 192.346 141.325 192.675 141.325C192.95 141.325 193.224 141.27 193.389 141.16C193.554 141.05 193.663 140.886 193.663 140.666H194.322C194.322 140.995 194.157 141.27 193.883 141.49C193.608 141.709 193.169 141.764 192.675 141.764C192.126 141.819 191.687 141.709 191.412 141.49Z" fill="#102D69"/>
<path d="M212.714 147.199V149.176H211.781V147.913H206.181V149.176H205.248V147.199H205.577C206.016 147.199 206.291 146.87 206.51 146.376C206.73 145.882 206.785 145.058 206.84 144.07L206.895 142.258H211.671V147.254H212.714V147.199ZM207.499 146.101C207.389 146.65 207.169 146.98 206.895 147.199H210.738V142.917H207.718L207.663 144.125C207.663 144.893 207.608 145.552 207.499 146.101Z" fill="#102D69"/>
<path d="M218.204 147.584C217.655 147.309 217.216 146.98 216.886 146.541C216.557 146.102 216.392 145.607 216.392 145.058C216.392 144.509 216.557 144.015 216.886 143.576C217.216 143.137 217.655 142.807 218.204 142.533C218.753 142.258 219.357 142.148 220.071 142.148C220.73 142.148 221.388 142.258 221.937 142.533C222.486 142.807 222.926 143.137 223.255 143.576C223.584 144.015 223.749 144.509 223.749 145.058C223.749 145.607 223.584 146.102 223.255 146.541C222.926 146.98 222.486 147.309 221.937 147.584C221.388 147.859 220.784 147.968 220.071 147.968C219.357 147.968 218.753 147.804 218.204 147.584ZM221.388 146.925C221.773 146.76 222.102 146.486 222.322 146.157C222.541 145.827 222.651 145.443 222.651 145.058C222.651 144.619 222.541 144.29 222.322 143.96C222.102 143.631 221.773 143.356 221.388 143.192C221.004 143.027 220.565 142.917 220.016 142.917C219.467 142.917 219.082 143.027 218.643 143.192C218.259 143.356 217.93 143.631 217.71 143.96C217.49 144.29 217.381 144.674 217.381 145.058C217.381 145.498 217.49 145.827 217.71 146.157C217.93 146.486 218.259 146.76 218.643 146.925C219.028 147.09 219.522 147.2 220.016 147.2C220.51 147.2 221.004 147.145 221.388 146.925Z" fill="#102D69"/>
<path d="M234.51 147.858V143.686L232.039 147.145H231.6L229.13 143.74V147.858H228.196V142.203H229.02L231.875 146.211L234.675 142.203H235.498V147.913H234.51V147.858Z" fill="#102D69"/>
<path d="M31.76 98.5541C31.76 98.5541 126.904 59.1324 219.796 56.7715C219.796 56.7715 127.178 72.6939 80.8416 98.5541H31.76Z" fill="#C00D0D"/>
<path d="M96.159 90.3184H75.2417V98.5541H96.159V90.3184Z" fill="#C00D0D"/>
<path d="M145.186 72.6943H124.268V98.5545H145.186V72.6943Z" fill="#C00D0D"/>
<path d="M172.252 98.5538H193.169V60.2852L172.252 63.6344V98.5538Z" fill="#C00D0D"/>
<path d="M102.528 74.286C102.528 74.286 52.9518 52.2692 -8.3728 56.1125C-8.3728 56.1125 48.3401 57.7597 82.5435 79.0627L102.528 74.286Z" fill="#102D69"/>
<path d="M17.7601 57.1006V71.7602C13.7523 71.4857 9.52493 71.266 5.18774 71.1013V57.1006H17.7601Z" fill="#102D69"/>
<path d="M45.65 59.4072V74.7257C41.6971 74.1217 37.5246 73.5727 33.0776 73.0785V59.4072H45.65Z" fill="#102D69"/>
<path d="M73.2652 65.3916V80.4904C69.5869 79.4472 65.3595 78.404 60.6929 77.4158V65.3916H73.2652Z" fill="#102D69"/>
</g>
<defs>
<linearGradient id="paint0_linear_6_481" x1="72.0862" y1="91.0728" x2="150.587" y2="38.4623" gradientUnits="userSpaceOnUse">
<stop stop-color="#BA901B"/>
<stop offset="0.48" stop-color="#F1D67F"/>
<stop offset="1" stop-color="#BA901B"/>
</linearGradient>
<linearGradient id="paint1_linear_6_481" x1="43.0253" y1="105.773" x2="188.651" y2="8.17813" gradientUnits="userSpaceOnUse">
<stop stop-color="#BA901B"/>
<stop offset="0.48" stop-color="#F1D67F"/>
<stop offset="1" stop-color="#BA901B"/>
</linearGradient>
<linearGradient id="paint2_linear_6_481" x1="12.2265" y1="116.72" x2="216.621" y2="-20.2549" gradientUnits="userSpaceOnUse">
<stop stop-color="#BA901B"/>
<stop offset="0.48" stop-color="#F1D67F"/>
<stop offset="1" stop-color="#BA901B"/>
</linearGradient>
<linearGradient id="paint3_linear_6_481" x1="5.78934" y1="111.121" x2="212.715" y2="-27.5555" gradientUnits="userSpaceOnUse">
<stop stop-color="#BA901B"/>
<stop offset="0.48" stop-color="#F1D67F"/>
<stop offset="1" stop-color="#BA901B"/>
</linearGradient>
<linearGradient id="paint4_linear_6_481" x1="1.19141" y1="104.259" x2="208.117" y2="-34.4122" gradientUnits="userSpaceOnUse">
<stop stop-color="#BA901B"/>
<stop offset="0.48" stop-color="#F1D67F"/>
<stop offset="1" stop-color="#BA901B"/>
</linearGradient>
<linearGradient id="paint5_linear_6_481" x1="-3.40516" y1="97.4028" x2="203.52" y2="-41.274" gradientUnits="userSpaceOnUse">
<stop stop-color="#BA901B"/>
<stop offset="0.48" stop-color="#F1D67F"/>
<stop offset="1" stop-color="#BA901B"/>
</linearGradient>
<linearGradient id="paint6_linear_6_481" x1="-8.0212" y1="90.5161" x2="198.904" y2="-48.1607" gradientUnits="userSpaceOnUse">
<stop stop-color="#BA901B"/>
<stop offset="0.48" stop-color="#F1D67F"/>
<stop offset="1" stop-color="#BA901B"/>
</linearGradient>
<linearGradient id="paint7_linear_6_481" x1="-12.8865" y1="83.2564" x2="194.039" y2="-55.4148" gradientUnits="userSpaceOnUse">
<stop stop-color="#BA901B"/>
<stop offset="0.48" stop-color="#F1D67F"/>
<stop offset="1" stop-color="#BA901B"/>
</linearGradient>
<clipPath id="clip0_6_481">
<rect width="261" height="150" fill="white"/>
</clipPath>
</defs>
</svg>
