<svg width="280" height="74" viewBox="0 0 280 74" fill="none" xmlns="http://www.w3.org/2000/svg">
<g clip-path="url(#clip0_6_453)">
<path d="M201.282 16.8382L201.053 17.1013L200.811 17.353L200.547 17.5474L208.385 16.0146V11.9766L203.834 12.6972L201.489 16.5522L201.282 16.8382Z" fill="#C6B585"/>
<path d="M53.9955 37.4637L53.6737 38.5161L53.2944 39.557L52.8346 40.5522L52.306 41.5131L51.7198 42.4168L51.0762 43.2976L50.3866 44.1213L49.6395 44.922L48.835 45.6655L47.973 46.3862L47.0765 47.0726L46.1111 47.7017L45.5249 48.0563L57.5009 45.6884V36.0566L54.1909 36.5943L53.9955 37.4637Z" fill="#C6B585"/>
<path d="M126.116 30.1533H134.38L131.541 24.2393L128.668 24.7083L126.116 30.1533Z" fill="#C6B585"/>
<path d="M260.255 0C260.255 2.37935 256.692 4.27825 254.887 4.57567L253.094 4.86165V7.21812L280 1.87602L260.255 0Z" fill="#C6B585"/>
<path d="M110.405 27.6143L106.301 28.2777L106.003 28.9755L105.554 29.8678L105.06 30.7257L104.509 31.5608L103.922 32.3501L103.279 33.1165L102.578 33.8486L101.842 34.535L101.061 35.187L100.245 35.8047L99.3825 36.3767L98.4746 36.9143L97.5206 37.4176L96.5207 37.8638L95.8081 38.1612L106.428 36.0678L110.405 27.6143Z" fill="#C6B585"/>
<path d="M84.4529 40.0597H73.3618V42.5763L86.3033 40.0254L85.8321 40.0597H84.4529Z" fill="#C6B585"/>
<path d="M154.459 26.6187L154.447 25.9781L154.482 24.6397L154.573 23.3013L154.734 21.9973L154.964 20.7161L155.01 20.4873L147.229 21.7456L150.022 27.4995L154.459 26.6187Z" fill="#C6B585"/>
<path d="M196.995 17.7991L196.696 17.6161L196.248 17.3415L195.754 17.067L195.214 16.8268L194.628 16.5751L193.283 16.1061L191.835 15.7172L190.272 15.3969L188.651 15.1452L188.571 15.1338L175.606 17.2043L175.135 17.5131L174.629 17.8449L174.17 18.1995L173.756 18.5655L173.365 18.9545L173.009 19.3434L172.664 19.7552L172.354 20.1785L172.066 20.6246L171.813 21.0822L171.572 21.5626L171.354 22.0659L171.181 22.5807L171.032 23.0955L170.963 23.3814L197.823 18.0851L197.65 18.0508L197.317 17.9478L196.995 17.7991Z" fill="#C6B585"/>
<path d="M49.4212 39.7737C50.6382 37.6925 51.2546 35.3175 51.2027 32.9102C51.2027 25.1925 45.7664 21.3337 34.8937 21.3337H17.964C13.746 21.3337 11.6312 19.9953 11.5967 17.3186C11.6052 16.5935 11.7948 15.882 12.1484 15.2481C12.6322 14.4611 13.3187 13.8173 14.1368 13.3835C15.3326 12.7297 16.6241 12.2665 17.964 12.0108C19.9974 11.6241 22.0665 11.4553 24.1359 11.5075C25.8568 11.5131 27.5759 11.6162 29.285 11.8163C30.963 12.0108 32.5835 12.2853 34.1696 12.6285C35.7557 12.9717 37.2613 13.3606 38.698 13.7724C40.0723 14.2089 41.4227 14.7167 42.7436 15.2938L46.6628 8.07572C45.0579 7.36396 43.4114 6.74895 41.7322 6.23401C39.9257 5.65439 38.0876 5.17699 36.2269 4.80411C34.2824 4.39347 32.3184 4.0804 30.3423 3.8661C28.3494 3.65675 26.3469 3.54984 24.3428 3.5458C21.8708 3.52254 19.4015 3.71777 16.9641 4.1292C15.0104 4.44668 13.0984 4.97999 11.2634 5.71925C9.75743 6.30751 8.34454 7.10887 7.06838 8.09859C5.97255 8.96373 5.01532 9.98973 4.22954 11.1414C3.51411 12.1918 2.97458 13.3508 2.63197 14.5732C2.30508 15.7542 2.14265 16.9743 2.14925 18.1994C2.14925 25.8255 7.57409 29.6386 18.4238 29.6386H31.1469C38.1808 29.6386 41.7016 31.1218 41.7092 34.0884C41.7082 35.0733 41.4251 36.0375 40.8932 36.8681C40.2395 37.822 39.3377 38.5811 38.2842 39.0644C36.8295 39.765 35.2813 40.2543 33.6869 40.5172C31.4278 40.8949 29.1388 41.0672 26.8484 41.032C24.7341 41.0437 22.6217 40.9061 20.5271 40.6202C18.628 40.3916 16.7465 40.0362 14.8953 39.5563C13.1369 39.0682 11.4129 38.4644 9.73483 37.7489C8.04532 36.9253 6.44775 36.1131 4.8157 35.198L0 42.4962C1.77856 43.4892 3.61718 44.3717 5.50529 45.1386C7.56266 45.9604 9.67013 46.6519 11.8151 47.2091C14.0836 47.7946 16.3868 48.2378 18.7111 48.5361C21.146 48.8562 23.5993 49.0167 26.0553 49.0165C29.5331 49.0487 33.0033 48.6879 36.3993 47.9412C39.2058 47.3574 41.8916 46.3013 44.3412 44.8183C46.4211 43.5725 48.1648 41.841 49.4212 39.7737Z" fill="#005991"/>
<path d="M103.221 26.8021C104.015 24.7284 104.405 22.5234 104.371 20.3046C104.405 17.9904 103.991 15.6914 103.152 13.5326C102.366 11.5542 101.098 9.80107 99.4631 8.43077C97.6293 6.94274 95.5037 5.85184 93.2222 5.22781C90.3272 4.45178 87.3352 4.09351 84.3379 4.16396H60.9146V48.4107H69.9483V36.6055H84.4529C87.4565 36.6953 90.4554 36.3092 93.3372 35.4615C95.6284 34.7557 97.749 33.5875 99.5665 32.0298C101.182 30.5988 102.435 28.8074 103.221 26.8021ZM94.2451 23.8165C93.8381 24.86 93.1835 25.7901 92.3373 26.5275C91.3949 27.3194 90.2997 27.9111 89.1191 28.2663C87.6638 28.69 86.1529 28.8944 84.6367 28.8726H69.9483V11.9197H84.6252C88.0349 11.9197 90.6056 12.6328 92.3373 14.0588C93.2177 14.8347 93.9076 15.8011 94.3539 16.8839C94.8002 17.9667 94.9911 19.1369 94.9118 20.3046C94.9158 21.5068 94.6895 22.6986 94.2451 23.8165Z" fill="#005991"/>
<path d="M146.919 48.411H156.401L134.851 4.0957H125.277L104.371 48.411H113.841L117.289 40.9298H143.31L146.919 48.411ZM120.783 33.5401L130.162 13.4072L139.828 33.5401H120.783Z" fill="#005991"/>
<path d="M220.833 28.2209H246.417V20.8198H220.833V11.9773H249.715V4.0957H211.799V48.411H250.324V40.5523H220.833V28.2209Z" fill="#005991"/>
<path d="M164.826 42.3251C167.373 44.5273 170.34 46.1963 173.549 47.2325C177.442 48.481 181.516 49.0839 185.605 49.017C189.04 49.0291 192.461 48.5828 195.777 47.6901C198.754 46.9036 201.594 45.6733 204.202 44.041L199.984 37.2461C197.879 38.4192 195.636 39.3261 193.306 39.9458C192.075 40.285 190.824 40.5448 189.559 40.7236C188.27 40.9202 186.967 41.0196 185.663 41.0211C183.036 41.0718 180.418 40.7088 177.905 39.9458C175.78 39.2932 173.804 38.2322 172.089 36.8229C170.545 35.5181 169.323 33.8784 168.515 32.0299C167.665 30.1299 167.238 28.0696 167.262 25.99C167.231 23.9809 167.643 21.9893 168.469 20.156C169.282 18.3813 170.493 16.8159 172.009 15.5803C173.712 14.2259 175.664 13.2156 177.756 12.6062C180.261 11.8642 182.865 11.5055 185.479 11.5423C186.68 11.531 187.882 11.5883 189.076 11.7139C190.271 11.8644 191.456 12.0782 192.628 12.3545C193.723 12.6154 194.798 12.9518 195.846 13.3611C196.79 13.7156 197.692 14.1721 198.535 14.7224L202.662 8.00761C200.031 6.485 197.194 5.34842 194.237 4.63306C190.962 3.88153 187.61 3.52056 184.249 3.55778C180.468 3.49856 176.705 4.08671 173.124 5.29653C170.067 6.31477 167.243 7.92422 164.814 10.0323C162.592 12.0044 160.83 14.4369 159.654 17.1589C158.443 19.965 157.84 22.9936 157.884 26.0472C157.861 29.1496 158.459 32.2254 159.642 35.0956C160.8 37.8634 162.572 40.3349 164.826 42.3251Z" fill="#005991"/>
<path d="M218.695 65.0203H229.786V61.8059H218.695V57.9737H231.222V54.542H214.775V73.7827H231.487V70.3738H218.695V65.0203Z" fill="#005991"/>
<path d="M201.995 69.4355L195.915 54.7705H191.571L200.053 73.9998H203.937L212.396 54.7705H208.063L201.995 69.4355Z" fill="#005991"/>
<path d="M239.072 54.542H235.153V73.7827H250.324V70.3624H239.072V54.542Z" fill="#005991"/>
<path d="M130.863 57.9737H138V73.7827H141.919V57.9737H149.057V54.542H130.863V57.9737Z" fill="#005991"/>
<path d="M181.594 54.5195L172.515 73.7602H176.641L178.135 70.5572H189.433L190.973 73.7602H195.099L185.789 54.5195H181.594ZM179.64 67.3428L183.698 58.6033L187.939 67.3428H179.64Z" fill="#005991"/>
<path d="M169.067 65.1343C169.429 64.5864 169.701 63.9838 169.871 63.3498C170.034 62.6835 170.111 61.9993 170.101 61.3137C170.122 60.342 169.942 59.3764 169.572 58.4768C169.24 57.6351 168.689 56.8968 167.975 56.3376C167.178 55.7086 166.258 55.2526 165.274 54.9992C164.014 54.6707 162.714 54.5167 161.412 54.5417H151.585V73.7595H155.504V68.303H161.55L165.182 73.7595H169.986L165.768 67.6052C166.46 67.3403 167.11 66.9782 167.699 66.5299C168.22 66.1333 168.681 65.6632 169.067 65.1343ZM165.722 62.8465C165.537 63.2886 165.25 63.6807 164.883 63.9904C164.468 64.3228 163.992 64.5714 163.481 64.7225C162.845 64.8982 162.187 64.9829 161.527 64.9742H155.527V57.9391H161.527C162.712 57.8573 163.892 58.1669 164.883 58.8199C165.246 59.1221 165.532 59.5057 165.718 59.9391C165.904 60.3725 165.984 60.8435 165.952 61.3137C165.974 61.8233 165.896 62.3324 165.722 62.8122V62.8465Z" fill="#005991"/>
</g>
<defs>
<clipPath id="clip0_6_453">
<rect width="280" height="74" fill="white"/>
</clipPath>
</defs>
</svg>
