<svg width="28" height="28" viewBox="0 0 28 28" fill="none" xmlns="http://www.w3.org/2000/svg">
<path d="M27.9273 19.0567L25.9944 9.35406C25.9458 9.11027 25.8049 8.89977 25.5974 8.76125C25.3899 8.62278 25.1413 8.57312 24.8976 8.62174L22.4103 9.11727C22.4102 9.11727 22.4102 9.11727 22.4102 9.11727C21.906 9.21778 21.5774 9.70975 21.6779 10.214L21.7017 10.3338C20.2109 10.8283 18.399 10.9707 16.1448 9.11081C15.1179 8.26365 13.7797 8.23576 12.8147 9.0413L11.8082 9.88169H6.32687C6.26562 9.50932 5.98114 9.19525 5.58979 9.11721L3.10244 8.62169C2.85853 8.57307 2.61014 8.62273 2.40266 8.7612C2.19518 8.89972 2.05419 9.11027 2.00563 9.35401L0.0726988 19.0567C-0.0277622 19.561 0.3008 20.053 0.805074 20.1535L3.29237 20.649C3.35346 20.6612 3.41476 20.6672 3.47574 20.6672C3.65807 20.6672 3.83668 20.6133 3.99215 20.5095C4.19964 20.371 4.34068 20.1605 4.38924 19.9167L4.401 19.8576L10.301 25.7575C10.6508 26.1074 11.1177 26.3001 11.6152 26.3001C12.1128 26.3001 12.5796 26.1074 12.9294 25.7575C13.1789 25.508 13.3485 25.1992 13.4254 24.8622L14.2455 25.6823C14.9702 26.4069 16.1494 26.4069 16.8741 25.6822C17.1293 25.4269 17.2946 25.1152 17.3701 24.7869C17.7178 25.1253 18.177 25.3114 18.6659 25.3114C19.1635 25.3114 19.6303 25.1186 19.9802 24.7686C20.383 24.3657 20.5619 23.8225 20.5169 23.2949C20.5694 23.2993 20.6224 23.3015 20.6757 23.3015C21.1733 23.3015 21.64 23.1087 21.99 22.7588C22.4804 22.2685 22.648 21.5359 22.4458 20.8854L23.5781 19.7532L23.6107 19.9167C23.6593 20.1605 23.8003 20.371 24.0078 20.5096C24.1633 20.6134 24.3419 20.6673 24.5242 20.6673C24.5851 20.6673 24.6465 20.6613 24.7076 20.6491L27.1949 20.1535C27.6992 20.053 28.0278 19.561 27.9273 19.0567ZM3.50625 19.7818C3.49701 19.7879 3.48208 19.7946 3.46338 19.7908L0.976082 19.2953C0.946003 19.2894 0.924839 19.2577 0.930855 19.2277L2.86378 9.52501C2.8675 9.50642 2.87932 9.4951 2.88856 9.48892C2.896 9.484 2.90699 9.4788 2.92066 9.4788C2.92405 9.4788 2.92771 9.47913 2.93149 9.4799L5.41878 9.97542C5.44886 9.98144 5.47003 10.013 5.46401 10.0431L3.53108 19.7457C3.52736 19.7643 3.51555 19.7756 3.50625 19.7818ZM21.3714 22.1399C21.1867 22.3247 20.9396 22.4265 20.6758 22.4265C20.412 22.4265 20.1649 22.3247 19.9803 22.14L15.7485 17.9083C15.5776 17.7374 15.3007 17.7375 15.1298 17.9083C14.959 18.0792 14.959 18.3562 15.1298 18.527L19.3615 22.7587C19.7451 23.1422 19.7451 23.7662 19.3615 24.1498C19.1768 24.3346 18.9298 24.4363 18.6659 24.4363C18.4021 24.4363 18.1551 24.3346 17.9704 24.1499L13.4989 19.6785C13.3281 19.5076 13.0511 19.5077 12.8802 19.6785C12.7093 19.8494 12.7093 20.1263 12.8802 20.2971L16.2551 23.672L16.2553 23.6722H16.2554C16.6389 24.0557 16.6389 24.6797 16.2553 25.0633C15.8718 25.447 15.2476 25.4468 14.8642 25.0634L11.2493 21.4486C11.0786 21.2778 10.8016 21.2777 10.6306 21.4486C10.4598 21.6194 10.4598 21.8964 10.6306 22.0673L12.3108 23.7474C12.4956 23.9321 12.5972 24.1792 12.5972 24.443C12.5972 24.7068 12.4955 24.9538 12.3107 25.1386C12.1261 25.3232 11.8791 25.425 11.6152 25.425C11.3513 25.425 11.1043 25.3232 10.9196 25.1386L4.60657 18.8257L6.21405 10.7567H10.7603L9.47955 11.826C8.92507 12.2889 8.68691 12.9202 8.82614 13.5579L9.83786 18.194C9.86307 18.3094 9.93378 18.4097 10.034 18.4721C10.1342 18.5345 10.2554 18.5538 10.37 18.5255C11.585 18.2261 12.3974 17.6405 12.8537 16.7353C13.248 15.953 13.3263 15.0628 13.4092 14.1205C13.4197 14.0008 13.4304 13.8803 13.4417 13.7595C13.4431 13.7492 13.4448 13.742 13.4461 13.7372C13.597 13.6737 14.3396 13.8207 15.4769 14.8543L21.5694 21.0356C21.7368 21.4055 21.6595 21.852 21.3714 22.1399ZM21.9344 20.1595L16.0917 14.2316C16.0861 14.2261 16.0806 14.2206 16.0747 14.2153C14.9084 13.1528 13.8104 12.6682 13.1367 12.9195C12.8197 13.0378 12.6139 13.3079 12.5722 13.6606C12.5718 13.664 12.5714 13.6675 12.5711 13.671C12.5593 13.7958 12.5484 13.9201 12.5375 14.0438C12.3957 15.6559 12.2814 16.954 10.5925 17.5483L9.68096 13.3714C9.58876 12.9492 9.86652 12.6428 10.0403 12.4978L13.3755 9.71309C14.007 9.1859 14.8961 9.21516 15.5879 9.78587C18.1223 11.8769 20.244 11.7173 21.8739 11.1981L23.3726 18.7214L21.9344 20.1595ZM27.024 19.2953L24.5367 19.7908C24.5179 19.7946 24.503 19.7879 24.4938 19.7818C24.4845 19.7756 24.4727 19.7643 24.469 19.7457L22.536 10.0431C22.5301 10.013 22.5511 9.98138 22.5812 9.97537L25.0686 9.47984C25.0872 9.47607 25.1022 9.48274 25.1115 9.48892C25.1207 9.4951 25.1325 9.50637 25.1363 9.52501L27.0692 19.2277C27.0752 19.2577 27.054 19.2894 27.024 19.2953ZM13.5625 5.20071V2.13739C13.5625 1.89578 13.7584 1.69989 14 1.69989C14.2416 1.69989 14.4375 1.89578 14.4375 2.13739V5.20071C14.4375 5.44232 14.2416 5.63821 14 5.63821C13.7584 5.63821 13.5625 5.44232 13.5625 5.20071ZM9.62059 3.42807C9.49973 3.21884 9.57148 2.95125 9.78071 2.83044C9.99006 2.70964 10.2576 2.78139 10.3783 2.99057L11.91 5.64346C12.0309 5.85269 11.9591 6.12028 11.7499 6.24109C11.681 6.28084 11.6057 6.29977 11.5316 6.29977C11.3803 6.29977 11.2333 6.22129 11.1523 6.08096L9.62059 3.42807ZM6.69196 5.91919C6.81271 5.70991 7.0803 5.63816 7.28959 5.75907L9.94253 7.2907C10.1518 7.41151 10.2235 7.67909 10.1027 7.88833C10.0217 8.02866 9.87456 8.10713 9.72335 8.10713C9.64919 8.10713 9.57394 8.08821 9.50503 8.04845L6.85209 6.51682C6.64285 6.39602 6.57111 6.12843 6.69196 5.91919ZM16.0901 5.64352L17.6218 2.99062C17.7426 2.78134 18.0102 2.70964 18.2194 2.8305C18.4286 2.9513 18.5004 3.21889 18.3795 3.42812L16.8478 6.08102C16.7668 6.22134 16.6197 6.29982 16.4685 6.29982C16.3943 6.29982 16.3191 6.2809 16.2502 6.24114C16.0409 6.12034 15.9692 5.85275 16.0901 5.64352ZM18.0576 7.2907L20.7104 5.75907C20.9198 5.63827 21.1873 5.71002 21.3081 5.91919C21.4289 6.12843 21.3572 6.39602 21.1479 6.51682L18.4951 8.04845C18.4262 8.08821 18.3509 8.10713 18.2767 8.10713C18.1255 8.10713 17.9785 8.02866 17.8974 7.88833C17.7766 7.67909 17.8483 7.41151 18.0576 7.2907Z" fill="white"/>
</svg>
