<svg width="2117" height="1055" viewBox="0 0 2117 1055" fill="none" xmlns="http://www.w3.org/2000/svg">
<g clip-path="url(#clip0_497_2)">
<mask id="mask0_497_2" style="mask-type:luminance" maskUnits="userSpaceOnUse" x="0" y="0" width="2117" height="1055">
<path d="M0 -0.00174041H2116.33V1054.46H0V-0.00174041Z" fill="white"/>
</mask>
<g mask="url(#mask0_497_2)">
<path d="M904.279 645.516H837.837V638.437H904.279V645.516ZM881.209 555.349C885.022 554.565 888.037 553.385 890.253 551.811L931.042 656.808C932.639 660.853 933.93 664.084 934.917 666.499C935.902 668.916 936.639 670.628 937.133 671.64C937.623 672.649 937.991 673.381 938.241 673.829V674.504H905.387V673.829V673.324C905.509 672.649 905.539 671.808 905.479 670.796C905.417 669.785 905.079 668.129 904.465 665.824C903.847 663.523 902.863 660.516 901.511 656.808L868.659 570.687H871.613L835.806 656.808C834.206 660.629 833.006 663.717 832.206 666.077C831.406 668.436 830.943 670.123 830.823 671.133C830.698 672.145 830.698 672.932 830.823 673.492V673.829V674.504H819.195V673.829C819.443 673.381 819.842 672.649 820.395 671.64C820.949 670.628 821.779 668.916 822.886 666.499C823.994 664.084 825.407 660.853 827.131 656.808L869.766 556.529C873.579 556.529 877.394 556.137 881.209 555.349Z" fill="#E1DEDB"/>
</g>
<mask id="mask1_497_2" style="mask-type:luminance" maskUnits="userSpaceOnUse" x="0" y="0" width="2117" height="1055">
<path d="M0 -0.00174041H2116.33V1054.46H0V-0.00174041Z" fill="white"/>
</mask>
<g mask="url(#mask1_497_2)">
<path d="M1035.41 559.561C1042.61 561.585 1048.11 564.506 1051.93 568.325C1055.74 572.145 1057.65 576.753 1057.65 582.145C1057.65 587.428 1055.9 591.977 1052.39 595.797C1048.88 599.617 1043.81 602.566 1037.16 604.645C1030.52 606.725 1022.64 607.762 1013.54 607.762H1008.65H1003.94C1003.2 607.652 1002.47 607.593 1001.73 607.593L1026.83 602.537L1051.38 652.761C1054.33 658.829 1056.73 663.185 1058.57 665.822C1060.42 668.465 1062.33 670.684 1064.3 672.48V674.502C1056.05 676.298 1047.96 675.37 1040.03 671.721C1032.09 668.072 1025.97 662.089 1021.66 653.772L1020.92 652.088L998.959 604.392L1000.07 602.369C1000.81 602.482 1001.64 602.537 1002.56 602.537H1005.79C1013.17 602.537 1018.92 600.797 1023.05 597.313C1027.17 593.832 1029.23 589 1029.23 582.818C1029.23 578.55 1028.15 574.982 1026 572.117C1023.84 569.253 1020.71 567.12 1016.59 565.713C1012.46 564.31 1007.39 563.606 1001.36 563.606H976.627L979.581 560.91V656.806C979.581 659.953 979.609 662.536 979.673 664.558C979.733 666.582 979.858 668.296 980.043 669.7C980.226 671.105 980.503 672.48 980.874 673.828V674.502H950.973V673.828C951.218 672.48 951.402 671.105 951.527 669.7C951.649 668.296 951.741 666.582 951.803 664.558C951.865 662.536 951.895 659.953 951.895 656.806V574.224C951.895 571.08 951.865 568.493 951.803 566.472C951.741 564.449 951.649 562.737 951.527 561.33C951.402 559.926 951.218 558.55 950.973 557.201V556.528H1009.66C1019.63 556.528 1028.21 557.538 1035.41 559.561Z" fill="#E1DEDB"/>
</g>
<mask id="mask2_497_2" style="mask-type:luminance" maskUnits="userSpaceOnUse" x="0" y="0" width="2117" height="1055">
<path d="M0 -0.00174041H2116.33V1054.46H0V-0.00174041Z" fill="white"/>
</mask>
<g mask="url(#mask2_497_2)">
<path d="M1103.79 556.527V557.202C1103.42 558.551 1103.14 559.927 1102.96 561.331C1102.77 562.737 1102.65 564.449 1102.59 566.471C1102.53 568.494 1102.5 571.079 1102.5 574.223V630.009C1102.5 641.583 1105.51 650.739 1111.54 657.481C1117.57 664.222 1125.81 667.593 1136.27 667.593C1143.04 667.593 1148.98 666.134 1154.08 663.211C1159.19 660.29 1163.1 656.133 1165.8 650.739C1168.51 645.346 1169.87 639.111 1169.87 632.031V574.223C1169.87 571.079 1169.83 568.494 1169.77 566.471C1169.71 564.449 1169.59 562.737 1169.4 561.331C1169.22 559.927 1168.94 558.551 1168.57 557.202V556.527H1179.09V557.202C1178.84 558.551 1178.66 559.927 1178.54 561.331C1178.41 562.737 1178.32 564.449 1178.26 566.471C1178.2 568.494 1178.17 571.079 1178.17 574.223V631.021C1178.17 640.571 1176.08 648.801 1171.89 655.711C1167.71 662.621 1161.74 667.93 1153.99 671.638C1146.24 675.345 1137.07 677.199 1126.49 677.199C1116.03 677.199 1106.9 675.371 1099.08 671.722C1091.27 668.071 1085.27 662.847 1081.09 656.049C1076.9 649.251 1074.81 641.246 1074.81 632.031V574.223C1074.81 571.079 1074.78 568.494 1074.72 566.471C1074.66 564.449 1074.57 562.737 1074.44 561.331C1074.32 559.927 1074.14 558.551 1073.89 557.202V556.527H1103.79Z" fill="#E1DEDB"/>
</g>
<mask id="mask3_497_2" style="mask-type:luminance" maskUnits="userSpaceOnUse" x="0" y="0" width="2117" height="1055">
<path d="M0 -0.00174041H2116.33V1054.46H0V-0.00174041Z" fill="white"/>
</mask>
<g mask="url(#mask3_497_2)">
<path d="M1224.68 667.425H1256.05C1264.79 667.425 1272.39 664.981 1278.85 660.093C1285.31 655.207 1290.2 648.633 1293.52 640.375C1296.84 632.117 1298.5 623.1 1298.5 613.325C1298.5 603.551 1296.75 594.899 1293.24 587.371C1289.74 579.844 1284.82 574.001 1278.48 569.843C1272.14 565.687 1264.91 563.608 1256.79 563.608H1224.68L1227.63 560.911V670.121L1224.68 667.425ZM1293.8 564.028C1304.32 569.029 1312.53 575.995 1318.44 584.927C1324.34 593.859 1327.3 604.056 1327.3 615.516C1327.3 626.303 1324.25 636.22 1318.16 645.263C1312.07 654.308 1303.73 661.443 1293.15 666.667C1282.57 671.892 1270.82 674.504 1257.9 674.504H1199.02V673.829C1199.27 672.481 1199.45 671.107 1199.58 669.7C1199.7 668.296 1199.79 666.583 1199.85 664.56C1199.91 662.537 1199.95 659.953 1199.95 656.807V574.225C1199.95 571.08 1199.91 568.495 1199.85 566.472C1199.79 564.451 1199.7 562.737 1199.58 561.332C1199.45 559.928 1199.27 558.552 1199.02 557.203V556.528H1257.9C1271.31 556.528 1283.28 559.031 1293.8 564.028Z" fill="#E1DEDB"/>
</g>
<mask id="mask4_497_2" style="mask-type:luminance" maskUnits="userSpaceOnUse" x="0" y="0" width="2117" height="1055">
<path d="M0 -0.00174041H2116.33V1054.46H0V-0.00174041Z" fill="white"/>
</mask>
<g mask="url(#mask4_497_2)">
<path d="M1414.96 645.516H1348.52V638.437H1414.96V645.516ZM1391.89 555.349C1395.7 554.565 1398.72 553.385 1400.94 551.811L1441.73 656.808C1443.32 660.853 1444.61 664.084 1445.6 666.499C1446.58 668.916 1447.32 670.628 1447.82 671.64C1448.31 672.649 1448.68 673.381 1448.92 673.829V674.504H1416.07V673.829V673.324C1416.19 672.649 1416.22 671.808 1416.16 670.796C1416.1 669.785 1415.76 668.129 1415.15 665.824C1414.53 663.523 1413.55 660.516 1412.19 656.808L1379.34 570.687H1382.3L1346.49 656.808C1344.89 660.629 1343.69 663.717 1342.89 666.077C1342.09 668.436 1341.63 670.123 1341.51 671.133C1341.38 672.145 1341.38 672.932 1341.51 673.492V673.829V674.504H1329.88V673.829C1330.13 673.381 1330.53 672.649 1331.08 671.64C1331.63 670.628 1332.46 668.916 1333.57 666.499C1334.68 664.084 1336.09 660.853 1337.81 656.808L1380.45 556.529C1384.26 556.529 1388.08 556.137 1391.89 555.349Z" fill="#E1DEDB"/>
</g>
<mask id="mask5_497_2" style="mask-type:luminance" maskUnits="userSpaceOnUse" x="0" y="0" width="2117" height="1055">
<path d="M0 -0.00174041H2116.33V1054.46H0V-0.00174041Z" fill="white"/>
</mask>
<g mask="url(#mask5_497_2)">
<path d="M758.483 553.572H813.204V633.754C813.204 633.754 778.322 669.629 719.3 669.629C660.28 669.629 594.316 632.266 594.316 555.721C594.316 479.176 660.446 442.309 718.639 442.309C776.834 442.309 810.23 476.365 810.23 476.365V518.026H803.947C803.947 518.026 793.615 469.504 757.326 460.825C721.036 452.145 697.892 449.665 664.082 495.544C630.274 541.42 650.608 640.284 698.47 650.617C746.331 660.949 763.608 643.012 763.608 643.012V564.318L758.483 553.572Z" fill="#E1DEDB"/>
</g>
<path d="M581.118 254.05L588.693 261.472L573.965 275.901L558.781 261.024V290.132V293.034V313.492C548.074 319.05 537.892 328.041 529.238 341.23C526.085 346.034 523.269 349.286 520.781 351.66C512.028 360.016 506.53 357.028 500.264 369.428C489.846 390.041 512.109 411.961 512.109 411.961C512.109 411.961 511.149 385.066 531.64 382.185C552.13 379.302 560.288 395.25 556.773 405.076C551.729 419.178 505.198 467.249 516.288 549.342C527.177 629.945 559.397 648.249 545.998 672.849C532.79 697.097 527.79 702.676 527.79 702.676H761.162C748.757 702.428 722.865 700.92 694.582 693.37C633.802 677.146 553.317 623.356 580.798 510.29C595.412 450.166 665.016 418.002 724.194 416.672C753.224 416.02 774.72 419.518 795.601 423.017C817.289 426.65 838.313 430.284 866.43 429.266C921.621 427.272 1000.08 335.512 1000.08 335.512C1000.08 335.512 965.506 360.778 928.27 358.12C891.033 355.46 811.241 326.868 747.409 350.805C704.541 366.88 669.47 387.153 643.001 407.8C643.001 407.8 654.793 360.765 643.194 338.178C638.213 328.474 629.898 320.242 619.737 314.572V293.034V290.132V261.024L604.444 276.008L589.612 261.476L597.19 254.05L589.156 246.177L581.118 254.05ZM604.444 278.05L616.774 290.132H592.112L604.444 278.05ZM573.965 278.157L586.188 290.132H561.744L573.965 278.157ZM536.322 354.597C537.384 353.733 538.445 352.774 539.56 351.585C541.205 349.866 542.669 347.924 544.469 345.705C546.809 343.236 548.706 342.79 551.16 342.785C554.402 342.842 557.618 344.416 560.685 345.636C557.704 345.813 555.505 345.889 553.522 347.173C552.524 347.82 551.189 349.181 550.068 350.658C548.8 352.348 547.441 353.83 545.948 355.048C541.013 359.069 536.138 361.317 529.396 360.365L534.584 364.901C534.533 364.93 534.488 364.982 534.694 364.998L545.512 374.453C541.194 373.674 527.154 371.828 518.33 378.686C507.216 387.325 506.644 400.997 506.644 400.997C506.644 400.997 498.185 389.901 500.968 377.636C503.918 364.626 510.205 362.449 514.992 359.645C520.42 356.465 522.56 354.389 522.56 354.389L526.265 357.629C526.964 357.83 527.685 357.93 528.426 357.93C530.918 357.93 533.62 356.8 536.322 354.597Z" fill="url(#paint0_linear_497_2)"/>
<path d="M761.164 702.679C766.071 702.777 768.871 702.679 768.871 702.679H761.164Z" fill="url(#paint1_linear_497_2)"/>
<path d="M490.797 781.59H823.562V765.725H490.797V781.59Z" fill="url(#paint2_linear_497_2)"/>
<path d="M524.644 708.286L490.797 760.698L823.564 760.711L776.35 708.286H524.644Z" fill="url(#paint3_linear_497_2)"/>
<mask id="mask6_497_2" style="mask-type:luminance" maskUnits="userSpaceOnUse" x="0" y="0" width="2117" height="1055">
<path d="M0 -0.00174041H2116.33V1054.46H0V-0.00174041Z" fill="white"/>
</mask>
<g mask="url(#mask6_497_2)">
<path d="M917.505 716.504H915.243C914.405 714.411 913.21 712.659 911.661 711.252C910.11 709.844 908.31 708.799 906.257 708.111C904.202 707.425 902.046 707.083 899.785 707.083C896.015 707.083 892.914 707.985 890.485 709.789C888.054 711.595 886.841 714.157 886.841 717.477C886.841 719.789 887.469 722.189 888.725 724.68C889.982 727.171 891.783 729.499 894.13 731.664L911.221 747.584C914.655 750.832 917.254 754.064 919.013 757.276C920.773 760.488 921.651 763.539 921.651 766.425C921.651 769.604 920.689 772.436 918.761 774.927C916.833 777.419 914.09 779.367 910.53 780.775C906.969 782.183 902.757 782.887 897.899 782.887C894.13 782.887 890.359 782.417 886.589 781.479C882.818 780.541 879.551 779.169 876.786 777.364L876.41 767.293H878.671C879.591 769.965 881.059 772.22 883.07 774.061C885.081 775.903 887.383 777.293 889.982 778.231C892.578 779.169 895.217 779.639 897.899 779.639C902.003 779.639 905.314 778.645 907.827 776.66C910.342 774.675 911.598 771.949 911.598 768.484C911.598 766.248 910.949 763.9 909.65 761.445C908.35 758.991 906.362 756.536 903.681 754.081L886.589 738.161C883.321 735.131 880.849 732.043 879.174 728.903C877.497 725.761 876.661 722.749 876.661 719.861C876.661 715.241 878.649 711.415 882.63 708.381C886.609 705.349 891.993 703.833 898.779 703.833C905.23 703.833 911.305 704.699 917.002 706.432L917.505 716.504Z" fill="#E1DEDB"/>
</g>
<mask id="mask7_497_2" style="mask-type:luminance" maskUnits="userSpaceOnUse" x="0" y="0" width="2117" height="1055">
<path d="M0 -0.00174041H2116.33V1054.46H0V-0.00174041Z" fill="white"/>
</mask>
<g mask="url(#mask7_497_2)">
<path d="M996.806 775.143C1002.42 771.859 1006.82 767.419 1010 761.824C1013.18 756.23 1014.78 750.039 1014.78 743.251C1014.78 736.466 1013.33 730.256 1010.44 724.624C1007.55 718.994 1003.53 714.554 998.378 711.304C993.225 708.056 987.422 706.432 980.971 706.432C974.015 706.432 967.754 708.056 962.183 711.304C956.611 714.554 952.255 718.994 949.113 724.624C945.971 730.256 944.399 736.466 944.399 743.251C944.399 750.039 945.845 756.23 948.735 761.824C951.626 767.419 955.626 771.859 960.738 775.143C965.847 778.43 971.587 780.071 977.955 780.071C984.909 780.071 991.193 778.43 996.806 775.143ZM956.214 777.959C949.091 774.386 943.457 769.531 939.31 763.394C935.163 757.259 933.09 750.544 933.09 743.251C933.09 735.96 935.163 729.246 939.31 723.11C943.457 716.974 949.091 712.116 956.214 708.544C963.334 704.97 971.125 703.183 979.589 703.183C988.051 703.183 995.842 704.97 1002.96 708.544C1010.08 712.116 1015.72 716.974 1019.87 723.11C1024.01 729.246 1026.09 735.96 1026.09 743.251C1026.09 750.544 1024.01 757.259 1019.87 763.394C1015.72 769.531 1010.08 774.386 1002.96 777.959C995.842 781.532 988.051 783.32 979.589 783.32C971.125 783.32 963.334 781.532 956.214 777.959Z" fill="#E1DEDB"/>
</g>
<mask id="mask8_497_2" style="mask-type:luminance" maskUnits="userSpaceOnUse" x="0" y="0" width="2117" height="1055">
<path d="M0 -0.00174041H2116.33V1054.46H0V-0.00174041Z" fill="white"/>
</mask>
<g mask="url(#mask8_497_2)">
<path d="M1053.99 705.785V706.217C1053.65 707.157 1053.42 708.058 1053.3 708.925C1053.17 709.791 1053.11 710.874 1053.11 712.174V717.155V780.074L1051.1 778.341H1074.47H1080.25C1081.76 778.341 1083.02 778.286 1084.02 778.178C1085.03 778.07 1086.08 777.871 1087.17 777.583H1087.67V781.59H1041.8V781.155C1042.05 780.29 1042.22 779.407 1042.3 778.503C1042.38 777.601 1042.43 776.499 1042.43 775.201V770.218V717.155V712.174C1042.43 710.874 1042.38 709.774 1042.3 708.87C1042.22 707.969 1042.05 707.085 1041.8 706.217V705.785H1053.99Z" fill="#E1DEDB"/>
</g>
<mask id="mask9_497_2" style="mask-type:luminance" maskUnits="userSpaceOnUse" x="0" y="0" width="2117" height="1055">
<path d="M0 -0.00174041H2116.33V1054.46H0V-0.00174041Z" fill="white"/>
</mask>
<g mask="url(#mask9_497_2)">
<path d="M1109.28 705.783V706.215C1108.95 707.155 1108.72 708.056 1108.59 708.923C1108.47 709.79 1108.41 710.872 1108.41 712.172V717.154V752.998C1108.41 760.435 1110.65 766.318 1115.13 770.65C1119.61 774.982 1125.66 777.147 1133.29 777.147C1138.32 777.147 1142.69 776.21 1146.42 774.332C1150.15 772.456 1153.04 769.784 1155.09 766.318C1157.15 762.854 1158.17 758.847 1158.17 754.298V717.154V712.172C1158.17 710.872 1158.11 709.79 1157.98 708.923C1157.86 708.056 1157.63 707.155 1157.29 706.215V705.783H1162.57V706.215C1162.4 707.083 1162.26 707.967 1162.13 708.868C1162.01 709.772 1161.94 710.872 1161.94 712.172V717.154V752.782C1161.94 759.136 1160.58 764.604 1157.86 769.188C1155.14 773.774 1151.34 777.275 1146.48 779.694C1141.62 782.111 1136.05 783.32 1129.77 783.32C1123.49 783.32 1117.91 782.111 1113.06 779.694C1108.2 777.275 1104.42 773.774 1101.74 769.188C1099.06 764.604 1097.72 759.136 1097.72 752.782V717.154V712.172C1097.72 710.872 1097.66 709.772 1097.53 708.868C1097.41 707.967 1097.26 707.083 1097.09 706.215V705.783H1109.28Z" fill="#E1DEDB"/>
</g>
<mask id="mask10_497_2" style="mask-type:luminance" maskUnits="userSpaceOnUse" x="0" y="0" width="2117" height="1055">
<path d="M0 -0.00174041H2116.33V1054.46H0V-0.00174041Z" fill="white"/>
</mask>
<g mask="url(#mask10_497_2)">
<path d="M1232.82 705.785V709.791H1232.32C1231.31 709.575 1230.33 709.413 1229.37 709.305C1228.4 709.197 1227.23 709.125 1225.85 709.087C1224.46 709.051 1222.81 709.034 1220.88 709.034H1207.31L1209.32 707.301V770.218C1209.32 772.097 1209.34 773.685 1209.38 774.983C1209.42 776.283 1209.47 777.33 1209.51 778.125C1209.55 778.919 1209.66 779.678 1209.82 780.398L1209.95 781.155V781.59H1198.01V781.155L1198.14 780.398C1198.3 779.678 1198.41 778.919 1198.45 778.125C1198.49 777.33 1198.53 776.283 1198.58 774.983C1198.62 773.685 1198.64 772.097 1198.64 770.218V707.301L1200.65 709.034H1187.08C1185.15 709.034 1183.5 709.051 1182.11 709.087C1180.73 709.125 1179.56 709.197 1178.59 709.305C1177.63 709.413 1176.65 709.575 1175.64 709.791H1175.14V705.785H1232.82Z" fill="#E1DEDB"/>
</g>
<mask id="mask11_497_2" style="mask-type:luminance" maskUnits="userSpaceOnUse" x="0" y="0" width="2117" height="1055">
<path d="M0 -0.00174041H2116.33V1054.46H0V-0.00174041Z" fill="white"/>
</mask>
<g mask="url(#mask11_497_2)">
<path d="M1259.34 705.785V706.217C1259.17 707.085 1259.02 707.969 1258.9 708.87C1258.77 709.774 1258.71 710.874 1258.71 712.174V717.155V770.218V775.201C1258.71 776.499 1258.77 777.601 1258.9 778.503C1259.02 779.407 1259.17 780.29 1259.34 781.155V781.59H1247.4V781.155C1247.65 780.29 1247.82 779.407 1247.9 778.503C1247.98 777.601 1248.03 776.499 1248.03 775.201V770.218V717.155V712.174C1248.03 710.874 1247.98 709.774 1247.9 708.87C1247.82 707.969 1247.65 707.085 1247.4 706.217V705.785H1259.34Z" fill="#E1DEDB"/>
</g>
<mask id="mask12_497_2" style="mask-type:luminance" maskUnits="userSpaceOnUse" x="0" y="0" width="2117" height="1055">
<path d="M0 -0.00174041H2116.33V1054.46H0V-0.00174041Z" fill="white"/>
</mask>
<g mask="url(#mask12_497_2)">
<path d="M1338.76 775.143C1344.37 771.859 1348.77 767.419 1351.96 761.824C1355.14 756.23 1356.73 750.039 1356.73 743.251C1356.73 736.466 1355.29 730.256 1352.4 724.624C1349.51 718.994 1345.49 714.554 1340.33 711.304C1335.18 708.056 1329.38 706.432 1322.93 706.432C1315.97 706.432 1309.71 708.056 1304.14 711.304C1298.57 714.554 1294.21 718.994 1291.07 724.624C1287.93 730.256 1286.36 736.466 1286.36 743.251C1286.36 750.039 1287.8 756.23 1290.69 761.824C1293.58 767.419 1297.58 771.859 1302.69 775.143C1307.8 778.43 1313.54 780.071 1319.91 780.071C1326.87 780.071 1333.15 778.43 1338.76 775.143ZM1298.17 777.959C1291.05 774.386 1285.41 769.531 1281.27 763.394C1277.12 757.259 1275.05 750.544 1275.05 743.251C1275.05 735.96 1277.12 729.246 1281.27 723.11C1285.41 716.974 1291.05 712.116 1298.17 708.544C1305.29 704.97 1313.08 703.183 1321.55 703.183C1330.01 703.183 1337.8 704.97 1344.92 708.544C1352.04 712.116 1357.68 716.974 1361.82 723.11C1365.97 729.246 1368.05 735.96 1368.05 743.251C1368.05 750.544 1365.97 757.259 1361.82 763.394C1357.68 769.531 1352.04 774.386 1344.92 777.959C1337.8 781.532 1330.01 783.32 1321.55 783.32C1313.08 783.32 1305.29 781.532 1298.17 777.959Z" fill="#E1DEDB"/>
</g>
<mask id="mask13_497_2" style="mask-type:luminance" maskUnits="userSpaceOnUse" x="0" y="0" width="2117" height="1055">
<path d="M0 -0.00174041H2116.33V1054.46H0V-0.00174041Z" fill="white"/>
</mask>
<g mask="url(#mask13_497_2)">
<path d="M1386.14 705.241L1448.35 769.566H1444.71V717.154V712.172C1444.71 710.873 1444.64 709.789 1444.52 708.924C1444.39 708.056 1444.16 707.156 1443.83 706.214V705.782H1449.11V706.214C1448.94 707.082 1448.79 707.966 1448.67 708.869C1448.54 709.772 1448.48 710.873 1448.48 712.172V717.154V771.841V776.118C1448.48 777.31 1448.54 778.357 1448.67 779.26C1448.79 780.162 1448.94 781.118 1449.11 782.129H1446.72L1384.51 717.804H1388.15V770.216V775.198C1388.15 776.497 1388.22 777.581 1388.34 778.446C1388.47 779.313 1388.7 780.216 1389.03 781.154V781.588H1383.75V781.154C1384 780.288 1384.17 779.405 1384.26 778.501C1384.34 777.6 1384.38 776.497 1384.38 775.198V770.216V715.529V711.252C1384.38 710.06 1384.32 709.014 1384.19 708.11C1384.07 707.209 1383.92 706.253 1383.75 705.241H1386.14Z" fill="#E1DEDB"/>
</g>
</g>
<defs>
<linearGradient id="paint0_linear_497_2" x1="578.053" y1="436.479" x2="902.053" y2="580.479" gradientUnits="userSpaceOnUse">
<stop stop-color="#E2DEDC"/>
<stop offset="0.336683" stop-color="#E2DEDC"/>
<stop offset="1" stop-color="#9A8479"/>
</linearGradient>
<linearGradient id="paint1_linear_497_2" x1="510.1" y1="589.382" x2="834.099" y2="733.381" gradientUnits="userSpaceOnUse">
<stop stop-color="#E2DEDC"/>
<stop offset="0.336683" stop-color="#E2DEDC"/>
<stop offset="1" stop-color="#9A8479"/>
</linearGradient>
<linearGradient id="paint2_linear_497_2" x1="465.966" y1="688.673" x2="789.966" y2="832.673" gradientUnits="userSpaceOnUse">
<stop stop-color="#E2DEDC"/>
<stop offset="0.336683" stop-color="#E2DEDC"/>
<stop offset="1" stop-color="#9A8479"/>
</linearGradient>
<linearGradient id="paint3_linear_497_2" x1="476.607" y1="664.728" x2="800.607" y2="808.728" gradientUnits="userSpaceOnUse">
<stop stop-color="#E2DEDC"/>
<stop offset="0.336683" stop-color="#E2DEDC"/>
<stop offset="1" stop-color="#9A8479"/>
</linearGradient>
<clipPath id="clip0_497_2">
<rect width="2116.33" height="1054.46" fill="white"/>
</clipPath>
</defs>
</svg>
