<svg width="12" height="12" viewBox="0 0 12 12" fill="none" xmlns="http://www.w3.org/2000/svg">
<path d="M0.292893 10.2426C-0.0976311 10.6331 -0.0976311 11.2663 0.292893 11.6568C0.683418 12.0473 1.31658 12.0473 1.70711 11.6568L0.292893 10.2426ZM11.8995 1.05021C11.8995 0.497927 11.4518 0.050212 10.8995 0.0502124L1.89949 0.0502126C1.34721 0.0502122 0.899495 0.497927 0.899495 1.05021C0.899495 1.6025 1.34721 2.05021 1.89949 2.05021L9.8995 2.05021L9.89949 10.0502C9.89949 10.6025 10.3472 11.0502 10.8995 11.0502C11.4518 11.0502 11.8995 10.6025 11.8995 10.0502L11.8995 1.05021ZM1 10.9497L1.70711 11.6568L11.6066 1.75732L10.8995 1.05021L10.1924 0.343105L0.292893 10.2426L1 10.9497Z" fill="#617F96"/>
</svg>
