<svg width="12" height="12" viewBox="0 0 12 12" fill="none" xmlns="http://www.w3.org/2000/svg">
<path d="M0.343186 10.2426C-0.0473381 10.6331 -0.0473381 11.2663 0.343186 11.6568C0.733711 12.0473 1.36688 12.0473 1.7574 11.6568L0.343186 10.2426ZM11.9498 1.05021C11.9498 0.497927 11.5021 0.050212 10.9498 0.0502124L1.94979 0.0502126C1.3975 0.0502122 0.949788 0.497927 0.949788 1.05021C0.949788 1.6025 1.3975 2.05021 1.94979 2.05021L9.94979 2.05021L9.94979 10.0502C9.94979 10.6025 10.3975 11.0502 10.9498 11.0502C11.5021 11.0502 11.9498 10.6025 11.9498 10.0502L11.9498 1.05021ZM1.05029 10.9497L1.7574 11.6568L11.6569 1.75732L10.9498 1.05021L10.2427 0.343105L0.343186 10.2426L1.05029 10.9497Z" fill="white"/>
</svg>
