<svg xmlns="http://www.w3.org/2000/svg" viewBox="0 0 243.62 64.69"><defs><style>.cls-1{fill:#c6b585;}.cls-2{fill:#005991;}</style></defs><g id="Слой_2" data-name="Слой 2"><g id="Слой_1-2" data-name="Слой 1"><g id="Слой_2-2" data-name="Слой 2"><g id="Слой_1-2-2" data-name="Слой 1-2"><polygon class="cls-1" points="175.13 14.72 174.93 14.95 174.72 15.17 174.49 15.34 174.49 15.34 181.31 14 181.31 10.47 177.35 11.1 175.31 14.47 175.13 14.72"/><polygon class="cls-1" points="46.98 32.75 46.7 33.67 46.37 34.58 45.97 35.45 45.51 36.29 45 37.08 44.44 37.85 43.84 38.57 43.19 39.27 42.49 39.92 41.74 40.55 40.96 41.15 40.12 41.7 39.61 42.01 50.03 39.94 50.03 31.52 47.15 31.99 46.98 32.75"/><polygon class="cls-1" points="109.73 26.36 116.92 26.36 114.45 21.19 111.95 21.6 109.73 26.36"/><path class="cls-1" d="M226.44,0c0,2.08-3.1,3.74-4.67,4l-1.56.25V6.31l23.41-4.67Z"/><polygon class="cls-1" points="96.06 24.14 92.49 24.72 92.23 25.33 91.84 26.11 91.41 26.86 90.93 27.59 90.42 28.28 89.86 28.95 89.25 29.59 88.61 30.19 87.93 30.76 87.22 31.3 86.47 31.8 85.68 32.27 84.85 32.71 83.98 33.1 83.36 33.36 92.6 31.53 96.06 24.14"/><polygon class="cls-1" points="73.48 35.02 63.83 35.02 63.83 37.22 75.09 34.99 74.68 35.02 73.48 35.02"/><polygon class="cls-1" points="134.39 23.27 134.38 22.71 134.41 21.54 134.49 20.37 134.63 19.23 134.83 18.11 134.87 17.91 128.1 19.01 130.53 24.04 134.39 23.27"/><polygon class="cls-1" points="171.4 15.56 171.14 15.4 170.75 15.16 170.32 14.92 169.85 14.71 169.34 14.49 168.17 14.08 166.91 13.74 165.55 13.46 164.14 13.24 164.07 13.23 152.79 15.04 152.38 15.31 151.94 15.6 151.54 15.91 151.18 16.23 150.84 16.57 150.53 16.91 150.23 17.27 149.96 17.64 149.71 18.03 149.49 18.43 149.28 18.85 149.09 19.29 148.94 19.74 148.81 20.19 148.75 20.44 172.12 15.81 171.97 15.78 171.68 15.69 171.4 15.56"/><path class="cls-2" d="M43,34.77a11.44,11.44,0,0,0,1.55-6q0-10.12-14.19-10.12H15.63c-3.67,0-5.51-1.17-5.54-3.51a3.82,3.82,0,0,1,.48-1.81,4.52,4.52,0,0,1,1.73-1.63,11.36,11.36,0,0,1,3.33-1.2A25.21,25.21,0,0,1,21,10.06a39.46,39.46,0,0,1,4.48.27c1.46.17,2.87.41,4.25.71s2.69.64,3.94,1a35.93,35.93,0,0,1,3.52,1.33L40.6,7.06a38.12,38.12,0,0,0-4.29-1.61A43.77,43.77,0,0,0,31.52,4.2a51.59,51.59,0,0,0-5.12-.82,50.71,50.71,0,0,0-5.22-.28,36.34,36.34,0,0,0-6.42.51A23.17,23.17,0,0,0,9.8,5,14.64,14.64,0,0,0,6.15,7.08,12,12,0,0,0,3.68,9.74a10.26,10.26,0,0,0-1.39,3,11.7,11.7,0,0,0-.42,3.17q0,10,14.16,10H27.1q9.18,0,9.19,3.89a4.53,4.53,0,0,1-.71,2.43,5.57,5.57,0,0,1-2.27,1.92,14.7,14.7,0,0,1-4,1.27,32.85,32.85,0,0,1-5.95.45,38.88,38.88,0,0,1-5.5-.36,37.12,37.12,0,0,1-4.9-.93A35.88,35.88,0,0,1,8.47,33C7,32.28,5.61,31.57,4.19,30.77L0,37.15a43,43,0,0,0,4.79,2.31,45.79,45.79,0,0,0,5.49,1.81,48.72,48.72,0,0,0,6,1.16,48.75,48.75,0,0,0,6.39.42,40,40,0,0,0,9-.94,21.93,21.93,0,0,0,6.91-2.73A13,13,0,0,0,43,34.77Z"/><path class="cls-2" d="M89.81,23.43a15.3,15.3,0,0,0,1-5.68,15.78,15.78,0,0,0-1.06-5.92,11.23,11.23,0,0,0-3.21-4.46,14.8,14.8,0,0,0-5.43-2.8,27.25,27.25,0,0,0-7.73-.93H53V42.32h7.86V32H73.48A24.66,24.66,0,0,0,81.21,31a15.19,15.19,0,0,0,5.42-3A11.92,11.92,0,0,0,89.81,23.43ZM82,20.82a6.07,6.07,0,0,1-1.66,2.37,7.87,7.87,0,0,1-2.8,1.52,13.21,13.21,0,0,1-3.9.53H60.86V10.42H73.63q4.45,0,6.71,1.87a6.69,6.69,0,0,1,2.24,5.46A8.27,8.27,0,0,1,82,20.82Z"/><path class="cls-2" d="M127.83,42.32h8.25L117.33,3.58H109L90.81,42.32h8.24l3-6.54h22.64Zm-22.74-13,8.16-17.6,8.41,17.6Z"/><polygon class="cls-2" points="192.14 24.67 214.4 24.67 214.4 18.2 192.14 18.2 192.14 10.47 217.27 10.47 217.27 3.58 184.28 3.58 184.28 42.32 217.8 42.32 217.8 35.45 192.14 35.45 192.14 24.67"/><path class="cls-2" d="M143.41,37A21.86,21.86,0,0,0,151,41.29a32.47,32.47,0,0,0,10.49,1.56,33.44,33.44,0,0,0,8.85-1.16,26.57,26.57,0,0,0,7.33-3.19L174,32.56a25.2,25.2,0,0,1-5.81,2.36,25.85,25.85,0,0,1-3.26.68,22.56,22.56,0,0,1-3.39.26,21.69,21.69,0,0,1-6.75-.94,14.8,14.8,0,0,1-5.06-2.73A11.53,11.53,0,0,1,146.62,28a12.62,12.62,0,0,1-1.09-5.28,12,12,0,0,1,1.05-5.1,11.14,11.14,0,0,1,3.08-4,14.56,14.56,0,0,1,5-2.6,22.45,22.45,0,0,1,6.72-.93,27.33,27.33,0,0,1,3.13.15,29.42,29.42,0,0,1,3.09.56,21.14,21.14,0,0,1,2.8.88,12,12,0,0,1,2.34,1.19L176.33,7A27.5,27.5,0,0,0,169,4.05a36.85,36.85,0,0,0-8.69-.94,28.71,28.71,0,0,0-9.68,1.52,21.28,21.28,0,0,0-7.23,4.14A17.74,17.74,0,0,0,138.91,15a19,19,0,0,0-1.54,7.77,20.44,20.44,0,0,0,1.53,7.91A17.39,17.39,0,0,0,143.41,37Z"/><polygon class="cls-2" points="190.28 56.84 199.93 56.84 199.93 54.03 190.28 54.03 190.28 50.68 201.18 50.68 201.18 47.68 186.87 47.68 186.87 64.5 201.41 64.5 201.41 61.52 190.28 61.52 190.28 56.84"/><polygon class="cls-2" points="175.75 60.7 170.46 47.88 166.68 47.88 174.06 64.69 177.44 64.69 184.8 47.88 181.03 47.88 175.75 60.7"/><polygon class="cls-2" points="208.01 47.68 204.6 47.68 204.6 64.5 217.8 64.5 217.8 61.51 208.01 61.51 208.01 47.68"/><polygon class="cls-2" points="113.86 50.68 120.07 50.68 120.07 64.5 123.48 64.5 123.48 50.68 129.69 50.68 129.69 47.68 113.86 47.68 113.86 50.68"/><path class="cls-2" d="M158,47.66l-7.9,16.82h3.59l1.3-2.8h9.83l1.34,2.8h3.59l-8.1-16.82Zm-1.7,11.21,3.53-7.64,3.69,7.64Z"/><path class="cls-2" d="M147.1,56.94a5.34,5.34,0,0,0,.7-1.56A7.11,7.11,0,0,0,148,53.6a6.21,6.21,0,0,0-.46-2.48,4.45,4.45,0,0,0-1.39-1.87,6.33,6.33,0,0,0-2.35-1.17,12.32,12.32,0,0,0-3.36-.4h-8.55v16.8h3.41V59.71h5.26l3.16,4.77h4.18l-3.67-5.38a6.76,6.76,0,0,0,1.68-.94A5.88,5.88,0,0,0,147.1,56.94Zm-2.91-2a2.64,2.64,0,0,1-.73,1,3.57,3.57,0,0,1-1.22.64,6.06,6.06,0,0,1-1.7.22h-5.22V50.65h5.22a4.7,4.7,0,0,1,2.92.77,2.61,2.61,0,0,1,.93,2.18A3.42,3.42,0,0,1,144.19,54.91Z"/></g></g></g></g></svg>