<?xml version="1.0" encoding="utf-8"?>
<!-- Generator: Adobe Illustrator 15.1.0, SVG Export Plug-In . SVG Version: 6.00 Build 0)  -->
<!DOCTYPE svg PUBLIC "-//W3C//DTD SVG 1.1//EN" "http://www.w3.org/Graphics/SVG/1.1/DTD/svg11.dtd">
<svg version="1.1" id="Layer_1" xmlns="http://www.w3.org/2000/svg" xmlns:xlink="http://www.w3.org/1999/xlink" x="0px" y="0px"
	 width="587.332px" height="592.938px" viewBox="0 0 587.332 592.938" enable-background="new 0 0 587.332 592.938"
	 xml:space="preserve">
<g>
	<path fill="#0D8AC9" d="M497.994,203.596c-1.896-0.072-3.781-0.12-5.666-0.144C494.213,203.477,496.086,203.524,497.994,203.596"/>
	<path fill="#36A8E0" d="M587.332,7.431v578.088c0,4.082-3.302,7.419-7.347,7.419H7.371c-4.045,0-7.371-3.337-7.371-7.419V7.431
		C0,3.35,3.325,0,7.371,0h572.615C584.03,0,587.332,3.35,587.332,7.431"/>
	<path fill="#1487C9" d="M505.137,205.889c-18.738-0.732-31.932-0.012-42.819,10.216l-9.604-10.42l-15.102,0.012
		c-9.4,0-20.984,3.229-29.447,9.472l-8.752-9.484l-15.27,0.012c-9.411,0-20.899,3.265-29.351,9.52l-18.523-18.559l-12.208,11.296
		c0.468-0.12,0.275,4.118-0.097,8.295l-7.971-8.667l-17.959-0.024l-3.469,8.619l-18.583-19.52
		c-5.066,4.55-11.765,11.825-17.779,19.952l-9.856-10.924l-15.762,0.012c-15.51,0-36.506,9.352-40.047,25.401
		c-0.084-0.096-13.721-14.105-14.045-14.417c-7.659-7.539-19.855-10.912-29.699-12.448l-3.661,4.729l-1.789-4.729l-17.419,0.012
		c-19.279-0.012-46.661,14.093-43.624,35.701c0.744,5.342,3.277,9.616,6.603,12.785c0.216,0.252,35.545,35.917,35.545,35.917
		l27.203,27.574l0.024,3.674l-28.031-28.283h-16.47v99.698l198.999,201.615h272.85c5.727,0,8.308-3.277,8.308-8.823V288.42
		L505.137,205.889z"/>
	<path fill="#FFFFFF" d="M226.669,219.563l13.145-2.773l8.535-11.092h-15.39c-18.042,0-44.152,12.521-40.551,33.781
		c2.449,14.657,20.396,20.095,32.893,22.052l8.391-10.876c-13.193-2.449-19.963-3.085-22.712-12.184l21.716,0.384l8.343-10.984
		l-25.833-0.036C213.944,226.837,218.662,221.267,226.669,219.563"/>
	<path fill="#FFFFFF" d="M377.745,219.563l13.133-2.773l8.535-11.092h-15.39c-18.042,0-44.141,12.521-40.551,33.781
		c2.448,14.657,20.396,20.095,32.88,22.052l8.403-10.876c-13.192-2.449-19.964-3.085-22.725-12.184l21.729,0.384l8.354-10.984
		l-25.857-0.036C365.021,226.837,369.727,221.267,377.745,219.563"/>
	<path fill="#FFFFFF" d="M336.306,196.658l-12.185,11.272c0.841-0.216-0.408,13.637-1.093,15.93c-0.456,1.741-1.14,3.746-1.74,5.21
		c-4.094,10.084-11.801,16.158-21.439,18.187l16.254-39.699h-18.055l-22.197,55.125l9.412,0.36c6.11,0.288,11.836-0.588,16.914-1.8
		c5.055-1.177,10.168-3.578,15.354-7.143c4.981-3.385,9.303-7.334,12.94-11.968c3.638-4.622,6.471-9.412,8.463-14.333
		c0.889-2.245,1.729-4.273,2.053-5.99C343.112,210.583,341.54,204.773,336.306,196.658"/>
	<path fill="#FFFFFF" d="M164.354,229.274l-23.637-0.384l-9.052,11.908l28.079,0.048c1.321,1.093-3.746,7.155-12.473,8.992
		l-14.285,3.013l-9.28,12.017h16.723c19.603,0,47.981-13.565,44.092-36.71c-2.665-15.918-22.196-21.8-35.737-23.913l-9.1,11.789
		C153.97,218.722,161.353,219.395,164.354,229.274"/>
	<path fill="#FFFFFF" d="M118.28,264.868l9.135-11.813c-14.333-2.641-21.68-3.35-24.693-13.217l23.625,0.396l9.051-11.933
		l-28.066-0.036c-1.345-1.081,3.746-7.155,12.473-8.991l14.237-3.013l9.304-12.028h-16.71c-19.627,0-47.958,13.589-44.068,36.673
		C85.208,256.873,104.727,262.73,118.28,264.868"/>
	<path fill="#FFFFFF" d="M440.444,261.482c2.474-3.541,4.935-7.083,7.407-10.612c7.959-0.48,18.715-6.038,24.285-12.641
		c-6.278-0.42-12.652,0.144-18.943-1.38c-3.493-1.465-2.568-4.274-1.513-6.254c12.581-23.721,28.283-25.678,53.469-24.706
		c-2.485,3.205-5.69,7.923-8.079,11.14c-10.9,1.933-15.294,2.821-23.024,9.652c4.081,3.061,12.088-0.432,18.702,2.881
		C492.544,257.737,461.669,261.999,440.444,261.482"/>
	<path fill="#FFFFFF" d="M431.045,219.563l13.146-2.773l8.523-11.092h-15.391c-18.03,0-44.141,12.521-40.539,33.781
		c2.461,14.657,20.396,20.095,32.881,22.052l8.415-10.876c-13.193-2.449-19.976-3.085-22.736-12.184l21.728,0.384l8.355-10.984
		l-25.846-0.036C418.309,226.837,423.026,221.267,431.045,219.563"/>
	<path fill="#FFFFFF" d="M253.799,279.093c-32.124-18.787,4.094-66.217,22.185-82.435c2.113,3.649,4.226,7.383,6.446,11.14
		c-7.022,17.143-37.274,49.111-20,57.97c6.254,2.941,10.648,2.329,18.667,3.757c-2.917,4.718-4.862,8.56-7.779,13.361
		C266.704,282.598,259.549,281.974,253.799,279.093"/>
	<polygon fill="#FFFFFF" points="478.331,345.898 502.34,321.384 478.151,321.384 457.119,344.361 457.119,291.277 439.316,291.277 
		439.316,391.298 457.119,391.298 457.119,369.054 466.387,359.823 484.201,391.214 505.125,391.214 	"/>
	<path fill="#FFFFFF" d="M429.364,291.602h-76.648c6.627,3.985,7.947,10.72,8.043,16.05h68.605h1.585v-1.165v-13.373v-1.512H429.364
		z"/>
	<path fill="#FFFFFF" d="M352.716,391.298l-0.06-78.545c0-6.818-1.129-12.053-4.189-15.642c-3.086-3.637-8.056-5.51-15.654-5.51
		H183.345h-1.465h-0.576h-1.464v1.404v13.313v1.393h1.464h0.576h1.465h149.888v83.552L352.716,391.298z"/>
	<path fill="#FFFFFF" d="M212.396,336.642c8.643,0,15.582,6.158,15.822,13.938h-31.716
		C196.742,342.8,203.812,336.642,212.396,336.642 M212.396,379.535c-8.583,0-15.654-6.11-15.894-13.926h48.402
		c0.36-2.437,0.553-4.958,0.553-7.515c0-20.216-11.885-36.613-33.349-36.613c-20.54,0-33.409,16.397-33.409,36.613
		c0,20.204,12.593,36.073,33.409,36.602c16.542,0.385,27.25-9.388,31.38-23.013h-17.011
		C223.86,376.377,218.602,379.535,212.396,379.535"/>
	<path fill="#FFFFFF" d="M396.148,336.667c8.631,0,15.569,6.134,15.81,13.949h-31.752
		C380.494,342.8,387.505,336.667,396.148,336.667 M396.148,379.571c-8.644,0-15.654-6.135-15.942-13.938h48.391
		c0.408-2.425,0.576-4.97,0.576-7.515c0-20.216-11.908-36.602-33.324-36.602c-20.576,0-33.373,16.386-33.373,36.602
		c0,20.228,12.568,36.085,33.373,36.565c16.542,0.42,27.214-9.327,31.344-22.952h-17.011
		C407.589,376.389,402.318,379.571,396.148,379.571"/>
	<path fill="#FFFFFF" d="M291.937,379.27h-0.036c-0.973,0.156-1.957,0.276-3.037,0.276h-0.096h-0.036
		c-11.692,0-16.446-9.592-16.446-21.416c0-11.849,4.502-21.464,16.446-21.464h0.036h0.096c11.813,0.06,16.494,9.663,16.494,21.464
		C305.358,368.802,301.613,377.662,291.937,379.27 M288.732,321.481c-20.587,0-34.537,16.397-34.537,36.649
		c0,20.18,13.733,36.05,34.537,36.565c21.705,0.505,34.441-16.386,34.441-36.565C323.173,337.878,310.196,321.481,288.732,321.481"
		/>
	<path fill="#FFFFFF" d="M147.919,343.088c1.14,2.689,0.996,1.741,3.949,10.816l-0.348-62.292h18.223v99.698h-16.47l-25.354-54.368
		c-0.192-0.576-1.717-4.25-2.869-8.104c0.084,2.701,0.336,62.472,0.336,62.472h-18.199v-99.698h16.458L147.919,343.088z"/>
</g>
</svg>
