<?xml version="1.0" encoding="utf-8"?>
<!-- Generator: Adobe Illustrator 26.2.1, SVG Export Plug-In . SVG Version: 6.00 Build 0)  -->
<svg version="1.1" id="Layer_1" xmlns="http://www.w3.org/2000/svg" xmlns:xlink="http://www.w3.org/1999/xlink" x="0px" y="0px"
	 viewBox="0 0 475.4 273.2" style="enable-background:new 0 0 475.4 273.2;" xml:space="preserve">
<style type="text/css">
	.st0{fill:url(#SVGID_1_);}
	.st1{fill:url(#SVGID_00000090988770796076005940000006199914294796998272_);}
	.st2{fill:url(#SVGID_00000097466483047237668430000016828261450071457191_);}
	.st3{fill:url(#SVGID_00000170977691826817876940000014222106364603099272_);}
	.st4{fill:url(#SVGID_00000020374266450621460010000006597217732298824634_);}
	.st5{fill:url(#SVGID_00000169540318819838110100000008114590272161747360_);}
	.st6{fill:url(#SVGID_00000059273896702659062950000006185232373596885376_);}
	.st7{fill:url(#SVGID_00000148649857100868915860000009880126206819357826_);}
	.st8{enable-background:new    ;}
	.st9{fill:#102D69;}
	.st10{fill:none;stroke:#102D69;stroke-width:0.98;stroke-miterlimit:10;}
	.st11{fill:#C00D0D;}
</style>
<g id="Layer_2_00000132798926262702505890000017530440245007260306_">
	<g id="Layer_1-2">
		
			<linearGradient id="SVGID_1_" gradientUnits="userSpaceOnUse" x1="170.0524" y1="105.7485" x2="313.0324" y2="201.5785" gradientTransform="matrix(1 0 0 -1 0 271.622)">
			<stop  offset="0" style="stop-color:#BA901B"/>
			<stop  offset="0.48" style="stop-color:#F1D67F"/>
			<stop  offset="1" style="stop-color:#BA901B"/>
		</linearGradient>
		<path class="st0" d="M249.6,123.9c-7.1,1.7-14,3.5-20.7,5.3l-0.6-0.2c-0.7-0.3-5.1-2.2-12.6-5L249.6,123.9z"/>
		
			<linearGradient id="SVGID_00000131347710603634149150000007304163962408806027_" gradientUnits="userSpaceOnUse" x1="117.1195" y1="78.9728" x2="382.3595" y2="256.7428" gradientTransform="matrix(1 0 0 -1 0 271.622)">
			<stop  offset="0" style="stop-color:#BA901B"/>
			<stop  offset="0.48" style="stop-color:#F1D67F"/>
			<stop  offset="1" style="stop-color:#BA901B"/>
		</linearGradient>
		<path style="fill:url(#SVGID_00000131347710603634149150000007304163962408806027_);" d="M336.8,106.2c-23,3.6-45.4,8.1-66.7,12.9
			h-68.1c-12.1-4-27.9-8.6-46.6-12.8c0,0,0-0.1,0-0.1H336.8z"/>
		
			<linearGradient id="SVGID_00000174600966583665874570000013408054516621206703_" gradientUnits="userSpaceOnUse" x1="61.0207" y1="59.0361" x2="433.3007" y2="308.5361" gradientTransform="matrix(1 0 0 -1 0 271.622)">
			<stop  offset="0" style="stop-color:#BA901B"/>
			<stop  offset="0.48" style="stop-color:#F1D67F"/>
			<stop  offset="1" style="stop-color:#BA901B"/>
		</linearGradient>
		<path style="fill:url(#SVGID_00000174600966583665874570000013408054516621206703_);" d="M377.3,99.9H121.7
			c-8.6-1.3-17.6-2.5-26.9-3.4c1-2.7,2.1-5.4,3.3-8h274.8C374.4,92.2,375.9,96,377.3,99.9z"/>
		
			<linearGradient id="SVGID_00000149339731279468552540000010647173593809242242_" gradientUnits="userSpaceOnUse" x1="49.2954" y1="69.234" x2="426.1854" y2="321.834" gradientTransform="matrix(1 0 0 -1 0 271.622)">
			<stop  offset="0" style="stop-color:#BA901B"/>
			<stop  offset="0.48" style="stop-color:#F1D67F"/>
			<stop  offset="1" style="stop-color:#BA901B"/>
		</linearGradient>
		<path style="fill:url(#SVGID_00000149339731279468552540000010647173593809242242_);" d="M363.4,70.8H107.3c-2,3.3-3.9,6.6-5.6,10
			h267.3C367.3,77.4,365.4,74,363.4,70.8z"/>
		
			<linearGradient id="SVGID_00000160873351608543530830000007289328720192160173_" gradientUnits="userSpaceOnUse" x1="40.9206" y1="81.7312" x2="417.8106" y2="334.3212" gradientTransform="matrix(1 0 0 -1 0 271.622)">
			<stop  offset="0" style="stop-color:#BA901B"/>
			<stop  offset="0.48" style="stop-color:#F1D67F"/>
			<stop  offset="1" style="stop-color:#BA901B"/>
		</linearGradient>
		<path style="fill:url(#SVGID_00000160873351608543530830000007289328720192160173_);" d="M350.7,53.1H120.1
			c-2.3,2.8-4.5,5.6-6.6,8.5h243.8C355.2,58.7,353,55.8,350.7,53.1z"/>
		
			<linearGradient id="SVGID_00000016032839367563529960000012811302752297810860_" gradientUnits="userSpaceOnUse" x1="32.5483" y1="94.2195" x2="409.4383" y2="346.8195" gradientTransform="matrix(1 0 0 -1 0 271.622)">
			<stop  offset="0" style="stop-color:#BA901B"/>
			<stop  offset="0.48" style="stop-color:#F1D67F"/>
			<stop  offset="1" style="stop-color:#BA901B"/>
		</linearGradient>
		<path style="fill:url(#SVGID_00000016032839367563529960000012811302752297810860_);" d="M333.2,35.4H137.6
			c-2.6,2.3-5.2,4.6-7.6,7h210.9C338.4,40,335.8,37.7,333.2,35.4z"/>
		
			<linearGradient id="SVGID_00000101083427578847051850000015033565035178550437_" gradientUnits="userSpaceOnUse" x1="24.1405" y1="106.7613" x2="401.0305" y2="359.3613" gradientTransform="matrix(1 0 0 -1 0 271.622)">
			<stop  offset="0" style="stop-color:#BA901B"/>
			<stop  offset="0.48" style="stop-color:#F1D67F"/>
			<stop  offset="1" style="stop-color:#BA901B"/>
		</linearGradient>
		<path style="fill:url(#SVGID_00000101083427578847051850000015033565035178550437_);" d="M307.7,17.7H163.1
			c-3.2,1.8-6.3,3.6-9.3,5.6H317C314,21.3,310.9,19.4,307.7,17.7z"/>
		
			<linearGradient id="SVGID_00000170996724359421775570000016135902158255528634_" gradientUnits="userSpaceOnUse" x1="15.2785" y1="119.9843" x2="392.1685" y2="372.5743" gradientTransform="matrix(1 0 0 -1 0 271.622)">
			<stop  offset="0" style="stop-color:#BA901B"/>
			<stop  offset="0.48" style="stop-color:#F1D67F"/>
			<stop  offset="1" style="stop-color:#BA901B"/>
		</linearGradient>
		<path style="fill:url(#SVGID_00000170996724359421775570000016135902158255528634_);" d="M251,0h-31.2c-7.7,0.8-15.2,2.2-22.7,4.1
			h76.6C266.2,2.2,258.7,0.8,251,0z"/>
		<g class="st8">
			<path class="st9" d="M31.8,237.2H13c-3.4,0-5.8,0-7.3,0.1c-1.4,0.1-2.4,0.3-3,0.8c-0.6,0.5-0.9,1.2-1,2.3
				c-0.1,0.5-0.2,0.8-0.5,0.8c-0.3,0-0.4-0.3-0.4-0.8c0-0.9-0.1-2.6-0.3-5.2c0-0.3,0.1-0.4,0.3-0.4c1.1,0.2,2.8,0.2,5,0.2
				c0.3,0,0.6-0.2,0.9-0.6l13.4-31.2c0.6-1.3,1.1-2,1.4-2c0.3,0,0.6,0.5,1.1,1.5c0.1,0.3,2.2,4.7,6,13.2c3.9,8.5,6.7,14.7,8.6,18.6
				c0.2,0.3,0.5,0.5,0.9,0.5c2.8,0,4.7-0.1,5.9-0.3c0.2,0,0.3,0,0.3,0c0,0,0,0.2,0,0.4c-0.4,2-0.7,3.8-0.7,5.4
				c0,0.5-0.1,0.7-0.4,0.7c-0.3,0-0.4-0.2-0.5-0.7c-0.1-2-1.4-3.1-3.6-3.2C38.1,237.2,35.6,237.2,31.8,237.2z M15.9,235.1h9.3
				c3.4,0,5.5,0,6.5-0.1c0.3-0.1,0.3-0.2,0.2-0.4c-1-2.2-2.8-6.4-5.4-12.4c-2.6-6-4.6-10.6-6-13.8c-0.1-0.2-0.2-0.2-0.3,0l-9.6,23.8
				c-0.7,1.6-1,2.4-1,2.6c0,0.1,0.1,0.2,0.3,0.2C10.9,235.1,12.9,235.1,15.9,235.1z"/>
		</g>
		<g class="st8">
			<path class="st10" d="M31.8,237.2H13c-3.4,0-5.8,0-7.3,0.1c-1.4,0.1-2.4,0.3-3,0.8c-0.6,0.5-0.9,1.2-1,2.3
				c-0.1,0.5-0.2,0.8-0.5,0.8c-0.3,0-0.4-0.3-0.4-0.8c0-0.9-0.1-2.6-0.3-5.2c0-0.3,0.1-0.4,0.3-0.4c1.1,0.2,2.8,0.2,5,0.2
				c0.3,0,0.6-0.2,0.9-0.6l13.4-31.2c0.6-1.3,1.1-2,1.4-2c0.3,0,0.6,0.5,1.1,1.5c0.1,0.3,2.2,4.7,6,13.2c3.9,8.5,6.7,14.7,8.6,18.6
				c0.2,0.3,0.5,0.5,0.9,0.5c2.8,0,4.7-0.1,5.9-0.3c0.2,0,0.3,0,0.3,0c0,0,0,0.2,0,0.4c-0.4,2-0.7,3.8-0.7,5.4
				c0,0.5-0.1,0.7-0.4,0.7c-0.3,0-0.4-0.2-0.5-0.7c-0.1-2-1.4-3.1-3.6-3.2C38.1,237.2,35.6,237.2,31.8,237.2z M15.9,235.1h9.3
				c3.4,0,5.5,0,6.5-0.1c0.3-0.1,0.3-0.2,0.2-0.4c-1-2.2-2.8-6.4-5.4-12.4c-2.6-6-4.6-10.6-6-13.8c-0.1-0.2-0.2-0.2-0.3,0l-9.6,23.8
				c-0.7,1.6-1,2.4-1,2.6c0,0.1,0.1,0.2,0.3,0.2C10.9,235.1,12.9,235.1,15.9,235.1z"/>
		</g>
		<g class="st8">
			<path class="st9" d="M52.8,223.7v-8.3c0-5.8,0-9.1-0.1-10.1c-0.1-0.8-0.3-1.5-0.6-1.9c-0.3-0.4-0.9-0.7-1.8-0.8
				c-0.1,0-0.3-0.1-0.4-0.1c-0.2,0-0.4,0-0.6,0c-0.2,0-0.4,0-0.5,0c-0.5-0.1-0.7-0.2-0.7-0.3c0-0.2,0.3-0.4,0.9-0.4
				c1.9,0,4,0,6.3,0.1c7.7,0,11.9,0,12.8,0c1.4-0.1,2.2-0.2,2.6-0.3c0.3-0.1,0.5-0.2,0.6-0.2c0.1,0,0.2,0.1,0.2,0.4
				c0,0.1-0.1,0.3-0.2,0.8c-0.1,0.5-0.2,0.9-0.3,1.4l-0.2,2.8c-0.1,0.5-0.2,0.8-0.4,0.8c-0.3,0-0.4-0.2-0.4-0.6
				c0-0.6-0.1-1.1-0.3-1.5c-0.4-1-1.7-1.5-4-1.7c-1-0.1-3.5-0.1-7.7-0.1c-0.2,0-0.3,0.2-0.3,0.5v13c0,0.3,0.1,0.5,0.3,0.5
				c5.1,0,8,0,8.9-0.1c1.4-0.1,2.3-0.4,2.8-0.8c0.3-0.3,0.5-0.5,0.7-0.5c0.2,0,0.3,0.1,0.3,0.4c0,0.1,0,0.2-0.1,0.4
				c-0.1,0.2-0.1,0.5-0.2,0.9c-0.1,0.4-0.1,0.8-0.2,1.3c-0.1,0.6-0.1,1.2-0.2,2c0,0.8-0.1,1.2-0.1,1.2c-0.1,0.5-0.2,0.7-0.4,0.7
				c-0.3,0-0.4-0.2-0.4-0.8c0-0.5-0.1-0.9-0.2-1.3c-0.3-0.9-1.2-1.4-2.9-1.5s-4.3-0.2-8-0.2c-0.3,0-0.4,0.1-0.4,0.3v4.1
				c0,0.3,0,1.1,0,2.4s0,2.5,0,3.6c0,1.1,0,1.7,0,2c0.1,1,0.2,1.8,0.5,2.3c0.2,0.5,0.7,0.9,1.4,1.1c0.8,0.3,2.4,0.4,4.6,0.4
				c2.2,0,3.9-0.1,5-0.4c0.9-0.2,1.5-0.6,1.9-1.1c0.4-0.5,0.7-1.3,0.9-2.4c0.1-0.5,0.3-0.7,0.5-0.7c0.2,0,0.3,0.2,0.3,0.7
				c0,0.2-0.1,0.9-0.3,2.1c-0.2,1.2-0.3,2-0.4,2.4c-0.2,0.6-0.4,0.9-0.8,1.1c-0.3,0.1-1.1,0.2-2.2,0.2c-1.1,0-3.8,0-8.2-0.1
				c-4.5-0.1-6.8-0.1-7-0.1c-0.4,0-1,0-2,0.1c-0.9,0.1-1.7,0.1-2.2,0c-0.6,0-0.9-0.1-0.9-0.4c0-0.1,0.2-0.2,0.6-0.3
				c0.7-0.1,1.1-0.1,1.3-0.1c0.7-0.1,1.2-0.5,1.5-1.1c0.3-0.6,0.5-1.7,0.5-3.3C52.8,229.7,52.8,226.9,52.8,223.7z"/>
		</g>
		<g class="st8">
			<path class="st10" d="M52.8,223.7v-8.3c0-5.8,0-9.1-0.1-10.1c-0.1-0.8-0.3-1.5-0.6-1.9c-0.3-0.4-0.9-0.7-1.8-0.8
				c-0.1,0-0.3-0.1-0.4-0.1c-0.2,0-0.4,0-0.6,0c-0.2,0-0.4,0-0.5,0c-0.5-0.1-0.7-0.2-0.7-0.3c0-0.2,0.3-0.4,0.9-0.4
				c1.9,0,4,0,6.3,0.1c7.7,0,11.9,0,12.8,0c1.4-0.1,2.2-0.2,2.6-0.3c0.3-0.1,0.5-0.2,0.6-0.2c0.1,0,0.2,0.1,0.2,0.4
				c0,0.1-0.1,0.3-0.2,0.8c-0.1,0.5-0.2,0.9-0.3,1.4l-0.2,2.8c-0.1,0.5-0.2,0.8-0.4,0.8c-0.3,0-0.4-0.2-0.4-0.6
				c0-0.6-0.1-1.1-0.3-1.5c-0.4-1-1.7-1.5-4-1.7c-1-0.1-3.5-0.1-7.7-0.1c-0.2,0-0.3,0.2-0.3,0.5v13c0,0.3,0.1,0.5,0.3,0.5
				c5.1,0,8,0,8.9-0.1c1.4-0.1,2.3-0.4,2.8-0.8c0.3-0.3,0.5-0.5,0.7-0.5c0.2,0,0.3,0.1,0.3,0.4c0,0.1,0,0.2-0.1,0.4
				c-0.1,0.2-0.1,0.5-0.2,0.9c-0.1,0.4-0.1,0.8-0.2,1.3c-0.1,0.6-0.1,1.2-0.2,2c0,0.8-0.1,1.2-0.1,1.2c-0.1,0.5-0.2,0.7-0.4,0.7
				c-0.3,0-0.4-0.2-0.4-0.8c0-0.5-0.1-0.9-0.2-1.3c-0.3-0.9-1.2-1.4-2.9-1.5s-4.3-0.2-8-0.2c-0.3,0-0.4,0.1-0.4,0.3v4.1
				c0,0.3,0,1.1,0,2.4s0,2.5,0,3.6c0,1.1,0,1.7,0,2c0.1,1,0.2,1.8,0.5,2.3c0.2,0.5,0.7,0.9,1.4,1.1c0.8,0.3,2.4,0.4,4.6,0.4
				c2.2,0,3.9-0.1,5-0.4c0.9-0.2,1.5-0.6,1.9-1.1c0.4-0.5,0.7-1.3,0.9-2.4c0.1-0.5,0.3-0.7,0.5-0.7c0.2,0,0.3,0.2,0.3,0.7
				c0,0.2-0.1,0.9-0.3,2.1c-0.2,1.2-0.3,2-0.4,2.4c-0.2,0.6-0.4,0.9-0.8,1.1c-0.3,0.1-1.1,0.2-2.2,0.2c-1.1,0-3.8,0-8.2-0.1
				c-4.5-0.1-6.8-0.1-7-0.1c-0.4,0-1,0-2,0.1c-0.9,0.1-1.7,0.1-2.2,0c-0.6,0-0.9-0.1-0.9-0.4c0-0.1,0.2-0.2,0.6-0.3
				c0.7-0.1,1.1-0.1,1.3-0.1c0.7-0.1,1.2-0.5,1.5-1.1c0.3-0.6,0.5-1.7,0.5-3.3C52.8,229.7,52.8,226.9,52.8,223.7z"/>
		</g>
		<g class="st8">
			<path class="st9" d="M96,209l-9.2,23.1c-0.5,1.2-0.8,2.3-0.8,3.1c0,0.4,0.2,0.8,0.6,1s0.9,0.4,1.4,0.4h0.5c0.5,0,0.7,0.1,0.7,0.3
				c0,0.2-0.3,0.4-1,0.4c-0.5,0-1.3,0-2.4-0.1c-1.1,0-1.7-0.1-1.8-0.1c0,0-0.8,0-2.4,0.1c-1.6,0-2.9,0.1-3.9,0.1
				c-0.7,0-1.1-0.1-1.1-0.4c0-0.2,0.3-0.3,0.8-0.3c0.3,0,0.7,0,1.3-0.1c1.2-0.1,2.1-0.6,2.8-1.3c0.7-0.7,1.3-1.8,1.9-3.1L96.2,203
				c0.5-1.2,0.9-1.8,1.2-1.8c0.3,0,0.7,0.6,1.2,1.7c0.1,0.3,1.1,2.4,2.8,6.2c1.7,3.8,3.6,7.9,5.6,12.3c2,4.4,3.5,7.7,4.6,9.8
				c1.5,3.1,3.1,4.8,4.8,5.2c0.7,0.2,1.4,0.3,2.2,0.3c0.4,0,0.6,0.1,0.6,0.3c0,0.2-0.4,0.4-1.1,0.4c-3.3,0-6.2,0-8.8-0.1
				c-1.1-0.1-1.7-0.2-1.7-0.3s0.1-0.3,0.4-0.3c0.5-0.2,0.6-0.6,0.3-1.3L96.8,209C96.5,208.3,96.3,208.3,96,209z"/>
		</g>
		<g class="st8">
			<path class="st10" d="M96,209l-9.2,23.1c-0.5,1.2-0.8,2.3-0.8,3.1c0,0.4,0.2,0.8,0.6,1s0.9,0.4,1.4,0.4h0.5
				c0.5,0,0.7,0.1,0.7,0.3c0,0.2-0.3,0.4-1,0.4c-0.5,0-1.3,0-2.4-0.1c-1.1,0-1.7-0.1-1.8-0.1c0,0-0.8,0-2.4,0.1
				c-1.6,0-2.9,0.1-3.9,0.1c-0.7,0-1.1-0.1-1.1-0.4c0-0.2,0.3-0.3,0.8-0.3c0.3,0,0.7,0,1.3-0.1c1.2-0.1,2.1-0.6,2.8-1.3
				c0.7-0.7,1.3-1.8,1.9-3.1L96.2,203c0.5-1.2,0.9-1.8,1.2-1.8c0.3,0,0.7,0.6,1.2,1.7c0.1,0.3,1.1,2.4,2.8,6.2
				c1.7,3.8,3.6,7.9,5.6,12.3c2,4.4,3.5,7.7,4.6,9.8c1.5,3.1,3.1,4.8,4.8,5.2c0.7,0.2,1.4,0.3,2.2,0.3c0.4,0,0.6,0.1,0.6,0.3
				c0,0.2-0.4,0.4-1.1,0.4c-3.3,0-6.2,0-8.8-0.1c-1.1-0.1-1.7-0.2-1.7-0.3s0.1-0.3,0.4-0.3c0.5-0.2,0.6-0.6,0.3-1.3L96.8,209
				C96.5,208.3,96.3,208.3,96,209z"/>
		</g>
		<g class="st8">
			<path class="st9" d="M143.4,238c-2.9,0-5.6-0.4-8.1-1.1c-2.5-0.7-4.5-1.7-6.1-2.9c-1.6-1.2-3-2.6-4.2-4.3c-1.2-1.6-2-3.3-2.5-5
				s-0.8-3.4-0.8-5.2c0-2,0.4-4,1.3-6.1c0.9-2.1,2.2-4,3.9-5.9c1.7-1.9,4-3.4,7-4.6c2.9-1.2,6.2-1.8,9.9-1.8
				c6.4,0,11.7,1.6,15.8,4.8c4.1,3.2,6.2,7.5,6.2,12.8c0,5.4-2.1,9.9-6.2,13.6C155.4,236.1,150,238,143.4,238z M144.9,236.2
				c1.2,0,2.3-0.1,3.5-0.4c1.2-0.2,2.5-0.7,4-1.4c1.5-0.7,2.8-1.6,3.9-2.7c1.1-1.1,2.1-2.7,2.8-4.7c0.8-2,1.1-4.3,1.1-6.9
				c0-5.4-1.7-9.6-5-12.7c-3.3-3.1-7.3-4.6-12-4.6c-4.8,0-8.8,1.3-11.8,4s-4.5,6.5-4.5,11.5c0,5.4,1.7,9.7,5.1,13
				C135.5,234.5,139.8,236.2,144.9,236.2z"/>
		</g>
		<g class="st8">
			<path class="st10" d="M143.4,238c-2.9,0-5.6-0.4-8.1-1.1c-2.5-0.7-4.5-1.7-6.1-2.9c-1.6-1.2-3-2.6-4.2-4.3c-1.2-1.6-2-3.3-2.5-5
				s-0.8-3.4-0.8-5.2c0-2,0.4-4,1.3-6.1c0.9-2.1,2.2-4,3.9-5.9c1.7-1.9,4-3.4,7-4.6c2.9-1.2,6.2-1.8,9.9-1.8
				c6.4,0,11.7,1.6,15.8,4.8c4.1,3.2,6.2,7.5,6.2,12.8c0,5.4-2.1,9.9-6.2,13.6C155.4,236.1,150,238,143.4,238z M144.9,236.2
				c1.2,0,2.3-0.1,3.5-0.4c1.2-0.2,2.5-0.7,4-1.4c1.5-0.7,2.8-1.6,3.9-2.7c1.1-1.1,2.1-2.7,2.8-4.7c0.8-2,1.1-4.3,1.1-6.9
				c0-5.4-1.7-9.6-5-12.7c-3.3-3.1-7.3-4.6-12-4.6c-4.8,0-8.8,1.3-11.8,4s-4.5,6.5-4.5,11.5c0,5.4,1.7,9.7,5.1,13
				C135.5,234.5,139.8,236.2,144.9,236.2z"/>
		</g>
		<g class="st8">
			<path class="st9" d="M178.4,223.7v-8.3c0-5.8,0-9.1-0.1-10.1c-0.1-0.8-0.3-1.5-0.6-1.9c-0.3-0.4-0.9-0.7-1.8-0.8
				c-0.4-0.1-1-0.1-1.6-0.1c-0.5,0-0.7-0.1-0.7-0.3c0-0.2,0.3-0.4,0.9-0.4c0.7,0,1.6,0,2.6,0c1,0,1.9,0,2.6,0.1c0.7,0,1.1,0,1.1,0
				c0.3,0,1.2,0,2.6-0.1s2.5-0.1,3.5-0.1c2.2,0,4,0.2,5.6,0.8c1.6,0.5,2.7,1.1,3.5,1.9c0.7,0.8,1.3,1.5,1.6,2.3
				c0.3,0.7,0.5,1.4,0.5,2.1c0,1.2-0.3,2.3-0.9,3.4c-0.6,1.1-1.2,2-1.8,2.6c-0.6,0.6-1.5,1.4-2.6,2.4c2.5,0.7,4.7,1.8,6.7,3.6
				c2,1.7,3,3.8,3,6.3c0,2.8-1.2,5.1-3.7,7.2c-2.5,2-6,3-10.5,3c-0.2,0-0.5,0-0.9,0c-0.4,0-0.9,0-1.5-0.1c-0.6,0-1.1,0-1.6,0
				c-1.6-0.1-2.7-0.1-3.4-0.1c-0.6,0-1.5,0-2.7,0.1c-1.2,0-2.1,0.1-2.8,0.1c-0.6,0-0.9-0.1-0.9-0.3s0.3-0.3,0.8-0.3
				c0.4,0,0.9,0,1.3-0.1c0.8-0.1,1.3-1,1.6-2.6C178.3,232.6,178.4,229.2,178.4,223.7z M182.8,203.9v12.6c0,0.3,0.1,0.4,0.4,0.5
				c0.9,0.1,2,0.2,3.4,0.2c1.6,0,2.8-0.1,3.4-0.2c0.6-0.1,1.2-0.5,1.7-1c1.3-1.3,2-2.9,2-4.7c0-2.2-0.6-4.1-1.9-5.7
				c-1.2-1.6-3.1-2.4-5.7-2.4c-1,0-1.9,0.1-2.7,0.2C183.1,203.5,182.8,203.6,182.8,203.9z M182.8,218.8v2.7c0,6.3,0,9.7,0.1,10.1
				c0.1,0.9,0.1,1.6,0.2,1.9c0.1,0.3,0.2,0.6,0.5,1c0.3,0.3,0.7,0.6,1.2,0.8c1.2,0.5,2.8,0.7,4.9,0.7c0.9,0,1.7-0.1,2.5-0.3
				c0.8-0.2,1.7-0.5,2.5-1c0.8-0.5,1.5-1.2,2-2.1c0.5-0.9,0.8-2,0.8-3.3c0-1.7-0.4-3.4-1.3-5.1c-0.8-1.7-2.2-3.1-4.2-4.3
				c-1.3-0.7-2.8-1.2-4.6-1.4c-0.5-0.1-1.9-0.1-4.4-0.1C183,218.4,182.8,218.5,182.8,218.8z"/>
		</g>
		<g class="st8">
			<path class="st10" d="M178.4,223.7v-8.3c0-5.8,0-9.1-0.1-10.1c-0.1-0.8-0.3-1.5-0.6-1.9c-0.3-0.4-0.9-0.7-1.8-0.8
				c-0.4-0.1-1-0.1-1.6-0.1c-0.5,0-0.7-0.1-0.7-0.3c0-0.2,0.3-0.4,0.9-0.4c0.7,0,1.6,0,2.6,0c1,0,1.9,0,2.6,0.1c0.7,0,1.1,0,1.1,0
				c0.3,0,1.2,0,2.6-0.1s2.5-0.1,3.5-0.1c2.2,0,4,0.2,5.6,0.8c1.6,0.5,2.7,1.1,3.5,1.9c0.7,0.8,1.3,1.5,1.6,2.3
				c0.3,0.7,0.5,1.4,0.5,2.1c0,1.2-0.3,2.3-0.9,3.4c-0.6,1.1-1.2,2-1.8,2.6c-0.6,0.6-1.5,1.4-2.6,2.4c2.5,0.7,4.7,1.8,6.7,3.6
				c2,1.7,3,3.8,3,6.3c0,2.8-1.2,5.1-3.7,7.2c-2.5,2-6,3-10.5,3c-0.2,0-0.5,0-0.9,0c-0.4,0-0.9,0-1.5-0.1c-0.6,0-1.1,0-1.6,0
				c-1.6-0.1-2.7-0.1-3.4-0.1c-0.6,0-1.5,0-2.7,0.1c-1.2,0-2.1,0.1-2.8,0.1c-0.6,0-0.9-0.1-0.9-0.3s0.3-0.3,0.8-0.3
				c0.4,0,0.9,0,1.3-0.1c0.8-0.1,1.3-1,1.6-2.6C178.3,232.6,178.4,229.2,178.4,223.7z M182.8,203.9v12.6c0,0.3,0.1,0.4,0.4,0.5
				c0.9,0.1,2,0.2,3.4,0.2c1.6,0,2.8-0.1,3.4-0.2c0.6-0.1,1.2-0.5,1.7-1c1.3-1.3,2-2.9,2-4.7c0-2.2-0.6-4.1-1.9-5.7
				c-1.2-1.6-3.1-2.4-5.7-2.4c-1,0-1.9,0.1-2.7,0.2C183.1,203.5,182.8,203.6,182.8,203.9z M182.8,218.8v2.7c0,6.3,0,9.7,0.1,10.1
				c0.1,0.9,0.1,1.6,0.2,1.9c0.1,0.3,0.2,0.6,0.5,1c0.3,0.3,0.7,0.6,1.2,0.8c1.2,0.5,2.8,0.7,4.9,0.7c0.9,0,1.7-0.1,2.5-0.3
				c0.8-0.2,1.7-0.5,2.5-1c0.8-0.5,1.5-1.2,2-2.1c0.5-0.9,0.8-2,0.8-3.3c0-1.7-0.4-3.4-1.3-5.1c-0.8-1.7-2.2-3.1-4.2-4.3
				c-1.3-0.7-2.8-1.2-4.6-1.4c-0.5-0.1-1.9-0.1-4.4-0.1C183,218.4,182.8,218.5,182.8,218.8z"/>
		</g>
		<g class="st8">
			<path class="st9" d="M231.8,223.5h-12c-0.3,0-0.4,0.1-0.6,0.4l-3.4,8.3c-0.5,1.2-0.8,2.3-0.8,3.1c0,0.4,0.2,0.8,0.6,1
				s0.9,0.4,1.4,0.4h0.5c0.5,0,0.7,0.1,0.7,0.3c0,0.2-0.3,0.4-1,0.4c-0.5,0-1.3,0-2.4-0.1c-1.1,0-1.7-0.1-1.8-0.1c0,0-0.8,0-2.4,0.1
				c-1.6,0-2.9,0.1-3.9,0.1c-0.7,0-1.1-0.1-1.1-0.4c0-0.2,0.3-0.3,0.8-0.3c0.3,0,0.7,0,1.3-0.1c1.2-0.1,2.1-0.6,2.8-1.3
				c0.7-0.7,1.3-1.8,1.9-3.1l12.7-29.1c0.5-1.2,0.9-1.8,1.2-1.8c0.3,0,0.7,0.6,1.2,1.7c0.1,0.3,1.1,2.4,2.8,6.2
				c1.7,3.8,3.6,7.9,5.6,12.3c2,4.4,3.5,7.7,4.6,9.8c1.5,3.1,3.1,4.8,4.8,5.2c0.7,0.2,1.4,0.3,2.2,0.3c0.4,0,0.6,0.1,0.6,0.3
				c0,0.2-0.4,0.4-1.1,0.4c-3.3,0-6.2,0-8.8-0.1c-1.1-0.1-1.7-0.2-1.7-0.3s0.1-0.3,0.4-0.3c0.5-0.2,0.6-0.6,0.3-1.3l-5.2-11.5
				C232.2,223.6,232,223.5,231.8,223.5z M220.4,221.8H231c0.2,0,0.3-0.1,0.2-0.3l-5.3-12.7c-0.3-0.7-0.5-0.7-0.8,0l-4.9,12.7
				C220.1,221.7,220.2,221.8,220.4,221.8z"/>
		</g>
		<g class="st8">
			<path class="st10" d="M231.8,223.5h-12c-0.3,0-0.4,0.1-0.6,0.4l-3.4,8.3c-0.5,1.2-0.8,2.3-0.8,3.1c0,0.4,0.2,0.8,0.6,1
				s0.9,0.4,1.4,0.4h0.5c0.5,0,0.7,0.1,0.7,0.3c0,0.2-0.3,0.4-1,0.4c-0.5,0-1.3,0-2.4-0.1c-1.1,0-1.7-0.1-1.8-0.1c0,0-0.8,0-2.4,0.1
				c-1.6,0-2.9,0.1-3.9,0.1c-0.7,0-1.1-0.1-1.1-0.4c0-0.2,0.3-0.3,0.8-0.3c0.3,0,0.7,0,1.3-0.1c1.2-0.1,2.1-0.6,2.8-1.3
				c0.7-0.7,1.3-1.8,1.9-3.1l12.7-29.1c0.5-1.2,0.9-1.8,1.2-1.8c0.3,0,0.7,0.6,1.2,1.7c0.1,0.3,1.1,2.4,2.8,6.2
				c1.7,3.8,3.6,7.9,5.6,12.3c2,4.4,3.5,7.7,4.6,9.8c1.5,3.1,3.1,4.8,4.8,5.2c0.7,0.2,1.4,0.3,2.2,0.3c0.4,0,0.6,0.1,0.6,0.3
				c0,0.2-0.4,0.4-1.1,0.4c-3.3,0-6.2,0-8.8-0.1c-1.1-0.1-1.7-0.2-1.7-0.3s0.1-0.3,0.4-0.3c0.5-0.2,0.6-0.6,0.3-1.3l-5.2-11.5
				C232.2,223.6,232,223.5,231.8,223.5z M220.4,221.8H231c0.2,0,0.3-0.1,0.2-0.3l-5.3-12.7c-0.3-0.7-0.5-0.7-0.8,0l-4.9,12.7
				C220.1,221.7,220.2,221.8,220.4,221.8z"/>
		</g>
		<g class="st8">
			<path class="st9" d="M277.2,202c0.1,0,0.9,0,2.4-0.1c1.4,0,2.5-0.1,3.1-0.1c0.6,0,0.9,0.1,0.9,0.4c0,0.2-0.1,0.3-0.4,0.3
				c-0.3,0-0.7,0-1.4,0.1c-0.7,0.1-1.3,0.4-1.5,0.8s-0.5,1-0.5,1.9c-0.1,1-0.1,4.4-0.1,10.1v8.3c0,5.5,0.1,8.9,0.3,10.2
				c0.1,0.8,0.3,1.4,0.6,1.8c0.3,0.4,0.8,0.7,1.6,0.8c1,0.1,1.8,0.2,2.3,0.2c0.4,0,0.7,0.1,0.7,0.3c0,0.2-0.3,0.4-0.8,0.4
				c-0.9,0-1.9,0-3,0s-2,0-2.8-0.1c-0.7,0-1.1,0-1.1,0c0,0-0.4,0-1.1,0c-0.7,0-1.4,0-2.3,0.1c-0.9,0-1.5,0-2,0
				c-0.6,0-0.9-0.1-0.9-0.4c0-0.2,0.2-0.3,0.6-0.3c0.4,0,0.9,0,1.5-0.1c0.9-0.2,1.4-1,1.7-2.6c0.2-1.3,0.3-4.7,0.3-10.1v-1.4
				c0-0.2-0.1-0.3-0.4-0.3c-1.2,0-3,0-5.4-0.1c-0.2,0-0.4,0-0.6,0.1c-0.3,0.1-0.7,0.4-1.1,0.8c-0.1,0.1-2,2.3-5.7,6.6
				c-2.2,2.8-4.1,4.8-5.6,5.9c-1.8,1.4-4.8,2.1-8.9,2.1l-2.7,0c-0.7,0-1-0.1-1-0.4c0-0.2,0.3-0.3,0.9-0.3c0.6,0,1.2,0,1.8,0
				c1.3-0.1,2.4-0.4,3.4-0.9c1-0.5,2-1.4,3.3-2.6c1.5-1.5,3.5-3.7,6-6.5c0.1-0.1,0.5-0.6,1.3-1.4c0.8-0.8,1.3-1.4,1.6-1.7
				c0.3-0.3,0.7-0.7,1.3-1.2c0.6-0.5,1.1-0.9,1.5-1.1c-2.7-0.9-4.7-2.2-6-3.9s-2-3.5-2-5.4c0-3.4,1.8-6,5.2-8c2.2-1.3,5.4-2,9.4-2
				c0.9,0,2.1,0,3.4,0.1C276,201.9,276.9,202,277.2,202z M275,219.6v-15.3c0-0.2-0.1-0.3-0.3-0.5c-0.6-0.2-1.5-0.3-2.8-0.3
				c-3.2,0-5.7,0.7-7.5,2.2c-1.8,1.5-2.8,3.5-2.8,6.3c0,2.6,1,4.7,3.1,6.2c2.1,1.5,4.6,2.3,7.7,2.3c1.2,0,1.9-0.1,2.3-0.2
				C274.9,220.1,275,219.9,275,219.6z"/>
		</g>
		<g class="st8">
			<path class="st10" d="M277.2,202c0.1,0,0.9,0,2.4-0.1c1.4,0,2.5-0.1,3.1-0.1c0.6,0,0.9,0.1,0.9,0.4c0,0.2-0.1,0.3-0.4,0.3
				c-0.3,0-0.7,0-1.4,0.1c-0.7,0.1-1.3,0.4-1.5,0.8s-0.5,1-0.5,1.9c-0.1,1-0.1,4.4-0.1,10.1v8.3c0,5.5,0.1,8.9,0.3,10.2
				c0.1,0.8,0.3,1.4,0.6,1.8c0.3,0.4,0.8,0.7,1.6,0.8c1,0.1,1.8,0.2,2.3,0.2c0.4,0,0.7,0.1,0.7,0.3c0,0.2-0.3,0.4-0.8,0.4
				c-0.9,0-1.9,0-3,0s-2,0-2.8-0.1c-0.7,0-1.1,0-1.1,0c0,0-0.4,0-1.1,0c-0.7,0-1.4,0-2.3,0.1c-0.9,0-1.5,0-2,0
				c-0.6,0-0.9-0.1-0.9-0.4c0-0.2,0.2-0.3,0.6-0.3c0.4,0,0.9,0,1.5-0.1c0.9-0.2,1.4-1,1.7-2.6c0.2-1.3,0.3-4.7,0.3-10.1v-1.4
				c0-0.2-0.1-0.3-0.4-0.3c-1.2,0-3,0-5.4-0.1c-0.2,0-0.4,0-0.6,0.1c-0.3,0.1-0.7,0.4-1.1,0.8c-0.1,0.1-2,2.3-5.7,6.6
				c-2.2,2.8-4.1,4.8-5.6,5.9c-1.8,1.4-4.8,2.1-8.9,2.1l-2.7,0c-0.7,0-1-0.1-1-0.4c0-0.2,0.3-0.3,0.9-0.3c0.6,0,1.2,0,1.8,0
				c1.3-0.1,2.4-0.4,3.4-0.9c1-0.5,2-1.4,3.3-2.6c1.5-1.5,3.5-3.7,6-6.5c0.1-0.1,0.5-0.6,1.3-1.4c0.8-0.8,1.3-1.4,1.6-1.7
				c0.3-0.3,0.7-0.7,1.3-1.2c0.6-0.5,1.1-0.9,1.5-1.1c-2.7-0.9-4.7-2.2-6-3.9s-2-3.5-2-5.4c0-3.4,1.8-6,5.2-8c2.2-1.3,5.4-2,9.4-2
				c0.9,0,2.1,0,3.4,0.1C276,201.9,276.9,202,277.2,202z M275,219.6v-15.3c0-0.2-0.1-0.3-0.3-0.5c-0.6-0.2-1.5-0.3-2.8-0.3
				c-3.2,0-5.7,0.7-7.5,2.2c-1.8,1.5-2.8,3.5-2.8,6.3c0,2.6,1,4.7,3.1,6.2c2.1,1.5,4.6,2.3,7.7,2.3c1.2,0,1.9-0.1,2.3-0.2
				C274.9,220.1,275,219.9,275,219.6z"/>
		</g>
		<g class="st8">
			<path class="st9" d="M332.2,223.5h-12c-0.3,0-0.4,0.1-0.6,0.4l-3.4,8.3c-0.5,1.2-0.8,2.3-0.8,3.1c0,0.4,0.2,0.8,0.6,1
				c0.4,0.2,0.9,0.4,1.4,0.4h0.5c0.5,0,0.7,0.1,0.7,0.3c0,0.2-0.3,0.4-1,0.4c-0.5,0-1.3,0-2.4-0.1c-1.1,0-1.7-0.1-1.8-0.1
				c0,0-0.8,0-2.4,0.1c-1.6,0-2.9,0.1-3.9,0.1c-0.7,0-1.1-0.1-1.1-0.4c0-0.2,0.3-0.3,0.8-0.3c0.3,0,0.7,0,1.3-0.1
				c1.2-0.1,2.1-0.6,2.8-1.3c0.7-0.7,1.3-1.8,1.9-3.1l12.7-29.1c0.5-1.2,0.9-1.8,1.2-1.8s0.7,0.6,1.2,1.7c0.1,0.3,1.1,2.4,2.8,6.2
				c1.7,3.8,3.6,7.9,5.6,12.3s3.5,7.7,4.6,9.8c1.5,3.1,3.1,4.8,4.8,5.2c0.7,0.2,1.4,0.3,2.2,0.3c0.4,0,0.6,0.1,0.6,0.3
				c0,0.2-0.4,0.4-1.1,0.4c-3.3,0-6.2,0-8.8-0.1c-1.1-0.1-1.7-0.2-1.7-0.3s0.1-0.3,0.4-0.3c0.5-0.2,0.6-0.6,0.3-1.3l-5.2-11.5
				C332.6,223.6,332.4,223.5,332.2,223.5z M320.8,221.8h10.7c0.2,0,0.3-0.1,0.2-0.3l-5.3-12.7c-0.3-0.7-0.5-0.7-0.8,0l-4.9,12.7
				C320.5,221.7,320.6,221.8,320.8,221.8z"/>
		</g>
		<g class="st8">
			<path class="st10" d="M332.2,223.5h-12c-0.3,0-0.4,0.1-0.6,0.4l-3.4,8.3c-0.5,1.2-0.8,2.3-0.8,3.1c0,0.4,0.2,0.8,0.6,1
				c0.4,0.2,0.9,0.4,1.4,0.4h0.5c0.5,0,0.7,0.1,0.7,0.3c0,0.2-0.3,0.4-1,0.4c-0.5,0-1.3,0-2.4-0.1c-1.1,0-1.7-0.1-1.8-0.1
				c0,0-0.8,0-2.4,0.1c-1.6,0-2.9,0.1-3.9,0.1c-0.7,0-1.1-0.1-1.1-0.4c0-0.2,0.3-0.3,0.8-0.3c0.3,0,0.7,0,1.3-0.1
				c1.2-0.1,2.1-0.6,2.8-1.3c0.7-0.7,1.3-1.8,1.9-3.1l12.7-29.1c0.5-1.2,0.9-1.8,1.2-1.8s0.7,0.6,1.2,1.7c0.1,0.3,1.1,2.4,2.8,6.2
				c1.7,3.8,3.6,7.9,5.6,12.3s3.5,7.7,4.6,9.8c1.5,3.1,3.1,4.8,4.8,5.2c0.7,0.2,1.4,0.3,2.2,0.3c0.4,0,0.6,0.1,0.6,0.3
				c0,0.2-0.4,0.4-1.1,0.4c-3.3,0-6.2,0-8.8-0.1c-1.1-0.1-1.7-0.2-1.7-0.3s0.1-0.3,0.4-0.3c0.5-0.2,0.6-0.6,0.3-1.3l-5.2-11.5
				C332.6,223.6,332.4,223.5,332.2,223.5z M320.8,221.8h10.7c0.2,0,0.3-0.1,0.2-0.3l-5.3-12.7c-0.3-0.7-0.5-0.7-0.8,0l-4.9,12.7
				C320.5,221.7,320.6,221.8,320.8,221.8z"/>
		</g>
		<g class="st8">
			<path class="st9" d="M362.2,238c-3.4,0-6-0.4-7.9-1.3c-0.6-0.3-1-0.8-1.1-1.5c-0.1-1.7,0-3.3,0.3-4.8c0.1-0.4,0.3-0.7,0.4-0.7
				c0.2,0,0.4,0.3,0.4,0.8c0.2,3.9,3.2,5.9,8.8,5.9c3.1,0,5.6-0.8,7.6-2.3c2-1.5,3-3.6,3-6.4c0-2.9-1.1-5.2-3.3-6.8
				c-2.2-1.6-4.9-2.4-8-2.6c-1.3,0-2-0.2-2-0.5c0-0.2,0.7-0.4,2-0.6c5.8-0.4,8.7-2.9,8.7-7.4c0-0.9-0.1-1.8-0.4-2.5
				c-0.3-0.8-0.7-1.5-1.3-2.3c-0.6-0.8-1.5-1.3-2.6-1.8c-1.2-0.4-2.6-0.7-4.2-0.7c-4.5,0-6.9,1.8-7.1,5.4c0,0.5-0.2,0.7-0.4,0.7
				c-0.3,0-0.4-0.2-0.4-0.7c0-0.5,0-1.3-0.1-2.4c-0.1-1.1-0.1-1.9-0.1-2.3c0-0.6,0.2-0.9,0.5-0.9c0.2,0,0.4-0.1,0.7-0.1
				s0.6-0.1,1-0.2c0.4-0.1,0.8-0.2,1.1-0.2c2.2-0.5,4.4-0.8,6.5-0.8c2.2,0,4,0.3,5.6,0.8c1.6,0.5,2.8,1.2,3.6,2
				c0.8,0.8,1.4,1.6,1.7,2.4c0.4,0.8,0.5,1.6,0.5,2.4c0,2.1-0.8,3.9-2.3,5.3c-1.5,1.4-3.3,2.5-5.4,3.1c-0.1,0.1-0.1,0.1,0,0.1
				c1.1,0.2,2.2,0.4,3.4,0.9c1.1,0.4,2.3,1,3.4,1.7c1.2,0.7,2.1,1.6,2.8,2.8c0.7,1.1,1.1,2.4,1.1,3.8c0,3.3-1.5,6-4.6,8.2
				C371.2,236.9,367.2,238,362.2,238z"/>
			<path class="st9" d="M395.8,207.4l-0.1,24.4c2.6-2.7,7.4-7.6,14.4-14.9s11.1-11.5,12.4-12.9c1.9-1.9,3.1-2.9,3.6-2.9
				c0.2,0,0.4,0.1,0.5,0.3c0.1,0.2,0.2,0.6,0.3,1.2c0.1,0.7,0.1,1.6,0.1,3c0,11.4,0.1,20.1,0.2,25.9c0,1.8,0.2,3,0.5,3.7
				c0.3,0.7,0.9,1.1,1.8,1.2c0.4,0.1,1.1,0.1,2.2,0.2c0.6,0,0.8,0.1,0.8,0.3c0,0.2-0.3,0.3-0.8,0.3c-0.8,0-2.2,0-4.4-0.1
				s-3.3-0.1-3.5-0.1c-0.3,0-1.1,0-2.2,0.1s-2.1,0.1-2.8,0.1c-0.6,0-0.8-0.1-0.8-0.3c0-0.2,0.3-0.3,0.8-0.4c0.8-0.1,1.4-0.1,1.6-0.2
				c0.7-0.1,1.2-0.6,1.5-1.5c0.2-0.9,0.4-2.3,0.4-4.3c0.1-2.8,0.1-7,0.1-12.3c0-5.4,0-9.1,0.1-11.2c-2.8,3-8.1,8.4-15.7,16.3
				c-7.6,7.9-11.9,12.3-12.9,13.2c-1,0.9-1.7,1.3-2.1,1.3c-0.3,0-0.5-0.1-0.6-0.4c-0.1-0.3-0.1-0.9-0.1-1.8v-27.3
				c0-1.7-0.1-2.9-0.3-3.7c-0.2-0.8-0.4-1.3-0.7-1.5c-0.3-0.2-0.8-0.4-1.5-0.5c-0.3,0-0.6-0.1-1-0.1c-0.4,0-0.7,0-0.8,0
				c-0.4,0-0.6-0.1-0.6-0.3c0-0.2,0.4-0.3,1.1-0.3c0.6,0,1.8,0,3.4,0.1c1.6,0,2.5,0.1,2.8,0.1c0.6,0,1.6,0,2.9-0.1
				c1.3,0,2.2-0.1,2.7-0.1c0.6,0,0.9,0.1,0.9,0.3c0,0.2-0.2,0.3-0.7,0.4c-0.7,0.1-1.2,0.1-1.5,0.1c-0.8,0.2-1.4,0.5-1.6,1.1
				C396,204.2,395.9,205.5,395.8,207.4z"/>
			<path class="st9" d="M464.2,202c0.1,0,0.9,0,2.4-0.1c1.4,0,2.5-0.1,3.1-0.1c0.6,0,0.9,0.1,0.9,0.4c0,0.2-0.1,0.3-0.4,0.3
				c-0.3,0-0.7,0-1.4,0.1c-0.7,0.1-1.3,0.4-1.5,0.8s-0.5,1-0.5,1.9c-0.1,1-0.1,4.4-0.1,10.1v8.3c0,5.5,0.1,8.9,0.3,10.2
				c0.1,0.8,0.3,1.4,0.6,1.8c0.3,0.4,0.8,0.7,1.6,0.8c1,0.1,1.8,0.2,2.3,0.2c0.4,0,0.7,0.1,0.7,0.3c0,0.2-0.3,0.4-0.8,0.4
				c-0.9,0-1.9,0-3,0s-2,0-2.8-0.1c-0.7,0-1.1,0-1.1,0c0,0-0.4,0-1.1,0c-0.7,0-1.4,0-2.3,0.1c-0.9,0-1.5,0-2,0
				c-0.6,0-0.9-0.1-0.9-0.4c0-0.2,0.2-0.3,0.6-0.3c0.4,0,0.9,0,1.5-0.1c0.9-0.2,1.4-1,1.7-2.6c0.2-1.3,0.3-4.7,0.3-10.1v-1.4
				c0-0.2-0.1-0.3-0.4-0.3c-1.2,0-3,0-5.4-0.1c-0.2,0-0.4,0-0.6,0.1c-0.3,0.1-0.7,0.4-1.1,0.8c-0.1,0.1-2,2.3-5.7,6.6
				c-2.2,2.8-4.1,4.8-5.6,5.9c-1.8,1.4-4.8,2.1-8.9,2.1l-2.7,0c-0.7,0-1-0.1-1-0.4c0-0.2,0.3-0.3,0.9-0.3c0.6,0,1.2,0,1.8,0
				c1.3-0.1,2.4-0.4,3.4-0.9c0.9-0.5,2-1.4,3.3-2.6c1.5-1.5,3.5-3.7,6-6.5c0.1-0.1,0.5-0.6,1.3-1.4c0.8-0.8,1.3-1.4,1.6-1.7
				c0.3-0.3,0.7-0.7,1.3-1.2c0.6-0.5,1.1-0.9,1.5-1.1c-2.7-0.9-4.7-2.2-6-3.9c-1.3-1.7-2-3.5-2-5.4c0-3.4,1.8-6,5.2-8
				c2.2-1.3,5.4-2,9.4-2c0.9,0,2.1,0,3.4,0.1C463,201.9,463.8,202,464.2,202z M462,219.6v-15.3c0-0.2-0.1-0.3-0.3-0.5
				c-0.6-0.2-1.5-0.3-2.8-0.3c-3.2,0-5.7,0.7-7.5,2.2s-2.8,3.5-2.8,6.3c0,2.6,1,4.7,3.1,6.2c2.1,1.5,4.6,2.3,7.7,2.3
				c1.2,0,1.9-0.1,2.3-0.2C461.9,220.1,462,219.9,462,219.6z"/>
		</g>
		<g class="st8">
			<path class="st10" d="M362.2,238c-3.4,0-6-0.4-7.9-1.3c-0.6-0.3-1-0.8-1.1-1.5c-0.1-1.7,0-3.3,0.3-4.8c0.1-0.4,0.3-0.7,0.4-0.7
				c0.2,0,0.4,0.3,0.4,0.8c0.2,3.9,3.2,5.9,8.8,5.9c3.1,0,5.6-0.8,7.6-2.3c2-1.5,3-3.6,3-6.4c0-2.9-1.1-5.2-3.3-6.8
				c-2.2-1.6-4.9-2.4-8-2.6c-1.3,0-2-0.2-2-0.5c0-0.2,0.7-0.4,2-0.6c5.8-0.4,8.7-2.9,8.7-7.4c0-0.9-0.1-1.8-0.4-2.5
				c-0.3-0.8-0.7-1.5-1.3-2.3c-0.6-0.8-1.5-1.3-2.6-1.8c-1.2-0.4-2.6-0.7-4.2-0.7c-4.5,0-6.9,1.8-7.1,5.4c0,0.5-0.2,0.7-0.4,0.7
				c-0.3,0-0.4-0.2-0.4-0.7c0-0.5,0-1.3-0.1-2.4c-0.1-1.1-0.1-1.9-0.1-2.3c0-0.6,0.2-0.9,0.5-0.9c0.2,0,0.4-0.1,0.7-0.1
				s0.6-0.1,1-0.2c0.4-0.1,0.8-0.2,1.1-0.2c2.2-0.5,4.4-0.8,6.5-0.8c2.2,0,4,0.3,5.6,0.8c1.6,0.5,2.8,1.2,3.6,2
				c0.8,0.8,1.4,1.6,1.7,2.4c0.4,0.8,0.5,1.6,0.5,2.4c0,2.1-0.8,3.9-2.3,5.3c-1.5,1.4-3.3,2.5-5.4,3.1c-0.1,0.1-0.1,0.1,0,0.1
				c1.1,0.2,2.2,0.4,3.4,0.9c1.1,0.4,2.3,1,3.4,1.7c1.2,0.7,2.1,1.6,2.8,2.8c0.7,1.1,1.1,2.4,1.1,3.8c0,3.3-1.5,6-4.6,8.2
				C371.2,236.9,367.2,238,362.2,238z"/>
			<path class="st10" d="M395.8,207.4l-0.1,24.4c2.6-2.7,7.4-7.6,14.4-14.9s11.1-11.5,12.4-12.9c1.9-1.9,3.1-2.9,3.6-2.9
				c0.2,0,0.4,0.1,0.5,0.3c0.1,0.2,0.2,0.6,0.3,1.2c0.1,0.7,0.1,1.6,0.1,3c0,11.4,0.1,20.1,0.2,25.9c0,1.8,0.2,3,0.5,3.7
				c0.3,0.7,0.9,1.1,1.8,1.2c0.4,0.1,1.1,0.1,2.2,0.2c0.6,0,0.8,0.1,0.8,0.3c0,0.2-0.3,0.3-0.8,0.3c-0.8,0-2.2,0-4.4-0.1
				s-3.3-0.1-3.5-0.1c-0.3,0-1.1,0-2.2,0.1s-2.1,0.1-2.8,0.1c-0.6,0-0.8-0.1-0.8-0.3c0-0.2,0.3-0.3,0.8-0.4c0.8-0.1,1.4-0.1,1.6-0.2
				c0.7-0.1,1.2-0.6,1.5-1.5c0.2-0.9,0.4-2.3,0.4-4.3c0.1-2.8,0.1-7,0.1-12.3c0-5.4,0-9.1,0.1-11.2c-2.8,3-8.1,8.4-15.7,16.3
				c-7.6,7.9-11.9,12.3-12.9,13.2c-1,0.9-1.7,1.3-2.1,1.3c-0.3,0-0.5-0.1-0.6-0.4c-0.1-0.3-0.1-0.9-0.1-1.8v-27.3
				c0-1.7-0.1-2.9-0.3-3.7c-0.2-0.8-0.4-1.3-0.7-1.5c-0.3-0.2-0.8-0.4-1.5-0.5c-0.3,0-0.6-0.1-1-0.1c-0.4,0-0.7,0-0.8,0
				c-0.4,0-0.6-0.1-0.6-0.3c0-0.2,0.4-0.3,1.1-0.3c0.6,0,1.8,0,3.4,0.1c1.6,0,2.5,0.1,2.8,0.1c0.6,0,1.6,0,2.9-0.1
				c1.3,0,2.2-0.1,2.7-0.1c0.6,0,0.9,0.1,0.9,0.3c0,0.2-0.2,0.3-0.7,0.4c-0.7,0.1-1.2,0.1-1.5,0.1c-0.8,0.2-1.4,0.5-1.6,1.1
				C396,204.2,395.9,205.5,395.8,207.4z"/>
			<path class="st10" d="M464.2,202c0.1,0,0.9,0,2.4-0.1c1.4,0,2.5-0.1,3.1-0.1c0.6,0,0.9,0.1,0.9,0.4c0,0.2-0.1,0.3-0.4,0.3
				c-0.3,0-0.7,0-1.4,0.1c-0.7,0.1-1.3,0.4-1.5,0.8s-0.5,1-0.5,1.9c-0.1,1-0.1,4.4-0.1,10.1v8.3c0,5.5,0.1,8.9,0.3,10.2
				c0.1,0.8,0.3,1.4,0.6,1.8c0.3,0.4,0.8,0.7,1.6,0.8c1,0.1,1.8,0.2,2.3,0.2c0.4,0,0.7,0.1,0.7,0.3c0,0.2-0.3,0.4-0.8,0.4
				c-0.9,0-1.9,0-3,0s-2,0-2.8-0.1c-0.7,0-1.1,0-1.1,0c0,0-0.4,0-1.1,0c-0.7,0-1.4,0-2.3,0.1c-0.9,0-1.5,0-2,0
				c-0.6,0-0.9-0.1-0.9-0.4c0-0.2,0.2-0.3,0.6-0.3c0.4,0,0.9,0,1.5-0.1c0.9-0.2,1.4-1,1.7-2.6c0.2-1.3,0.3-4.7,0.3-10.1v-1.4
				c0-0.2-0.1-0.3-0.4-0.3c-1.2,0-3,0-5.4-0.1c-0.2,0-0.4,0-0.6,0.1c-0.3,0.1-0.7,0.4-1.1,0.8c-0.1,0.1-2,2.3-5.7,6.6
				c-2.2,2.8-4.1,4.8-5.6,5.9c-1.8,1.4-4.8,2.1-8.9,2.1l-2.7,0c-0.7,0-1-0.1-1-0.4c0-0.2,0.3-0.3,0.9-0.3c0.6,0,1.2,0,1.8,0
				c1.3-0.1,2.4-0.4,3.4-0.9c0.9-0.5,2-1.4,3.3-2.6c1.5-1.5,3.5-3.7,6-6.5c0.1-0.1,0.5-0.6,1.3-1.4c0.8-0.8,1.3-1.4,1.6-1.7
				c0.3-0.3,0.7-0.7,1.3-1.2c0.6-0.5,1.1-0.9,1.5-1.1c-2.7-0.9-4.7-2.2-6-3.9c-1.3-1.7-2-3.5-2-5.4c0-3.4,1.8-6,5.2-8
				c2.2-1.3,5.4-2,9.4-2c0.9,0,2.1,0,3.4,0.1C463,201.9,463.8,202,464.2,202z M462,219.6v-15.3c0-0.2-0.1-0.3-0.3-0.5
				c-0.6-0.2-1.5-0.3-2.8-0.3c-3.2,0-5.7,0.7-7.5,2.2s-2.8,3.5-2.8,6.3c0,2.6,1,4.7,3.1,6.2c2.1,1.5,4.6,2.3,7.7,2.3
				c1.2,0,1.9-0.1,2.3-0.2C461.9,220.1,462,219.9,462,219.6z"/>
		</g>
		<g class="st8">
			<path class="st9" d="M262.7,260.3h-4.3v9.1h-1.7v-9.1h-4.2V259h10.3V260.3z"/>
		</g>
		<g class="st8">
			<path class="st9" d="M272.2,268.8c-1-0.5-1.8-1.1-2.4-1.9c-0.6-0.8-0.9-1.7-0.9-2.7s0.3-1.9,0.9-2.7c0.6-0.8,1.4-1.4,2.4-1.9
				c1-0.5,2.1-0.7,3.4-0.7c1.2,0,2.4,0.2,3.4,0.7c1,0.5,1.8,1.1,2.4,1.9s0.9,1.7,0.9,2.7s-0.3,1.9-0.9,2.7s-1.4,1.4-2.4,1.9
				c-1,0.5-2.1,0.7-3.4,0.7C274.4,269.5,273.2,269.2,272.2,268.8z M278.1,267.6c0.7-0.3,1.3-0.8,1.7-1.4c0.4-0.6,0.6-1.3,0.6-2
				c0-0.8-0.2-1.4-0.6-2c-0.4-0.6-1-1.1-1.7-1.4c-0.7-0.3-1.5-0.5-2.5-0.5s-1.7,0.2-2.5,0.5c-0.7,0.3-1.3,0.8-1.7,1.4
				c-0.4,0.6-0.6,1.3-0.6,2c0,0.8,0.2,1.4,0.6,2c0.4,0.6,1,1.1,1.7,1.4c0.7,0.3,1.6,0.5,2.5,0.5S277.4,268,278.1,267.6z"/>
		</g>
		<g class="st8">
			<path class="st9" d="M299.1,259.9c0.9,0.6,1.4,1.5,1.4,2.7c0,1.1-0.5,2-1.4,2.7s-2.2,1-3.8,1h-3.1v3.1h-1.8V259h4.9
				C296.9,259,298.2,259.3,299.1,259.9z M297.8,264.3c0.6-0.4,0.9-1,0.9-1.7c0-0.8-0.3-1.3-0.9-1.7c-0.6-0.4-1.5-0.6-2.6-0.6h-3v4.7
				h3C296.3,264.9,297.2,264.7,297.8,264.3z"/>
		</g>
		<g class="st8">
			<path class="st9" d="M316.4,260.3H310l0,9.1h-1.8V259h8.2L316.4,260.3z"/>
		</g>
		<g class="st8">
			<path class="st9" d="M324.5,268.8c-1-0.5-1.8-1.1-2.4-1.9c-0.6-0.8-0.9-1.7-0.9-2.7s0.3-1.9,0.9-2.7c0.6-0.8,1.4-1.4,2.4-1.9
				s2.1-0.7,3.4-0.7c1.2,0,2.4,0.2,3.4,0.7s1.8,1.1,2.4,1.9c0.6,0.8,0.9,1.7,0.9,2.7s-0.3,1.9-0.9,2.7c-0.6,0.8-1.4,1.4-2.4,1.9
				s-2.1,0.7-3.4,0.7C326.6,269.5,325.5,269.2,324.5,268.8z M330.4,267.6c0.7-0.3,1.3-0.8,1.7-1.4c0.4-0.6,0.6-1.3,0.6-2
				c0-0.8-0.2-1.4-0.6-2c-0.4-0.6-1-1.1-1.7-1.4c-0.7-0.3-1.5-0.5-2.5-0.5s-1.7,0.2-2.5,0.5c-0.7,0.3-1.3,0.8-1.7,1.4
				s-0.6,1.3-0.6,2c0,0.8,0.2,1.4,0.6,2c0.4,0.6,1,1.1,1.7,1.4c0.7,0.3,1.6,0.5,2.5,0.5S329.6,268,330.4,267.6z"/>
			<path class="st9" d="M352.4,264.9c0.4,0.4,0.6,1,0.6,1.7c0,0.9-0.4,1.6-1.2,2.1c-0.8,0.5-1.9,0.7-3.4,0.7h-5.7V259h5.3
				c1.4,0,2.4,0.2,3.2,0.7c0.8,0.5,1.1,1.1,1.1,2c0,0.6-0.2,1-0.5,1.4c-0.3,0.4-0.8,0.7-1.4,0.9
				C351.3,264.1,351.9,264.4,352.4,264.9z M344.5,263.5h3.5c0.9,0,1.5-0.1,2-0.4c0.5-0.3,0.7-0.7,0.7-1.3c0-0.6-0.2-1-0.7-1.3
				s-1.1-0.4-2-0.4h-3.5V263.5z M351.2,266.4c0-0.6-0.2-1-0.7-1.3c-0.5-0.3-1.2-0.4-2.1-0.4h-3.9v3.5h3.9
				C350.3,268.2,351.2,267.6,351.2,266.4z"/>
			<path class="st9" d="M370.2,263.4c0.8,0.6,1.2,1.4,1.2,2.4c0,1.1-0.4,2-1.3,2.6c-0.8,0.6-2.1,0.9-3.6,0.9h-5.1V259h1.8v3.6h3.7
				C368.3,262.6,369.4,262.9,370.2,263.4z M368.8,267.6c0.6-0.4,0.8-1,0.8-1.7c0-1.4-1.1-2.1-3.2-2.1h-3.3v4.4h3.3
				C367.4,268.2,368.2,268,368.8,267.6z M373.3,259h1.8v10.4h-1.8V259z"/>
			<path class="st9" d="M384.3,259h1.8v8l7.4-8h1.6v10.4h-1.7v-8l-7.4,8h-1.6V259z M387.4,257.7c-0.5-0.4-0.8-0.9-0.8-1.5h1.3
				c0,0.4,0.2,0.7,0.5,0.9c0.3,0.2,0.7,0.3,1.3,0.3c0.5,0,1-0.1,1.3-0.3c0.3-0.2,0.5-0.5,0.5-0.9h1.2c0,0.6-0.3,1.1-0.8,1.5
				s-1.3,0.5-2.2,0.5C388.7,258.3,387.9,258.1,387.4,257.7z"/>
			<path class="st9" d="M426.2,268.1v3.6h-1.7v-2.3h-10.2l0,2.3h-1.7l0-3.6h0.6c0.8,0,1.3-0.6,1.7-1.5s0.5-2.4,0.6-4.2l0.1-3.3h8.7
				v9.1H426.2z M416.7,266.1c-0.2,1-0.6,1.6-1.1,2h7v-7.8h-5.5l-0.1,2.2C417,263.9,416.9,265.1,416.7,266.1z"/>
			<path class="st9" d="M436.2,268.8c-1-0.5-1.8-1.1-2.4-1.9c-0.6-0.8-0.9-1.7-0.9-2.7s0.3-1.9,0.9-2.7c0.6-0.8,1.4-1.4,2.4-1.9
				s2.1-0.7,3.4-0.7c1.2,0,2.4,0.2,3.4,0.7s1.8,1.1,2.4,1.9c0.6,0.8,0.9,1.7,0.9,2.7s-0.3,1.9-0.9,2.7c-0.6,0.8-1.4,1.4-2.4,1.9
				s-2.1,0.7-3.4,0.7C438.3,269.5,437.2,269.2,436.2,268.8z M442,267.6c0.7-0.3,1.3-0.8,1.7-1.4c0.4-0.6,0.6-1.3,0.6-2
				c0-0.8-0.2-1.4-0.6-2c-0.4-0.6-1-1.1-1.7-1.4c-0.7-0.3-1.5-0.5-2.5-0.5s-1.7,0.2-2.5,0.5c-0.7,0.3-1.3,0.8-1.7,1.4
				s-0.6,1.3-0.6,2c0,0.8,0.2,1.4,0.6,2c0.4,0.6,1,1.1,1.7,1.4c0.7,0.3,1.6,0.5,2.5,0.5S441.3,268,442,267.6z"/>
			<path class="st9" d="M465.9,269.3l0-7.6l-4.5,6.3h-0.8l-4.5-6.2v7.5h-1.7V259h1.5l5.2,7.3l5.1-7.3h1.5l0,10.4H465.9z"/>
		</g>
		<path class="st11" d="M96.6,179.5c0,0,173.3-71.8,342.5-76.1c0,0-168.7,29-253.1,76.1H96.6"/>
		<rect x="175.8" y="164.5" class="st11" width="38.1" height="15"/>
		<rect x="265.1" y="132.4" class="st11" width="38.1" height="47.1"/>
		<polygon class="st11" points="352.5,179.5 390.6,179.5 390.6,109.8 352.5,115.9 		"/>
		<path class="st9" d="M225.5,135.3c0,0-90.3-40.1-202-33.1c0,0,103.3,3,165.6,41.8L225.5,135.3z"/>
		<path class="st9" d="M71.1,104v26.7c-7.3-0.5-15-0.9-22.9-1.2V104H71.1z"/>
		<path class="st9" d="M121.9,108.2v27.9c-7.2-1.1-14.8-2.1-22.9-3v-24.9H121.9z"/>
		<path class="st9" d="M172.2,119.1v27.5c-6.7-1.9-14.4-3.8-22.9-5.6v-21.9H172.2z"/>
	</g>
</g>
</svg>
