<?xml version="1.0" encoding="utf-8"?>
<!-- Generator: Adobe Illustrator 26.2.1, SVG Export Plug-In . SVG Version: 6.00 Build 0)  -->
<svg version="1.1" id="Layer_1" xmlns="http://www.w3.org/2000/svg" xmlns:xlink="http://www.w3.org/1999/xlink" x="0px" y="0px"
	 viewBox="0 0 131.4 80.8" style="enable-background:new 0 0 131.4 80.8;" xml:space="preserve">
<style type="text/css">
	.st0{fill:url(#SVGID_1_);}
	.st1{fill:url(#SVGID_00000176001396267394586620000005552633881264575418_);}
	.st2{fill:url(#SVGID_00000024705284653039556810000012416273887122807715_);}
	.st3{fill:url(#SVGID_00000172438685902067628280000006664067241404238500_);}
	.st4{fill:url(#SVGID_00000111193653583640482510000006382054649614457994_);}
	.st5{fill:url(#SVGID_00000157289067590133156640000004397140093478016690_);}
	.st6{fill:url(#SVGID_00000060001621431893307610000015349139754540846778_);}
	.st7{fill:url(#SVGID_00000145049920174066146900000007580392810891786163_);}
	.st8{fill:#102D69;}
	.st9{fill:#C00D0D;}
</style>
<g id="Layer_2_00000065787544714851692940000015015738648943120809_">
	<g id="Layer_1-2">
		
			<linearGradient id="SVGID_1_" gradientUnits="userSpaceOnUse" x1="44.2896" y1="31.8627" x2="87.1896" y2="60.6127" gradientTransform="matrix(1 0 0 -1 0 81.6221)">
			<stop  offset="0" style="stop-color:#BA901B"/>
			<stop  offset="0.48" style="stop-color:#F1D67F"/>
			<stop  offset="1" style="stop-color:#BA901B"/>
		</linearGradient>
		<path class="st0" d="M68.2,37.2c-2.1,0.5-4.2,1-6.2,1.6l-0.2-0.1c-0.2-0.1-1.5-0.7-3.8-1.5L68.2,37.2z"/>
		
			<linearGradient id="SVGID_00000168113727184120531940000003100080111159538574_" gradientUnits="userSpaceOnUse" x1="28.4105" y1="23.8213" x2="107.9905" y2="77.1613" gradientTransform="matrix(1 0 0 -1 0 81.6221)">
			<stop  offset="0" style="stop-color:#BA901B"/>
			<stop  offset="0.48" style="stop-color:#F1D67F"/>
			<stop  offset="1" style="stop-color:#BA901B"/>
		</linearGradient>
		<path style="fill:url(#SVGID_00000168113727184120531940000003100080111159538574_);" d="M94.3,31.9c-6.9,1.1-13.6,2.4-20,3.9
			H53.9c-3.6-1.2-8.4-2.6-14-3.8l0,0L94.3,31.9z"/>
		
			<linearGradient id="SVGID_00000064331251156662970450000007294293754257929131_" gradientUnits="userSpaceOnUse" x1="11.5893" y1="17.8133" x2="123.2893" y2="92.6733" gradientTransform="matrix(1 0 0 -1 0 81.6221)">
			<stop  offset="0" style="stop-color:#BA901B"/>
			<stop  offset="0.48" style="stop-color:#F1D67F"/>
			<stop  offset="1" style="stop-color:#BA901B"/>
		</linearGradient>
		<path style="fill:url(#SVGID_00000064331251156662970450000007294293754257929131_);" d="M106.5,30H29.8c-2.6-0.4-5.3-0.7-8.1-1
			c0.3-0.8,0.6-1.6,1-2.4h82.4C105.6,27.7,106.1,28.8,106.5,30z"/>
		
			<linearGradient id="SVGID_00000080194232754296960430000007552693852023098758_" gradientUnits="userSpaceOnUse" x1="8.0641" y1="20.8959" x2="121.1341" y2="96.6859" gradientTransform="matrix(1 0 0 -1 0 81.6221)">
			<stop  offset="0" style="stop-color:#BA901B"/>
			<stop  offset="0.48" style="stop-color:#F1D67F"/>
			<stop  offset="1" style="stop-color:#BA901B"/>
		</linearGradient>
		<path style="fill:url(#SVGID_00000080194232754296960430000007552693852023098758_);" d="M102.3,21.2H25.5c-0.6,1-1.2,2-1.7,3H104
			C103.5,23.2,102.9,22.2,102.3,21.2z"/>
		
			<linearGradient id="SVGID_00000083067567768068841240000014819740251132633279_" gradientUnits="userSpaceOnUse" x1="5.5492" y1="24.6533" x2="118.6192" y2="100.4333" gradientTransform="matrix(1 0 0 -1 0 81.6221)">
			<stop  offset="0" style="stop-color:#BA901B"/>
			<stop  offset="0.48" style="stop-color:#F1D67F"/>
			<stop  offset="1" style="stop-color:#BA901B"/>
		</linearGradient>
		<path style="fill:url(#SVGID_00000083067567768068841240000014819740251132633279_);" d="M98.5,15.9H29.3c-0.7,0.8-1.4,1.7-2,2.5
			h73.2C99.8,17.6,99.2,16.8,98.5,15.9z"/>
		
			<linearGradient id="SVGID_00000150079159568241500370000009822132482282149052_" gradientUnits="userSpaceOnUse" x1="3.0389" y1="28.3937" x2="116.1089" y2="104.1737" gradientTransform="matrix(1 0 0 -1 0 81.6221)">
			<stop  offset="0" style="stop-color:#BA901B"/>
			<stop  offset="0.48" style="stop-color:#F1D67F"/>
			<stop  offset="1" style="stop-color:#BA901B"/>
		</linearGradient>
		<path style="fill:url(#SVGID_00000150079159568241500370000009822132482282149052_);" d="M93.2,10.6H34.5
			c-0.8,0.7-1.5,1.4-2.3,2.1h63.3C94.8,12,94,11.3,93.2,10.6z"/>
		
			<linearGradient id="SVGID_00000165227979726839895250000013624433827495900554_" gradientUnits="userSpaceOnUse" x1="0.5102" y1="32.1617" x2="113.5902" y2="107.9417" gradientTransform="matrix(1 0 0 -1 0 81.6221)">
			<stop  offset="0" style="stop-color:#BA901B"/>
			<stop  offset="0.48" style="stop-color:#F1D67F"/>
			<stop  offset="1" style="stop-color:#BA901B"/>
		</linearGradient>
		<path style="fill:url(#SVGID_00000165227979726839895250000013624433827495900554_);" d="M85.6,5.3H42.2c-1,0.5-1.9,1.1-2.8,1.7
			h49C87.5,6.4,86.5,5.8,85.6,5.3z"/>
		
			<linearGradient id="SVGID_00000049219349174521801030000000585268851736765589_" gradientUnits="userSpaceOnUse" x1="-2.1459" y1="36.1159" x2="110.9341" y2="111.9059" gradientTransform="matrix(1 0 0 -1 0 81.6221)">
			<stop  offset="0" style="stop-color:#BA901B"/>
			<stop  offset="0.48" style="stop-color:#F1D67F"/>
			<stop  offset="1" style="stop-color:#BA901B"/>
		</linearGradient>
		<path style="fill:url(#SVGID_00000049219349174521801030000000585268851736765589_);" d="M68.6,0h-9.4c-2.3,0.2-4.6,0.7-6.8,1.2
			h23C73.2,0.7,70.9,0.2,68.6,0z"/>
		<path class="st8" d="M1.6,67.1v-2.5c0-1.7,0-2.8,0-3c0-0.2-0.1-0.5-0.2-0.6c-0.1-0.1-0.3-0.2-0.5-0.2c-0.2,0-0.3,0-0.5,0
			c-0.1,0-0.2,0-0.2-0.1c0-0.1,0.1-0.1,0.3-0.1h0.8H2h0.3h0.8h1c0.6,0,1.1,0.1,1.7,0.2c0.4,0.1,0.7,0.3,1,0.6
			C7,61.6,7.1,61.8,7.3,62c0.1,0.2,0.1,0.4,0.2,0.6c0,0.3-0.1,0.7-0.3,1c-0.1,0.3-0.3,0.5-0.5,0.8c-0.2,0.2-0.4,0.4-0.8,0.7
			c0.7,0.2,1.4,0.6,2,1.1c0.6,0.5,0.9,1.2,0.9,1.9c0,0.9-0.4,1.7-1.1,2.2c-0.9,0.7-2,1-3.1,0.9H4.2H3.8H3.3h-1H1.5H0.7
			c-0.2,0-0.3,0-0.3-0.1S0.5,71,0.7,71c0.1,0,0.3,0,0.4,0c0.2,0,0.4-0.3,0.5-0.8S1.6,68.8,1.6,67.1z M2.9,61.2V65
			c0,0.1,0,0.1,0.1,0.2c0.3,0,0.7,0.1,1,0.1c0.3,0,0.7,0,1-0.1c0.2-0.1,0.4-0.2,0.5-0.3C6,64.5,6.2,64,6.2,63.4
			c0-0.6-0.2-1.2-0.6-1.7c-0.4-0.5-1-0.8-1.7-0.7c-0.3,0-0.5,0-0.8,0.1C3,61,2.9,61.1,2.9,61.2z M2.9,65.6v0.8c0,1.9,0,2.9,0,3
			C3,69.6,3,69.8,3,70c0,0.1,0.1,0.2,0.1,0.3c0.1,0.1,0.2,0.2,0.4,0.2c0.5,0.2,1,0.3,1.5,0.2c0.3,0,0.5,0,0.8-0.1
			c0.3-0.1,0.5-0.2,0.8-0.3C6.8,70.2,7,70,7.1,69.8c0.2-0.3,0.2-0.7,0.2-1c0-0.5-0.1-1-0.4-1.5c-0.3-0.5-0.7-1-1.3-1.2
			c-0.4-0.2-0.9-0.4-1.4-0.4C4.2,65.6,3.8,65.6,2.9,65.6C3,65.5,2.9,65.6,2.9,65.6z"/>
		<path class="st8" d="M4.5,71.4H4.2H3.8H3.3h-1H1.5c-0.4,0-0.6,0-0.8,0s-0.4-0.1-0.4-0.2s0.1-0.2,0.4-0.2c0.1,0,0.2,0,0.4,0
			c0.2,0,0.3-0.4,0.4-0.7c0.1-1,0.1-2,0.1-3v-2.6c0-1.7,0-2.7,0-3c0-0.2-0.1-0.3-0.1-0.5C1.2,61.1,1,61,0.9,61c-0.2,0-0.3,0-0.5,0
			C0.1,61,0,60.9,0,60.7s0.1-0.2,0.4-0.2h0.7H2h0.3h0.8c0.4,0,0.8,0,1.1,0c0.6,0,1.2,0.1,1.7,0.2c0.4,0.1,0.8,0.3,1.1,0.6
			c0.2,0.2,0.4,0.5,0.5,0.7c0.1,0.2,0.2,0.5,0.2,0.7c0,0.4-0.1,0.8-0.3,1.1c-0.1,0.3-0.3,0.6-0.6,0.8c-0.1,0.1-0.3,0.3-0.6,0.6
			c0.7,0.2,1.3,0.6,1.8,1c0.6,0.5,1,1.2,0.9,2c0,0.9-0.5,1.7-1.2,2.3C6.8,71.1,5.7,71.5,4.5,71.4z M3.3,71.1h0.5h0.5h0.3
			c1.1,0.1,2.2-0.2,3-0.9c0.6-0.5,1-1.2,1.1-2c0-0.7-0.3-1.4-0.8-1.8c-0.6-0.5-1.2-0.8-1.9-1l-0.3-0.1l0.2-0.2
			c0.3-0.3,0.6-0.6,0.8-0.7c0.2-0.2,0.4-0.5,0.5-0.7c0.2-0.3,0.2-0.7,0.2-1c0-0.2,0-0.4-0.1-0.6c-0.1-0.2-0.3-0.4-0.5-0.6
			c-0.3-0.3-0.6-0.5-1-0.5c-0.5-0.2-1.1-0.2-1.6-0.2H3H2.3H2H1.2H1.1c0.2,0.1,0.3,0.2,0.4,0.3c0.1,0.2,0.2,0.4,0.2,0.6
			c0,0.3,0,1.3,0,3.1v2.5c0,1,0,2.1-0.1,3.1c0,0.3-0.2,0.6-0.4,0.8h0.2h0.8C2.5,71.1,2.8,71.1,3.3,71.1L3.3,71.1z M5,70.9
			c-0.5,0-1-0.1-1.5-0.2c-0.2,0-0.3-0.1-0.5-0.3c-0.1-0.1-0.1-0.2-0.2-0.4c0-0.2,0-0.4-0.1-0.6c0-0.1,0-0.5,0-3v-0.8
			c0-0.1,0-0.3,0.2-0.3c0,0,0,0,0.1,0c0.7,0,1.2,0,1.3,0c0.5,0,1,0.2,1.4,0.4c0.6,0.3,1,0.8,1.3,1.3c0.3,0.5,0.4,1,0.4,1.6
			c0,0.3-0.1,0.7-0.2,1C7,70,6.8,70.3,6.5,70.4c-0.2,0.1-0.5,0.3-0.8,0.3C5.5,70.8,5.3,70.9,5,70.9z M3.1,65.7v0.8c0,1.9,0,2.9,0,3
			c0,0.3,0,0.5,0,0.6c0,0.1,0.1,0.2,0.1,0.2c0.1,0.1,0.2,0.2,0.3,0.2c0.5,0.2,0.9,0.2,1.4,0.2c0.2,0,0.5,0,0.7-0.1
			c0.3-0.1,0.5-0.2,0.7-0.3c0.3-0.1,0.5-0.3,0.6-0.5c0.1-0.3,0.2-0.6,0.2-0.9c0-0.5-0.1-1-0.4-1.5c-0.3-0.5-0.7-0.9-1.2-1.2
			c-0.4-0.2-0.9-0.4-1.3-0.4C4.2,65.7,3.9,65.7,3.1,65.7z M4.1,65.3c-0.3,0-0.7,0-1,0H3c-0.1,0-0.2-0.2-0.2-0.3v-3.8
			c0-0.1,0-0.2,0.3-0.3c0.3-0.1,0.6-0.1,0.8-0.1c0.7,0,1.4,0.2,1.8,0.8c0.4,0.5,0.6,1.2,0.6,1.8c0,0.6-0.2,1.1-0.7,1.5
			c-0.2,0.2-0.4,0.3-0.6,0.3C4.8,65.3,4.4,65.3,4.1,65.3L4.1,65.3z M3.1,61.2V65c0.3,0,0.7,0.1,1,0.1c0.3,0,0.6,0,0.9-0.1
			c0.2-0.1,0.3-0.1,0.4-0.3C5.8,64.4,6,63.9,6,63.4c0-0.6-0.2-1.2-0.5-1.6c-0.4-0.5-1-0.7-1.6-0.7C3.6,61.1,3.4,61.2,3.1,61.2
			L3.1,61.2z"/>
		<path class="st8" d="M13.4,64.6v2c0,0.7,0.1,1.5,0.3,2.2c0.2,0.5,0.5,0.9,0.9,1.3c0.3,0.3,0.7,0.5,1.1,0.6
			c0.4,0.1,0.9,0.2,1.4,0.2c0.5,0,1-0.1,1.5-0.3c0.4-0.2,0.8-0.4,1.2-0.7c0.8-1,1.1-2.2,1-3.4v-1.8c0-1.7,0-2.8,0-3
			c0-0.2-0.1-0.4-0.2-0.5c-0.1-0.1-0.3-0.2-0.5-0.2c-0.2,0-0.4,0-0.6,0c-0.1,0-0.1,0-0.1-0.1s0.1-0.1,0.3-0.1h0.8h0.7h0.3H22h0.8
			c0.2,0,0.3,0,0.3,0.1s0,0.1-0.1,0.1c-0.1,0-0.3,0-0.4,0c-0.2,0-0.3,0.1-0.5,0.2c-0.1,0.2-0.2,0.4-0.2,0.6c0,0.3,0,1.3,0,3v1.5
			c0,0.8-0.1,1.7-0.3,2.5c-0.2,0.7-0.6,1.3-1.2,1.7c-1,0.7-2.2,1.1-3.4,1c-1.2,0.1-2.4-0.3-3.4-1c-1.1-0.9-1.6-2.3-1.5-3.7v-2
			c0-1.7,0-2.8,0-3c0-0.2-0.1-0.4-0.2-0.5c-0.1-0.1-0.3-0.2-0.6-0.2c-0.2,0-0.4,0-0.6,0c-0.1,0-0.1,0-0.1-0.1s0.1-0.1,0.3-0.1H12
			h0.7h0.7h1c0.2,0,0.3,0,0.3,0.1s0,0.1-0.1,0.1c-0.1,0-0.3,0-0.4,0c-0.2,0-0.3,0.1-0.4,0.2c-0.1,0.2-0.2,0.4-0.2,0.6
			C13.4,61.9,13.4,62.9,13.4,64.6z"/>
		<path class="st8" d="M16.9,71.5c-1.3,0.1-2.5-0.3-3.5-1c-1.1-1-1.6-2.4-1.5-3.8v-2c0-1.7,0-2.7,0-3c0-0.2-0.1-0.3-0.1-0.5
			c-0.1-0.1-0.3-0.2-0.4-0.2c-0.2,0-0.4,0-0.5,0c-0.2,0-0.3-0.1-0.3-0.2s0.1-0.2,0.4-0.2H12h0.7h0.7c0.4,0,0.8,0,1,0
			c0.4,0,0.4,0.1,0.4,0.2c0,0.1-0.1,0.2-0.3,0.2c0,0,0,0,0,0c-0.1,0-0.3,0-0.4,0c-0.1,0-0.3,0.1-0.4,0.2c-0.1,0.2-0.1,0.3-0.1,0.5
			c0,0.3,0,1.3,0,3v2c0,0.7,0.1,1.5,0.3,2.1c0.2,0.4,0.4,0.8,0.8,1.1c0.3,0.3,0.7,0.5,1.1,0.6c0.4,0.1,0.9,0.2,1.3,0.2
			c0.5,0,1-0.1,1.4-0.3c0.4-0.2,0.8-0.4,1.1-0.7c0.7-1,1-2.1,0.9-3.3v-1.8c0-1.7,0-2.7,0-3c0-0.2,0-0.3-0.1-0.5
			c-0.1-0.1-0.3-0.2-0.5-0.2c-0.2,0-0.4,0-0.5,0c-0.1,0-0.3-0.1-0.3-0.2c0,0,0,0,0,0c0-0.1,0.1-0.2,0.4-0.2h0.8h0.7h0.3H22
			c0.4,0,0.6,0,0.9,0s0.4,0.1,0.4,0.2S23.2,61,23,61c-0.1,0-0.3,0-0.4,0c-0.1,0-0.3,0.1-0.4,0.2c-0.1,0.2-0.1,0.3-0.1,0.5
			c0,0.3,0,1.3,0,3v1.5c0,0.8-0.1,1.7-0.3,2.5c-0.2,0.7-0.7,1.4-1.3,1.8C19.4,71.2,18.2,71.6,16.9,71.5z M11.5,60.7
			c0.2,0,0.3,0.1,0.4,0.2c0.1,0.2,0.2,0.4,0.2,0.6c0,0.3,0,1.3,0,3.1v2c-0.1,1.3,0.4,2.7,1.4,3.6c1,0.7,2.2,1.1,3.4,1
			c1.2,0,2.4-0.3,3.4-1c0.6-0.4,1-1,1.2-1.7c0.2-0.8,0.3-1.6,0.3-2.4v-1.5c0-1.8,0-2.8,0-3.1c0-0.2,0.1-0.4,0.2-0.6
			c0.1-0.1,0.2-0.2,0.3-0.2H22h-0.6h-0.3h-0.7h0c0.2,0,0.3,0.1,0.4,0.2c0.1,0.2,0.2,0.4,0.2,0.6c0,0.3,0,1.3,0,3.1v1.8
			c0.1,1.3-0.2,2.5-1,3.6c-0.3,0.3-0.8,0.6-1.2,0.8c-0.5,0.2-1,0.3-1.5,0.3c-0.5,0-0.9-0.1-1.4-0.2c-0.4-0.1-0.8-0.3-1.2-0.6
			c-0.4-0.3-0.8-0.8-1-1.3c-0.3-0.7-0.4-1.5-0.3-2.3v-2c0-1.8,0-2.8,0-3.1c0-0.2,0.1-0.5,0.2-0.7c0.1-0.1,0.2-0.2,0.3-0.2h-0.4h-0.7
			h-0.7L11.5,60.7z"/>
		<path class="st8" d="M27.6,71.4c-0.8,0-1.5-0.1-2.2-0.4c-0.1,0-0.2-0.1-0.2-0.2c0-0.1,0-0.3,0-0.4c0-0.2,0-0.7,0.1-1.5
			c0-0.2,0-0.2,0.1-0.2s0.1,0,0.1,0.2c0,0.2,0,0.3,0,0.5c0.1,0.5,0.4,0.9,0.9,1.1c0.5,0.2,1,0.4,1.6,0.3c0.6,0,1.3-0.2,1.8-0.6
			c0.4-0.3,0.6-0.8,0.6-1.3c0-0.4-0.1-0.9-0.4-1.2c-0.4-0.5-0.9-0.9-1.5-1.3l-0.8-0.5c-0.7-0.4-1.3-0.9-1.7-1.6
			c-0.3-0.4-0.5-1-0.5-1.5c0-0.7,0.3-1.4,0.9-1.8c0.7-0.5,1.6-0.7,2.5-0.7c0.5,0,1,0,1.6,0.2c0.2,0,0.4,0.1,0.6,0.1
			c0.1,0,0.2,0,0.2,0.1v0.2c0,0.1,0,0.3,0,0.5s0,0.5,0,0.8s0,0.3-0.1,0.3S31,62.4,31,62.3c0-0.2-0.1-0.5-0.2-0.7
			c-0.5-0.6-1.3-0.9-2.1-0.7c-0.5,0-1,0.1-1.5,0.4c-0.4,0.3-0.6,0.7-0.6,1.2c0,0.4,0.1,0.8,0.4,1.1c0.5,0.5,1,0.9,1.6,1.3l0.5,0.3
			c0.7,0.4,1.4,1,1.9,1.7c0.3,0.5,0.5,1.1,0.5,1.6c0,0.4-0.1,0.8-0.3,1.2c-0.2,0.5-0.6,0.9-1.1,1.1C29.4,71.2,28.5,71.4,27.6,71.4z"
			/>
		<path class="st8" d="M27.6,71.5c-0.8,0-1.6-0.1-2.3-0.4c-0.1,0-0.2-0.1-0.3-0.2C25,70.8,25,70.6,25,70.5c0-0.2,0-0.8,0.1-1.5
			c0-0.3,0.2-0.4,0.3-0.4c0.1,0,0.3,0.1,0.3,0.3c0,0,0,0,0,0c0,0.2,0,0.3,0,0.5c0.1,0.4,0.4,0.8,0.8,1c0.5,0.2,1,0.3,1.5,0.3
			c0.6,0,1.2-0.1,1.7-0.5c0.4-0.3,0.6-0.7,0.6-1.2c0-0.4-0.1-0.8-0.4-1.2c-0.4-0.5-0.9-0.9-1.5-1.3l-0.8-0.5c-0.7-0.4-1.3-1-1.8-1.6
			c-0.3-0.5-0.5-1-0.5-1.6c0-0.8,0.3-1.5,1-2c0.8-0.5,1.7-0.8,2.6-0.7c0.5,0,1.1,0,1.6,0.1c0.2,0,0.4,0.1,0.6,0.1
			c0.3,0,0.3,0.2,0.3,0.2v0.2c0,0.1,0,0.3,0,0.5s0,0.5,0,0.8s-0.1,0.5-0.3,0.5s-0.2,0-0.3-0.3c0-0.2-0.1-0.4-0.2-0.7
			c-0.3-0.5-1-0.7-2-0.7c-0.5,0-1,0.1-1.4,0.4c-0.3,0.2-0.5,0.6-0.5,1.1c0,0.4,0.1,0.7,0.4,1c0.5,0.5,1,0.9,1.6,1.2l0.5,0.3
			c0.8,0.5,1.4,1,2,1.7c0.3,0.5,0.5,1.1,0.5,1.7c0,0.4-0.1,0.9-0.3,1.3c-0.3,0.5-0.7,0.9-1.1,1.2C29.5,71.4,28.6,71.6,27.6,71.5z
			 M25.3,69.3c0,0.6-0.1,1-0.1,1.2c0,0.1,0,0.2,0,0.3c0,0,0,0,0.1,0.1c0.7,0.3,1.4,0.4,2.2,0.4c0.9,0,1.7-0.2,2.5-0.6
			c0.4-0.3,0.8-0.6,1-1.1c0.2-0.4,0.3-0.7,0.3-1.2c0-0.6-0.2-1.1-0.5-1.6c-0.5-0.7-1.2-1.2-1.9-1.6L28.6,65
			c-0.6-0.4-1.2-0.8-1.6-1.3c-0.3-0.3-0.5-0.8-0.5-1.2c0-0.5,0.2-1,0.6-1.3c0.5-0.3,1-0.5,1.6-0.5c0.8-0.1,1.7,0.2,2.2,0.8
			c0.1,0.2,0.2,0.3,0.2,0.5c0-0.2,0-0.5,0-0.7s0-0.4,0-0.5v-0.1l0,0c-0.2,0-0.4,0-0.6-0.1c-0.5-0.1-1-0.2-1.5-0.2
			c-0.9,0-1.7,0.2-2.4,0.7c-0.6,0.4-0.9,1-0.9,1.7c0,0.5,0.2,1,0.4,1.4c0.5,0.6,1,1.1,1.7,1.5l0.8,0.5c0.6,0.4,1.1,0.8,1.5,1.3
			c0.3,0.4,0.5,0.8,0.5,1.3c0,0.6-0.3,1.1-0.7,1.4C29.3,70.8,28.7,71,28,71c-0.6,0-1.2-0.1-1.7-0.4c-0.5-0.2-0.8-0.7-0.9-1.2
			C25.4,69.4,25.4,69.3,25.3,69.3z"/>
		<path class="st8" d="M35.7,67.1v-2.5c0-1.7,0-2.8,0-3c0-0.5-0.2-0.7-0.6-0.8c-0.2,0-0.3-0.1-0.5-0.1c-0.1,0-0.1,0-0.1-0.1
			s0.1-0.1,0.3-0.1h0.7h0.7h0.7h0.7H38c0.2,0,0.3,0,0.3,0.1s0,0.1-0.1,0.1c-0.1,0-0.3,0-0.4,0c-0.2,0-0.3,0.1-0.5,0.2
			c-0.1,0.2-0.1,0.4-0.2,0.6c0,0.3,0,1.3,0,3v2.5c0,1,0,2,0.1,3.1c0,0.2,0.1,0.4,0.2,0.5c0.1,0.1,0.3,0.2,0.5,0.2
			c0.2,0,0.5,0.1,0.7,0.1c0.1,0,0.2,0,0.2,0.1s-0.1,0.1-0.2,0.1h-0.9h-0.8h-0.3h-0.3h-0.7h-0.6c-0.2,0-0.3,0-0.3-0.1
			s0.1-0.1,0.2-0.1c0.1,0,0.3,0,0.4,0c0.3,0,0.4-0.3,0.5-0.8S35.7,68.8,35.7,67.1z"/>
		<path class="st8" d="M38.5,71.3h-0.9h-0.8h-0.3h-0.3h-0.7h-0.6c-0.3,0-0.4-0.1-0.4-0.3s0-0.2,0.3-0.2c0.1,0,0.3,0,0.4,0
			c0.2,0,0.3-0.3,0.4-0.7s0.1-1.4,0.1-3v-2.5c0-1.7,0-2.7,0-3c0-0.5-0.3-0.6-0.5-0.7c-0.2,0-0.3-0.1-0.5,0c-0.2,0-0.3-0.1-0.3-0.2
			s0.1-0.2,0.4-0.2h0.7h0.7h0.3h0.3h0.7H38c0.3,0,0.4,0.1,0.4,0.2s-0.1,0.2-0.3,0.2c-0.1,0-0.3,0-0.4,0c-0.1,0-0.3,0.1-0.4,0.2
			c-0.1,0.2-0.1,0.3-0.1,0.5c0,0.3,0,1.3,0,3v2.5c0,1.6,0,2.7,0.1,3c0,0.2,0.1,0.3,0.2,0.5c0.1,0.1,0.2,0.2,0.4,0.2
			c0.3,0,0.5,0,0.7,0c0.3,0,0.3,0.2,0.3,0.2S38.8,71.3,38.5,71.3z M36.4,71h0.3h0.8l0,0c-0.1,0-0.3-0.1-0.4-0.2
			c-0.1-0.2-0.2-0.4-0.2-0.6c-0.1-0.4-0.1-1.4-0.1-3.1v-2.4c0-1.8,0-2.8,0-3.1c0-0.2,0.1-0.4,0.2-0.6c0.1-0.1,0.2-0.2,0.3-0.2h-0.1
			h-0.7H36h-0.7h-0.1c0.3,0.2,0.5,0.5,0.5,0.9c0,0.3,0,1.3,0,3.1v2.5c0,1,0,2.1-0.1,3.1c0,0.3-0.2,0.6-0.4,0.8l0,0h0.7L36.4,71z"/>
		<path class="st8" d="M42.5,69.1v-5.3c0-0.7,0-1.1,0-1.1v-1.6c0-0.5,0.1-0.7,0.2-0.7c0.1,0,0.1,0,0.2,0.1c0.1,0.1,0.2,0.1,0.2,0.2
			l0.2,0.2c0.4,0.4,2.2,2,5.3,4.8c0.6,0.5,1.3,1.2,2.3,2.1s1.5,1.4,1.7,1.6l-0.2-7.2c0-0.3,0-0.7-0.1-1c-0.1-0.2-0.3-0.3-0.5-0.4
			c-0.2,0-0.5-0.1-0.7-0.1c-0.2,0-0.2,0-0.2-0.1s0.1-0.1,0.3-0.1h1.1h0.7h0.5h0.9c0.2,0,0.3,0,0.3,0.1s-0.1,0.1-0.2,0.1L54,60.8
			c-0.2,0-0.4,0.1-0.5,0.3c-0.1,0.3-0.2,0.7-0.1,1v8.2c0,0.2,0,0.4,0,0.6s0,0.2,0,0.3c0,0,0,0.1,0,0.1c0,0,0,0-0.1,0
			c-0.5-0.2-0.9-0.5-1.3-0.9l-0.8-0.7l-1.7-1.5c-0.7-0.6-1.3-1.2-1.8-1.7c-1.6-1.4-3-2.8-4.4-4l0.2,6.7c0,0.4,0,0.8,0.2,1.2
			c0.1,0.2,0.3,0.4,0.5,0.4c0.3,0,0.6,0.1,0.8,0c0.1,0,0.1,0,0.1,0.1s-0.1,0.1-0.3,0.1H44h-0.7h-0.3h-0.6h-1c-0.2,0-0.3,0-0.3-0.1
			s0-0.1,0.1-0.1c0.2,0,0.5,0,0.7-0.1c0.2-0.1,0.4-0.2,0.4-0.4C42.5,70,42.5,69.6,42.5,69.1z"/>
		<path class="st8" d="M53.2,71.4c-0.1,0-0.2,0-1.3-0.9l-0.8-0.7c-0.5-0.4-1-0.9-1.7-1.5s-1.3-1.2-1.8-1.7c-1.5-1.3-2.8-2.6-4.1-3.8
			l0.2,6.4c0,0.4,0,0.8,0.2,1.2c0.1,0.2,0.2,0.3,0.4,0.3c0.3,0.1,0.5,0.1,0.8,0.1c0.2,0,0.3,0.1,0.3,0.2s-0.2,0.3-0.4,0.3H44h-0.7
			h-0.3h-0.6h-1.1c-0.3,0-0.4-0.1-0.4-0.3s0.1-0.2,0.3-0.2c0.2,0,0.4,0,0.6-0.1c0.1,0,0.2-0.1,0.3-0.3c0.1-0.4,0.1-0.9,0.1-1.3V67
			c0-1.4,0-2.5,0-3.2v-0.5c0-0.4,0-0.6,0-0.6v-1.6c0-0.4,0-0.8,0.3-0.8c0.1,0,0.2,0,0.2,0.1l0.3,0.2l0.2,0.2c0.4,0.4,2.2,2,5.3,4.8
			c0.6,0.5,1.3,1.2,2.3,2.1l1.5,1.3l-0.2-6.8c0-0.3,0-0.6-0.1-0.9c-0.1-0.2-0.2-0.3-0.4-0.3c-0.2,0-0.5-0.1-0.7-0.1
			c-0.3,0-0.4-0.2-0.4-0.2s0.3-0.2,0.5-0.2c0.3,0,0.7,0,1.1,0h0.6h0.5c0.3,0,0.6,0,0.9,0c0.1,0,0.5,0,0.5,0.2s-0.1,0.2-0.3,0.2
			L54,61c-0.1,0-0.3,0.1-0.3,0.2c-0.1,0.3-0.1,0.6-0.1,0.9v8.2c0,0.2,0,0.4,0,0.6c0,0.1,0,0.2,0,0.3c0,0.1,0,0.1-0.1,0.2
			C53.4,71.5,53.3,71.5,53.2,71.4z M43.1,62.2l0.3,0.2c1.3,1.3,2.8,2.6,4.4,4l1.8,1.7c0.7,0.6,1.3,1.1,1.7,1.5s0.7,0.6,0.8,0.7
			c0.3,0.3,0.7,0.6,1.1,0.8l0,0c0-0.1,0-0.2,0-0.3c0-0.1,0-0.3,0-0.5V62c0-0.3,0-0.7,0.1-1c0.1-0.2,0.2-0.3,0.4-0.3h-0.4h-0.5h-0.7
			h-0.3c0.2,0.1,0.4,0.2,0.5,0.4c0.1,0.3,0.2,0.7,0.2,1l0.2,7.5l-0.2-0.2c-0.2-0.1-0.7-0.7-1.7-1.6l-2.3-2.1
			c-3.1-2.8-4.9-4.4-5.3-4.8L43,60.7l-0.2-0.2l0,0c-0.1,0.2-0.1,0.4-0.1,0.5v1.6c0,0,0,0.2,0,0.6v0.5c0,0.7,0,1.8,0,3.2v2.1
			c0,0.5,0,0.9-0.1,1.4c-0.1,0.2-0.2,0.4-0.5,0.5h0.4l0.5,0h0.3H44h0.1c-0.3-0.1-0.5-0.3-0.5-0.5c-0.1-0.4-0.2-0.8-0.2-1.3
			L43.1,62.2z"/>
		<path class="st8" d="M58.9,67.1v-2.5c0-1.7,0-2.8,0-3c0-0.2-0.1-0.4-0.2-0.5c-0.1-0.1-0.3-0.2-0.5-0.2H58h-0.4
			c-0.1,0-0.2,0-0.2-0.1c0-0.1,0.1-0.1,0.3-0.1c0.6,0,1.2,0,1.9,0h3.8c0.3,0,0.5,0,0.8-0.1c0.1,0,0.1-0.1,0.2-0.1c0,0,0.1,0,0.1,0.1
			c0,0.1,0,0.2-0.1,0.2c0,0.1-0.1,0.3-0.1,0.4l-0.1,0.8c0,0.2-0.1,0.2-0.1,0.2S64,62.3,64,62.2c0-0.2,0-0.3-0.1-0.5
			c-0.1-0.3-0.5-0.5-1.2-0.5c-0.3,0-1,0-2.3,0c-0.1,0-0.1,0-0.1,0.1v3.9c0,0.1,0,0.1,0.1,0.1c1.5,0,2.4,0,2.7,0
			c0.3,0,0.6-0.1,0.8-0.2C64,65,64,65,64.1,65s0.1,0,0.1,0.1c0,0,0,0.1,0,0.1c0,0.1,0,0.2-0.1,0.3s0,0.2,0,0.4s0,0.4,0,0.6
			s0,0.3,0,0.4S64,67.1,64,67.1s-0.1-0.1-0.1-0.2c0-0.1,0-0.3-0.1-0.4c-0.1-0.3-0.4-0.4-0.9-0.5s-1.3-0.1-2.4-0.1
			c-0.1,0-0.1,0-0.1,0.1v3.7c0,0.2,0.1,0.5,0.2,0.7c0.1,0.2,0.2,0.3,0.4,0.3c0.5,0.1,0.9,0.1,1.4,0.1c0.5,0,1,0,1.5-0.1
			c0.2,0,0.4-0.2,0.6-0.3c0.1-0.2,0.2-0.5,0.3-0.7c0-0.1,0.1-0.2,0.2-0.2s0.1,0.1,0.1,0.2s0,0.3-0.1,0.6s-0.1,0.6-0.1,0.7
			s-0.1,0.3-0.2,0.3c-0.2,0-0.4,0-0.7,0h-2.4h-2.1h-0.6c-0.2,0-0.4,0-0.7,0c-0.2,0-0.3,0-0.3-0.1c0-0.1,0.1-0.1,0.2-0.1h0.4
			c0.2,0,0.4-0.2,0.4-0.3c0.1-0.3,0.2-0.7,0.2-1C58.9,69,58.9,68.1,58.9,67.1z"/>
		<path class="st8" d="M63.7,71.4h-2.4h-2.1h-0.6c-0.2,0-0.4,0-0.7,0l0,0c-0.3,0-0.4-0.1-0.4-0.3s0.2-0.2,0.3-0.2h0.4
			c0.1,0,0.3-0.1,0.3-0.2c0.1-0.3,0.2-0.6,0.1-0.9c0-0.7,0-1.6,0-2.5v-2.6c0-1.7,0-2.7,0-3c0-0.2-0.1-0.3-0.1-0.5
			c-0.1-0.1-0.3-0.2-0.5-0.2c0,0-0.1,0-0.1,0h-0.2h-0.2c-0.1,0-0.4,0-0.4-0.2s0.1-0.2,0.4-0.2c0.6,0,1.2,0,1.9,0c2.3,0,3.6,0,3.8,0
			c0.2,0,0.5,0,0.7-0.1c0.1,0,0.2-0.1,0.2-0.1c0,0,0.2,0,0.2,0.3c0,0.1,0,0.2-0.1,0.3c0,0.1-0.1,0.3-0.1,0.4l-0.1,0.8
			c0,0.3-0.1,0.4-0.3,0.4s-0.3-0.1-0.3-0.3c0-0.1,0-0.3-0.1-0.4c-0.1-0.2-0.5-0.4-1.1-0.4c-0.3,0-1,0-2.2,0v3.9c1.5,0,2.3,0,2.6,0
			c0.5,0,0.7-0.1,0.7-0.2s0.2-0.2,0.3-0.2c0.1,0,0.2,0.1,0.2,0.2c0,0,0,0,0,0c0,0.1,0,0.1,0,0.2c0,0.1,0,0.2,0,0.3s0,0.2,0,0.4
			s0,0.4-0.1,0.6s0,0.3,0,0.3c0,0.2-0.1,0.4-0.3,0.4s-0.3,0-0.3-0.4c0-0.1,0-0.2-0.1-0.3c-0.1-0.2-0.3-0.3-0.8-0.4S61.6,66,60.6,66
			v3.6c0,0.2,0,0.4,0.1,0.6c0.1,0.1,0.2,0.2,0.3,0.2c0.4,0.1,0.9,0.1,1.3,0.1c0.5,0,1,0,1.5-0.1c0.2,0,0.4-0.1,0.5-0.3
			c0.1-0.2,0.2-0.4,0.2-0.7c0.1-0.3,0.2-0.3,0.3-0.3s0.2,0,0.2,0.4c0,0,0,0.2-0.1,0.7s-0.1,0.6-0.1,0.8c0,0.2-0.2,0.3-0.3,0.4
			C64.3,71.5,64,71.5,63.7,71.4z M59.2,71h2.1h2.4c0.2,0,0.4,0,0.6,0c0,0,0.1-0.1,0.1-0.2s0.1-0.4,0.1-0.7c0-0.1,0-0.2,0-0.3
			c0,0.2-0.1,0.3-0.2,0.5c-0.2,0.2-0.4,0.3-0.7,0.4c-0.5,0.1-1,0.1-1.5,0.1c-0.5,0-1,0-1.4-0.1c-0.2-0.1-0.4-0.2-0.5-0.4
			c-0.1-0.2-0.1-0.5-0.2-0.8v-3.6c0-0.1,0.1-0.2,0.2-0.2c0,0,0,0,0,0c1.1,0,1.9,0,2.4,0.1s0.9,0.2,1,0.6v0.1l0,0c0-0.2,0-0.4,0-0.6
			s0-0.3,0-0.4s0-0.2,0-0.3l0,0c-0.3,0.2-0.6,0.3-0.9,0.3c-0.3,0-1.1,0-2.7,0c-0.1,0-0.2-0.1-0.2-0.3v-3.9c0-0.2,0.1-0.3,0.2-0.3
			c1.3,0,2,0,2.3,0c0.8,0.1,1.2,0.3,1.3,0.6c0,0.1,0.1,0.2,0.1,0.3l0.1-0.7c0-0.2,0-0.3,0.1-0.5c0-0.1,0-0.1,0-0.1l0,0
			c-0.3,0.1-0.5,0.1-0.8,0.1h-3.7h-1.2c0.2,0,0.3,0.1,0.4,0.2c0.1,0.2,0.2,0.4,0.2,0.6c0,0.3,0,1.3,0,3.1v2.5c0,1,0,1.8,0,2.5
			c0,0.4,0,0.7-0.2,1.1c-0.1,0.2-0.2,0.3-0.4,0.3h0.1H59.2z"/>
		<path class="st8" d="M70.2,71.4c-0.8,0-1.5-0.1-2.2-0.4c-0.1,0-0.2-0.1-0.2-0.2c0-0.1,0-0.3,0-0.4c0-0.2,0-0.7,0.1-1.5
			c0-0.2,0.1-0.2,0.1-0.2s0.1,0,0.1,0.2c0,0.2,0,0.3,0,0.5c0.1,0.5,0.4,0.9,0.9,1.1c0.5,0.2,1,0.4,1.6,0.3c0.6,0,1.3-0.2,1.8-0.6
			C72.8,70,73,69.5,73,69c0-0.4-0.1-0.9-0.4-1.2c-0.4-0.5-0.9-0.9-1.5-1.3l-0.8-0.5c-0.7-0.4-1.2-0.9-1.7-1.6
			c-0.3-0.4-0.5-1-0.5-1.5c0-0.7,0.3-1.4,0.9-1.8c0.7-0.5,1.6-0.7,2.5-0.7c0.5,0,1,0,1.6,0.2c0.2,0,0.4,0.1,0.6,0.1
			c0.1,0,0.2,0,0.2,0.1v0.2c0,0.1,0,0.3,0,0.5s0,0.5,0,0.8s0,0.3-0.1,0.3s-0.1-0.1-0.1-0.2c0-0.2-0.1-0.5-0.2-0.7
			c-1-0.9-2.4-1-3.6-0.3c-0.4,0.3-0.6,0.7-0.6,1.2c0,0.4,0.1,0.8,0.4,1.1c0.5,0.5,1,0.9,1.6,1.3l0.5,0.3c0.7,0.4,1.4,1,1.9,1.7
			c0.3,0.5,0.5,1.1,0.5,1.6c0,0.4-0.1,0.8-0.3,1.2c-0.2,0.5-0.6,0.9-1.1,1.1C72,71.2,71.1,71.4,70.2,71.4z"/>
		<path class="st8" d="M70.2,71.5c-0.8,0-1.6-0.1-2.3-0.4c-0.1,0-0.2-0.1-0.3-0.2c-0.1-0.1-0.1-0.3-0.1-0.4c0-0.2,0-0.8,0.1-1.5
			c0-0.3,0.2-0.4,0.3-0.4s0.3,0.1,0.3,0.3c0,0.2,0,0.3,0,0.5c0.1,0.4,0.4,0.8,0.8,1c0.5,0.2,1,0.3,1.5,0.3c0.6,0,1.2-0.2,1.7-0.5
			c0.4-0.3,0.6-0.7,0.6-1.2c0-0.4-0.1-0.8-0.4-1.2C72,67.4,71.5,67,71,66.6l-0.8-0.5c-0.7-0.4-1.3-1-1.8-1.6c-0.3-0.5-0.5-1-0.5-1.6
			c0-0.8,0.4-1.5,1-2c0.8-0.5,1.7-0.8,2.6-0.7c0.5,0,1.1,0,1.6,0.1c0.2,0,0.4,0.1,0.6,0.1c0.3,0,0.3,0.2,0.3,0.2v0.2
			c0,0.1,0,0.3,0,0.5s0,0.5,0,0.8s-0.1,0.5-0.3,0.5s-0.2,0-0.3-0.3c0-0.2-0.1-0.5-0.2-0.7c-0.3-0.5-1-0.7-2-0.7
			c-0.5,0-1,0.1-1.4,0.4c-0.3,0.2-0.5,0.6-0.5,1.1c0,0.4,0.1,0.7,0.4,1c0.5,0.5,1,0.9,1.6,1.2l0.5,0.3c0.8,0.5,1.4,1,2,1.7
			c0.3,0.5,0.5,1.1,0.5,1.7c0,0.5-0.1,0.9-0.4,1.3c-0.3,0.5-0.7,0.9-1.2,1.2C72,71.4,71.1,71.6,70.2,71.5z M67.9,69.3
			c0,0.6-0.1,1-0.1,1.2c0,0.1,0,0.2,0,0.3c0,0,0,0,0.1,0.1c0.7,0.3,1.4,0.4,2.2,0.4c0.8,0,1.7-0.2,2.4-0.6c0.4-0.3,0.8-0.6,1-1.1
			c0.2-0.3,0.3-0.7,0.4-1.2c0-0.6-0.2-1.1-0.5-1.6c-0.5-0.7-1.2-1.2-1.9-1.6L71.2,65c-0.6-0.4-1.2-0.8-1.7-1.3
			c-0.3-0.3-0.5-0.8-0.4-1.2c0-0.5,0.2-1,0.6-1.3c0.5-0.3,1-0.5,1.6-0.5c0.8-0.1,1.7,0.2,2.2,0.8c0.1,0.2,0.2,0.3,0.2,0.5
			c0-0.2,0-0.5,0-0.7s0-0.4,0-0.5v-0.1l0,0c-0.2,0-0.4,0-0.6-0.1c-0.5-0.1-1-0.1-1.5-0.1c-0.9,0-1.7,0.2-2.4,0.7
			c-0.6,0.4-0.9,1-0.9,1.7c0,0.5,0.2,1,0.4,1.4c0.5,0.6,1,1.1,1.7,1.5l0.8,0.5c0.6,0.4,1.1,0.8,1.6,1.3c0.3,0.4,0.5,0.8,0.5,1.3
			c0,0.6-0.3,1.1-0.7,1.4c-0.5,0.4-1.2,0.6-1.9,0.6c-0.6,0-1.2-0.1-1.7-0.4c-0.5-0.2-0.8-0.7-0.9-1.2C68,69.4,68,69.4,67.9,69.3z"/>
		<path class="st8" d="M79.5,71.4c-0.8,0-1.5-0.1-2.2-0.4c-0.1,0-0.2-0.1-0.2-0.2c0-0.1,0-0.3,0-0.4c0-0.2,0-0.7,0.1-1.5
			c0-0.2,0.1-0.2,0.1-0.2s0.1,0,0.1,0.2c0,0.2,0,0.3,0.1,0.5c0.1,0.5,0.4,0.9,0.9,1.1c0.5,0.2,1,0.4,1.6,0.3c0.6,0,1.3-0.2,1.8-0.6
			c0.4-0.3,0.6-0.8,0.6-1.3c0-0.4-0.1-0.9-0.4-1.2c-0.4-0.5-0.9-0.9-1.5-1.3l-0.8-0.5c-0.7-0.4-1.2-0.9-1.7-1.6
			c-0.3-0.4-0.5-1-0.5-1.5c0-0.7,0.3-1.4,0.9-1.8c0.7-0.5,1.6-0.7,2.5-0.7c0.5,0,1,0,1.6,0.2c0.2,0,0.4,0.1,0.6,0.1
			c0.1,0,0.2,0,0.2,0.1v0.2c0,0.1,0,0.3,0,0.5s0,0.5,0,0.8s0,0.3-0.1,0.3S83,62.4,83,62.3c0-0.2-0.1-0.5-0.2-0.7
			c-0.5-0.6-1.3-0.9-2.1-0.7c-0.5,0-1,0.1-1.5,0.4c-0.4,0.3-0.6,0.7-0.6,1.2c0,0.4,0.1,0.8,0.4,1.1c0.5,0.5,1,0.9,1.6,1.3l0.5,0.3
			c0.7,0.4,1.4,1,1.9,1.7c0.3,0.5,0.5,1.1,0.5,1.6c0,0.4-0.1,0.8-0.3,1.2c-0.2,0.5-0.6,0.9-1.1,1.1C81.3,71.2,80.4,71.4,79.5,71.4z"
			/>
		<path class="st8" d="M79.5,71.5c-0.8,0-1.6-0.1-2.3-0.4c-0.1,0-0.2-0.1-0.3-0.2c-0.1-0.1-0.1-0.3-0.1-0.4c0-0.2,0-0.8,0.1-1.5
			c0-0.3,0.2-0.4,0.3-0.4c0.1,0,0.3,0.1,0.3,0.3c0,0,0,0,0,0c0,0.2,0,0.3,0,0.5c0.1,0.4,0.4,0.8,0.8,1c0.5,0.2,1,0.3,1.5,0.3
			c0.6,0,1.2-0.2,1.7-0.5c0.4-0.3,0.6-0.7,0.6-1.2c0-0.4-0.1-0.8-0.4-1.2c-0.4-0.5-0.9-0.9-1.5-1.3l-0.8-0.5c-0.7-0.4-1.3-1-1.8-1.6
			c-0.3-0.5-0.5-1-0.5-1.6c0-0.8,0.3-1.5,1-2c0.8-0.5,1.7-0.8,2.6-0.7c0.5,0,1.1,0,1.6,0.1c0.2,0,0.4,0.1,0.6,0.1
			c0.3,0,0.3,0.2,0.3,0.2v0.2c0,0.1,0,0.3,0,0.5s0,0.5,0,0.8s-0.1,0.5-0.3,0.5s-0.2,0-0.3-0.3c0-0.2-0.1-0.4-0.2-0.7
			c-0.3-0.5-1-0.7-2-0.7c-0.5,0-1,0.1-1.4,0.4c-0.3,0.2-0.5,0.6-0.5,1.1c0,0.4,0.1,0.7,0.4,1c0.5,0.5,1,0.9,1.6,1.2l0.5,0.3
			c0.8,0.5,1.4,1,2,1.7c0.3,0.5,0.5,1.1,0.5,1.7c0,0.4-0.1,0.9-0.3,1.3c-0.3,0.5-0.7,0.9-1.2,1.2C81.3,71.3,80.4,71.6,79.5,71.5z
			 M77.2,69.3c0,0.6-0.1,1-0.1,1.2c0,0.1,0,0.2,0,0.3c0,0,0,0,0.1,0.1c0.7,0.3,1.4,0.4,2.2,0.4c0.9,0,1.7-0.2,2.5-0.6
			c0.8-0.5,1.3-1.3,1.3-2.2c0-0.6-0.2-1.1-0.5-1.6c-0.5-0.6-1.2-1.2-1.9-1.6L80.5,65c-0.6-0.4-1.2-0.8-1.7-1.3
			c-0.3-0.3-0.5-0.8-0.4-1.2c0-0.5,0.2-1,0.6-1.3c0.5-0.3,1-0.5,1.6-0.5c0.8-0.1,1.7,0.2,2.2,0.8c0.1,0.2,0.2,0.3,0.2,0.5
			c0-0.2,0-0.5,0-0.7s0-0.4,0-0.5v-0.1l0,0c-0.2,0-0.4,0-0.6-0.1c-0.5-0.1-1-0.1-1.5-0.1c-0.9,0-1.7,0.2-2.4,0.7
			c-0.6,0.4-0.9,1-0.9,1.7c0,0.5,0.2,1,0.4,1.4c0.5,0.6,1,1.1,1.7,1.5l0.8,0.5c0.6,0.4,1.1,0.8,1.6,1.3c0.3,0.4,0.4,0.8,0.4,1.3
			c0,0.6-0.3,1.1-0.7,1.4c-0.5,0.4-1.2,0.6-1.9,0.6c-0.6,0-1.2-0.1-1.7-0.4c-0.5-0.2-0.8-0.7-0.9-1.2C77.3,69.4,77.3,69.4,77.2,69.3
			z"/>
		<path class="st8" d="M97.7,67h-3.6c-0.1,0-0.1,0-0.2,0.1l-1,2.5c-0.1,0.3-0.2,0.6-0.2,0.9c0,0.1,0.1,0.2,0.2,0.3
			c0.1,0.1,0.3,0.1,0.4,0.1h0.2c0.1,0,0.2,0,0.2,0.1s-0.1,0.1-0.3,0.1h-0.7h-0.5h-0.7h-1.2c-0.2,0-0.3,0-0.3-0.1s0.1,0,0.2,0h0.4
			c0.3,0,0.6-0.2,0.8-0.4c0.2-0.3,0.4-0.6,0.6-0.9l3.8-8.8c0.2-0.4,0.3-0.5,0.4-0.5s0.2,0.2,0.4,0.5c0,0.1,0.3,0.7,0.8,1.9
			s1.1,2.4,1.7,3.7s1.1,2.3,1.4,2.9c0.4,0.9,0.9,1.4,1.4,1.6c0.2,0.1,0.4,0.1,0.7,0.1c0.1,0,0.2,0,0.2,0.1s-0.1,0.1-0.3,0.1
			c-1,0-1.9,0-2.6,0c-0.3,0-0.5,0-0.5-0.1s0-0.1,0.1-0.1s0.2-0.2,0.1-0.4l-1.6-3.5C97.8,67.1,97.8,67,97.7,67
			C97.7,67,97.7,67,97.7,67z M94.3,66.5h3.2c0.1,0,0.1,0,0.1-0.1l-1.6-3.8c-0.1-0.2-0.2-0.2-0.2,0L94.3,66.5
			C94.2,66.5,94.2,66.5,94.3,66.5L94.3,66.5z"/>
		<path class="st8" d="M102.3,71.3h-2.6c-0.4,0-0.6-0.1-0.6-0.2s0-0.2,0.2-0.2l0,0c0,0,0-0.1,0-0.2l-1.6-3.5h-3.6l0,0l-1,2.5
			c-0.1,0.3-0.2,0.6-0.2,0.9c0,0.1,0,0.1,0.1,0.2c0.1,0.1,0.2,0.1,0.3,0.1h0.2c0.3,0,0.4,0.1,0.4,0.2s-0.2,0.3-0.4,0.3s-0.4,0-0.7,0
			h-0.5h-0.7c-0.5,0-0.9,0-1.2,0s-0.5-0.1-0.5-0.3s0.1-0.2,0.4-0.2h0.4c0.3,0,0.5-0.1,0.7-0.3c0.2-0.3,0.4-0.6,0.5-0.9l3.8-8.7
			c0.2-0.5,0.3-0.6,0.5-0.6s0.3,0.2,0.5,0.6c0,0.1,0.3,0.7,0.8,1.9s1.1,2.4,1.7,3.7l1.4,2.9c0.4,0.9,0.9,1.4,1.3,1.5
			c0.2,0.1,0.4,0.1,0.6,0.1c0.3,0,0.3,0.2,0.3,0.2C102.8,71.3,102.4,71.3,102.3,71.3z M99.5,71h0.2c0.6,0,1.3,0,2,0
			c-0.6-0.1-1-0.7-1.5-1.6c-0.3-0.6-0.8-1.6-1.4-2.9s-1.2-2.5-1.7-3.7s-0.8-1.8-0.8-1.9c-0.1-0.1-0.1-0.3-0.2-0.4
			c-0.1,0.1-0.2,0.3-0.2,0.4L92,69.7c-0.1,0.4-0.3,0.7-0.6,1c-0.2,0.2-0.3,0.3-0.6,0.4h0.5H92h0.6h0.2l0,0c-0.2-0.1-0.3-0.2-0.3-0.4
			c0-0.3,0.1-0.7,0.2-1l1-2.5c0-0.1,0.2-0.2,0.3-0.2h3.6c0.1,0,0.2,0.1,0.3,0.2l1.6,3.5C99.5,70.7,99.5,70.8,99.5,71
			C99.5,71,99.5,71,99.5,71z M97.5,66.7h-3.2c-0.1,0-0.1,0-0.2-0.1c0-0.1,0-0.2,0-0.2l1.5-3.8c0-0.1,0.1-0.2,0.3-0.2
			s0.2,0.2,0.2,0.3l1.6,3.8C97.7,66.5,97.7,66.6,97.5,66.7C97.5,66.7,97.5,66.7,97.5,66.7L97.5,66.7z M94.3,66.4L94.3,66.4z
			 M94.4,66.4h3l-1.5-3.7L94.4,66.4z"/>
		<path class="st8" d="M106.6,71.4c-0.8,0-1.5-0.1-2.2-0.4c-0.1,0-0.2-0.1-0.2-0.2c0-0.1,0-0.3,0-0.4c0-0.2,0-0.7,0.1-1.5
			c0-0.2,0-0.2,0.1-0.2s0.1,0,0.1,0.2c0,0.2,0,0.3,0,0.5c0.1,0.5,0.4,0.9,0.9,1.1c0.5,0.2,1,0.4,1.6,0.3c0.6,0,1.3-0.2,1.8-0.6
			c0.4-0.3,0.6-0.8,0.6-1.3c0-0.4-0.1-0.9-0.4-1.2c-0.4-0.5-0.9-0.9-1.5-1.3l-0.8-0.5c-0.7-0.4-1.2-0.9-1.7-1.6
			c-0.3-0.4-0.4-1-0.4-1.5c0-0.7,0.3-1.4,0.9-1.8c0.7-0.5,1.6-0.7,2.5-0.7c0.5,0,1,0,1.6,0.2c0.2,0,0.4,0.1,0.6,0.1
			c0.1,0,0.2,0,0.2,0.1v0.2c0,0.1,0,0.3,0,0.5s0,0.5,0,0.8s0,0.3-0.1,0.3s-0.1-0.1-0.1-0.2c0-0.2-0.1-0.5-0.2-0.7
			c-0.3-0.5-1-0.7-2.1-0.7c-0.5,0-1,0.1-1.5,0.4c-0.4,0.3-0.6,0.7-0.6,1.2c0,0.4,0.1,0.8,0.4,1.1c0.5,0.5,1,0.9,1.6,1.3l0.5,0.3
			c0.7,0.4,1.3,1,1.9,1.7c0.3,0.5,0.5,1.1,0.5,1.6c0,0.4-0.1,0.8-0.3,1.2c-0.2,0.5-0.6,0.9-1.1,1.1
			C108.3,71.2,107.4,71.4,106.6,71.4z"/>
		<path class="st8" d="M106.6,71.5c-0.8,0-1.6-0.1-2.3-0.4c-0.1,0-0.2-0.1-0.3-0.2c0-0.1,0-0.3,0-0.4c0-0.2,0-0.8,0.1-1.5
			c0-0.3,0.2-0.4,0.3-0.4c0.1,0,0.3,0.1,0.3,0.3c0,0,0,0,0,0c0,0.2,0,0.3,0,0.5c0.1,0.4,0.4,0.8,0.8,1c0.5,0.2,1,0.3,1.5,0.3
			c0.6,0,1.2-0.1,1.7-0.5c0.4-0.3,0.6-0.7,0.6-1.2c0-0.4-0.1-0.8-0.4-1.2c-0.4-0.5-0.9-0.9-1.5-1.3l-0.8-0.5c-0.7-0.4-1.3-1-1.8-1.6
			c-0.3-0.5-0.5-1-0.5-1.6c0-0.8,0.3-1.5,1-2c0.8-0.5,1.7-0.8,2.6-0.7c0.5,0,1.1,0,1.6,0.1c0.2,0,0.4,0.1,0.6,0.1
			c0.3,0,0.3,0.2,0.3,0.2v0.2c0,0.2,0,0.4,0,0.5c0,0.2,0,0.5,0,0.8s-0.1,0.5-0.3,0.5s-0.2,0-0.3-0.3c0-0.2-0.1-0.4-0.2-0.7
			c-0.3-0.5-0.9-0.7-2-0.7c-0.5,0-1,0.1-1.4,0.4c-0.3,0.2-0.5,0.6-0.5,1.1c0,0.4,0.1,0.7,0.4,1c0.5,0.5,1,0.9,1.6,1.2l0.5,0.3
			c0.8,0.5,1.4,1,2,1.7c0.4,0.5,0.5,1.1,0.5,1.7c0,0.4-0.1,0.9-0.3,1.3c-0.3,0.5-0.7,0.9-1.2,1.2C108.4,71.4,107.5,71.6,106.6,71.5z
			 M104.3,69.3c0,0.6-0.1,1-0.1,1.2c0,0.1,0,0.2,0,0.3c0,0,0,0,0.1,0.1c0.7,0.3,1.4,0.4,2.2,0.4c0.9,0,1.7-0.2,2.4-0.6
			c0.4-0.3,0.8-0.6,1-1.1c0.2-0.4,0.3-0.7,0.3-1.2c0-0.6-0.2-1.1-0.5-1.6c-0.5-0.6-1.1-1.2-1.8-1.6l-0.5-0.3
			c-0.6-0.4-1.2-0.8-1.7-1.3c-0.3-0.3-0.5-0.8-0.5-1.2c0-0.5,0.2-1,0.7-1.3c1.2-0.7,2.7-0.6,3.8,0.3c0.1,0.2,0.1,0.3,0.2,0.5
			c0-0.2,0-0.5,0-0.7s0-0.4,0-0.5v-0.1c-0.2,0-0.4,0-0.6-0.1c-0.5-0.1-1-0.1-1.5-0.1c-0.9,0-1.7,0.2-2.4,0.7c-0.6,0.4-0.9,1-0.9,1.7
			c0,0.5,0.2,1,0.4,1.4c0.5,0.6,1,1.1,1.7,1.5l0.8,0.5c0.6,0.4,1.1,0.8,1.6,1.3c0.3,0.4,0.5,0.8,0.4,1.3c0,0.5-0.2,1.1-0.7,1.4
			c-0.5,0.4-1.2,0.6-1.9,0.6c-0.6,0-1.2-0.1-1.7-0.4c-0.5-0.2-0.8-0.7-0.9-1.2C104.3,69.4,104.3,69.4,104.3,69.3z"/>
		<path class="st8" d="M114.6,67.1v-2.5c0-1.7,0-2.8,0-3c0-0.5-0.2-0.7-0.6-0.8c-0.2,0-0.3-0.1-0.5-0.1c-0.1,0-0.1,0-0.1-0.1
			s0.1-0.1,0.3-0.1h0.7h0.7h0.7h0.7h0.6c0.2,0,0.3,0,0.3,0.1s0,0.1-0.1,0.1c-0.1,0-0.3,0-0.4,0c-0.2,0-0.3,0.1-0.5,0.2
			c-0.1,0.2-0.1,0.4-0.2,0.6c0,0.3,0,1.3,0,3v2.5c0,1.7,0,2.7,0.1,3.1c0,0.2,0.1,0.4,0.2,0.5c0.1,0.1,0.3,0.2,0.5,0.2
			c0.2,0,0.5,0.1,0.7,0.1c0.1,0,0.2,0,0.2,0.1s-0.1,0.1-0.2,0.1h-0.9h-0.8h-0.3H115h-0.7h-0.6c-0.2,0-0.3,0-0.3-0.1s0.1-0.1,0.2-0.1
			c0.1,0,0.3,0,0.4,0c0.3,0,0.4-0.3,0.5-0.8C114.6,69.2,114.6,68.1,114.6,67.1z"/>
		<path class="st8" d="M117.4,71.3h-0.9h-0.8h-0.3H115h-0.7h-0.6c-0.3,0-0.4-0.1-0.4-0.3s0-0.2,0.3-0.2c0.1,0,0.3,0,0.4,0
			c0.2,0,0.3-0.3,0.4-0.7s0.1-1.4,0.1-3v-2.5c0-1.7,0-2.7,0-3c0-0.5-0.3-0.6-0.4-0.7c-0.2,0-0.3-0.1-0.5,0c-0.2,0-0.3-0.1-0.3-0.2
			s0.1-0.2,0.4-0.2h0.7h0.7h0.3h0.3h0.7h0.6c0.3,0,0.4,0.1,0.4,0.2s-0.1,0.2-0.3,0.2c-0.1,0-0.3,0-0.4,0c-0.1,0-0.3,0.1-0.4,0.2
			c-0.1,0.2-0.1,0.3-0.1,0.5c0,0.3,0,1.3,0,3v2.5c0,1.6,0,2.7,0.1,3c0,0.2,0.1,0.3,0.2,0.5c0.1,0.1,0.2,0.2,0.4,0.2
			c0.3,0,0.5,0,0.7,0c0.3,0,0.3,0.2,0.3,0.2S117.7,71.3,117.4,71.3z M115.3,71h0.3h0.8l0,0c-0.1,0-0.3-0.1-0.4-0.2
			c-0.1-0.2-0.2-0.4-0.2-0.6c-0.1-1-0.1-2.1-0.1-3.1v-2.4c0-1.8,0-2.8,0-3.1c0-0.2,0.1-0.4,0.2-0.6c0.1-0.1,0.2-0.2,0.3-0.2h-0.1
			h-0.7H115h-0.7h-0.1c0.3,0.2,0.5,0.5,0.5,0.9c0,0.3,0,1.3,0,3.1v2.5c0,1.7,0,2.7-0.1,3.1c0,0.3-0.2,0.6-0.4,0.8h0.1h0.7L115.3,71z
			"/>
		<path class="st8" d="M126.3,67h-3.6c-0.1,0-0.1,0-0.2,0.1l-1,2.5c-0.1,0.3-0.2,0.6-0.2,0.9c0,0.1,0.1,0.2,0.2,0.3
			c0.1,0.1,0.3,0.1,0.4,0.1h0.2c0.2,0,0.2,0,0.2,0.1s-0.1,0.1-0.3,0.1h-0.7h-0.5H120h-1.2c-0.2,0-0.3,0-0.3-0.1s0.1-0.1,0.2-0.1h0.4
			c0.3,0,0.6-0.2,0.8-0.4c0.2-0.3,0.4-0.6,0.6-0.9l3.8-8.8c0.2-0.4,0.3-0.5,0.4-0.5s0.2,0.2,0.4,0.5c0,0.1,0.3,0.7,0.8,1.9
			c0.5,1.2,1.1,2.4,1.7,3.7c0.6,1.3,1.1,2.3,1.4,2.9c0.4,0.9,0.9,1.4,1.4,1.6c0.2,0.1,0.4,0.1,0.6,0.1c0.1,0,0.2,0,0.2,0.1
			s-0.1,0.1-0.3,0.1c-1,0-1.9,0-2.6,0c-0.3,0-0.5,0-0.5-0.1s0-0.1,0.1-0.1s0.2-0.2,0.1-0.4l-1.6-3.5C126.5,67.1,126.4,67,126.3,67z
			 M122.9,66.5h3.2c0.1,0,0.1,0,0.1-0.1l-1.6-3.8c-0.1-0.2-0.2-0.2-0.2,0L122.9,66.5C122.8,66.5,122.8,66.5,122.9,66.5L122.9,66.5z"
			/>
		<path class="st8" d="M130.9,71.3h-2.6c-0.4,0-0.7-0.1-0.7-0.2s0-0.2,0.2-0.2l0,0c0-0.1,0-0.1,0-0.2l-1.6-3.5h-3.6l0,0l-1,2.5
			c-0.1,0.3-0.2,0.6-0.2,0.9c0,0.1,0,0.1,0.1,0.2c0.1,0.1,0.2,0.1,0.3,0.1h0.2c0.3,0,0.4,0.1,0.4,0.2s-0.2,0.3-0.4,0.3s-0.4,0-0.7,0
			h-0.5h-0.7c-0.5,0-0.9,0-1.2,0s-0.5-0.1-0.5-0.3s0.1-0.2,0.4-0.2h0.4c0.3,0,0.5-0.1,0.7-0.3c0.2-0.3,0.4-0.6,0.6-0.9l3.8-8.7
			c0.2-0.5,0.3-0.6,0.5-0.6s0.3,0.2,0.5,0.6l0.8,1.9c0.5,1.2,1.1,2.4,1.7,3.7c0.6,1.3,1.1,2.3,1.4,2.9c0.4,0.9,0.9,1.4,1.3,1.5
			c0.2,0.1,0.4,0.1,0.6,0.1c0.3,0,0.3,0.2,0.3,0.2C131.4,71.3,131.1,71.3,130.9,71.3z M128.1,71h0.2c0.6,0,1.3,0,2,0
			c-0.5-0.1-1-0.7-1.5-1.6c-0.3-0.6-0.8-1.6-1.4-2.9s-1.2-2.5-1.7-3.7S125,61,125,60.9c-0.1-0.1-0.1-0.3-0.2-0.4
			c-0.1,0.1-0.2,0.3-0.2,0.4l-3.8,8.7c-0.1,0.4-0.3,0.7-0.6,1c-0.2,0.2-0.3,0.3-0.6,0.4h0.4h0.7h0.6h0.2l0,0
			c-0.2-0.1-0.3-0.2-0.3-0.4c0-0.3,0.1-0.7,0.2-1l1-2.5c0-0.1,0.2-0.2,0.3-0.2h3.6c0.1,0,0.2,0.1,0.3,0.2l1.6,3.5
			C128.2,70.7,128.2,70.9,128.1,71C128.2,71,128.2,71,128.1,71z M126.1,66.7h-3.2c-0.1,0-0.2,0-0.2-0.1c0-0.1,0-0.2,0-0.2l1.5-3.8
			c0-0.1,0.1-0.2,0.3-0.2s0.2,0.2,0.3,0.3l1.6,3.8c0,0.1,0,0.2,0,0.2C126.3,66.7,126.2,66.7,126.1,66.7L126.1,66.7z M122.9,66.4
			L122.9,66.4z M123.1,66.4h3l-1.5-3.7L123.1,66.4z"/>
		<path class="st8" d="M62.4,78.1h-1.3v-0.4h3.1v0.4h-1.3v2.7h-0.5V78.1z"/>
		<path class="st8" d="M68.9,80.8l-0.8-1h-1.2v1h-0.5v-3.1h1.4c0.4,0,0.8,0.1,1.2,0.3c0.3,0.2,0.4,0.5,0.4,0.8
			c0,0.2-0.1,0.4-0.2,0.6c-0.2,0.2-0.4,0.3-0.6,0.4l0.9,1L68.9,80.8z M68.6,79.3c0.3-0.2,0.3-0.6,0.1-0.9c0,0-0.1-0.1-0.1-0.1
			c-0.2-0.1-0.5-0.2-0.8-0.2h-0.9v1.4h0.9C68.1,79.5,68.4,79.5,68.6,79.3z"/>
		<path class="st8" d="M74.2,80h-2l-0.4,0.8h-0.5l1.7-3.1h0.5l1.7,3.1h-0.6L74.2,80z M74,79.7l-0.8-1.5l-0.8,1.5H74z"/>
		<path class="st8" d="M77.4,77.7h0.5v3.1h-0.5V77.7z"/>
		<path class="st8" d="M80.6,77.7h1.6c0.3,0,0.7,0.1,1,0.2c0.3,0.1,0.5,0.3,0.7,0.5c0.3,0.5,0.3,1.1,0,1.6c-0.2,0.2-0.4,0.4-0.7,0.6
			c-0.3,0.1-0.7,0.2-1,0.2h-1.6V77.7z M82.2,80.4c0.3,0,0.5,0,0.8-0.1c0.2-0.1,0.4-0.2,0.5-0.4c0.1-0.2,0.2-0.4,0.2-0.6
			c0-0.2-0.1-0.4-0.2-0.6c-0.1-0.2-0.3-0.3-0.5-0.4c-0.3-0.1-0.5-0.1-0.8-0.1h-1v2.3H82.2z"/>
		<path class="st8" d="M86.6,77.7h0.5v3.1h-0.5V77.7z"/>
		<path class="st8" d="M93.1,77.7v3.1h-0.4l-2.2-2.3v2.3h-0.5v-3.1h0.4l2.2,2.3v-2.3H93.1z"/>
		<path class="st8" d="M98.4,79.2h0.5v1.2c-0.2,0.1-0.4,0.2-0.7,0.3c-0.3,0.1-0.5,0.1-0.8,0.1c-0.3,0-0.7-0.1-1-0.2
			c-0.3-0.1-0.5-0.3-0.7-0.6c-0.3-0.5-0.3-1.1,0-1.6c0.2-0.2,0.4-0.4,0.7-0.6c0.3-0.1,0.7-0.2,1-0.2c0.3,0,0.5,0,0.8,0.1
			c0.2,0.1,0.4,0.2,0.6,0.4l-0.3,0.3c-0.3-0.2-0.7-0.4-1.1-0.4c-0.3,0-0.5,0-0.8,0.2c-0.2,0.1-0.4,0.2-0.5,0.4
			C96.1,78.8,96,79,96,79.3c0,0.2,0.1,0.4,0.2,0.6c0.1,0.2,0.3,0.3,0.5,0.4c0.5,0.2,1.1,0.2,1.6,0L98.4,79.2z"/>
		<path class="st8" d="M107.8,77.7v3.1h-0.5v-1.4h-2.1v1.4h-0.5v-3.1h0.5V79h2.1v-1.3H107.8z"/>
		<path class="st8" d="M111.1,80.6c-0.3-0.1-0.5-0.3-0.7-0.6c-0.2-0.2-0.3-0.5-0.3-0.8c0-0.3,0.1-0.6,0.3-0.8
			c0.2-0.2,0.4-0.4,0.7-0.6c0.3-0.1,0.7-0.2,1-0.2c0.3,0,0.7,0.1,1,0.2c0.3,0.1,0.5,0.3,0.7,0.6c0.3,0.5,0.3,1.1,0,1.6
			c-0.2,0.3-0.4,0.4-0.7,0.6c-0.3,0.1-0.7,0.2-1,0.2C111.8,80.9,111.5,80.8,111.1,80.6z M112.9,80.3c0.2-0.1,0.4-0.2,0.5-0.4
			c0.1-0.2,0.2-0.4,0.2-0.6c0-0.2-0.1-0.4-0.2-0.6c-0.1-0.2-0.3-0.3-0.5-0.4c-0.2-0.1-0.5-0.2-0.7-0.2c-0.3,0-0.5,0-0.7,0.2
			c-0.2,0.1-0.4,0.2-0.5,0.4c-0.1,0.2-0.2,0.4-0.2,0.6c0,0.2,0.1,0.4,0.2,0.6c0.1,0.2,0.3,0.3,0.5,0.4c0.2,0.1,0.5,0.2,0.7,0.2
			C112.4,80.5,112.7,80.4,112.9,80.3z"/>
		<path class="st8" d="M116.9,80.5c-0.3-0.3-0.4-0.6-0.4-1v-1.8h0.5v1.8c0,0.7,0.3,1,1,1c0.3,0,0.6-0.1,0.8-0.2
			c0.2-0.2,0.3-0.5,0.3-0.8v-1.8h0.5v1.8c0,0.4-0.1,0.7-0.4,1c-0.3,0.3-0.7,0.4-1.2,0.4C117.7,80.8,117.3,80.7,116.9,80.5z"/>
		<path class="st8" d="M122.7,80.7c-0.2-0.1-0.4-0.1-0.6-0.3l0.2-0.3c0.2,0.1,0.3,0.2,0.5,0.3c0.2,0.1,0.5,0.1,0.7,0.1
			c0.2,0,0.5,0,0.7-0.1c0.1-0.1,0.2-0.2,0.2-0.3c0-0.1,0-0.2-0.1-0.3c-0.1-0.1-0.2-0.1-0.3-0.2c-0.2,0-0.3-0.1-0.5-0.1
			c-0.3-0.1-0.5-0.1-0.7-0.2c-0.2-0.1-0.3-0.1-0.4-0.3c-0.1-0.1-0.2-0.3-0.2-0.5c0-0.2,0.1-0.3,0.2-0.4c0.1-0.2,0.3-0.3,0.5-0.3
			c0.3-0.1,0.5-0.1,0.8-0.1c0.2,0,0.4,0,0.7,0.1c0.2,0,0.4,0.1,0.6,0.2l-0.2,0.4c-0.2-0.1-0.3-0.2-0.5-0.2c-0.2,0-0.3-0.1-0.5-0.1
			c-0.2,0-0.5,0-0.7,0.1c-0.1,0.1-0.2,0.2-0.2,0.4c0,0.1,0.1,0.2,0.1,0.3c0.1,0.1,0.2,0.1,0.3,0.2c0.2,0.1,0.3,0.1,0.5,0.1
			c0.2,0,0.5,0.1,0.7,0.2c0.2,0,0.3,0.1,0.4,0.3c0.1,0.1,0.2,0.3,0.2,0.5c0,0.2-0.1,0.3-0.2,0.4c-0.1,0.2-0.3,0.3-0.5,0.3
			c-0.3,0.1-0.5,0.1-0.8,0.1C123.2,80.8,122.9,80.8,122.7,80.7z"/>
		<path class="st8" d="M130,80.4v0.4h-2.7v-3.1h2.6v0.4h-2.1v1h1.9v0.4h-1.9v1L130,80.4z"/>
		<path class="st9" d="M22.2,53.9c0,0,52-21.5,102.8-22.9c0,0-50.6,8.7-75.9,22.8L22.2,53.9"/>
		<rect x="46" y="49.4" class="st9" width="11.4" height="4.5"/>
		<rect x="72.8" y="39.7" class="st9" width="11.4" height="14.1"/>
		<polygon class="st9" points="99,53.9 110.5,53.9 110.5,33 99,34.8 		"/>
		<path class="st8" d="M60.9,40.6c-19.2-7.7-39.9-11-60.6-9.9c0,0,31,0.9,49.7,12.5L60.9,40.6z"/>
		<path class="st8" d="M14.6,31.2v8c-2.2-0.2-4.5-0.3-6.9-0.4v-7.6H14.6z"/>
		<path class="st8" d="M29.8,32.5v8.4c-2.1-0.3-4.4-0.6-6.9-0.9v-7.5H29.8z"/>
		<path class="st8" d="M44.9,35.7V44c-2-0.6-4.3-1.1-6.9-1.7v-6.6H44.9z"/>
	</g>
</g>
</svg>
