<svg width="15" height="15" viewBox="0 0 15 15" fill="none" xmlns="http://www.w3.org/2000/svg">
<path d="M0 2.58047H15V12.4195H0V2.58047Z" fill="#D80027"/>
<path d="M4.08374 4.63546L2.86124 4.63687L2.85796 4.63874L2.85983 4.63546L2.48624 3.42468L2.15437 4.63687L0.943115 4.63546L1.94905 5.34656H1.95515L1.94343 5.35499L1.53421 6.56015L2.51155 5.80359L2.51343 5.79796L2.5153 5.80359L3.49171 6.56015L3.08249 5.35499L3.07171 5.34656H3.07546L4.08374 4.63546Z" fill="#FFDA44"/>
<path d="M6.16493 6.58034H5.91462L5.83821 6.33331L5.77024 6.58034H5.52368L5.72899 6.72613H5.7304L5.72806 6.728L5.64415 6.97409L5.84337 6.81988L5.84384 6.81847L5.84431 6.81988L6.04399 6.97409L5.95962 6.728L5.95728 6.72613H5.95868L6.16493 6.58034Z" fill="#FFDA44"/>
<path d="M4.78219 7.86284L4.77516 7.60315L4.64297 7.82065L4.40625 7.74799L4.56469 7.94768L4.56516 7.94815L4.56281 7.94862L4.41656 8.16049L4.64906 8.07143L4.65 8.07002V8.07143L4.79906 8.27768L4.78547 8.01706L4.785 8.01612L5.02172 7.93596L4.78219 7.86284Z" fill="#FFDA44"/>
<path d="M5.75525 5.30437L6.00275 5.29218L6.00416 5.29124L6.00369 5.29312L6.08712 5.53733L6.14806 5.28374L6.14712 5.2814L6.14806 5.28187L6.3965 5.2814L6.18837 5.13655H6.18744L6.18837 5.13562L6.25634 4.88577L6.06837 5.05171L5.86353 4.9078L5.95681 5.14827H5.95541L5.75525 5.30437Z" fill="#FFDA44"/>
<path d="M5.50173 3.80907L5.5036 3.80953L5.74032 3.73313L5.50173 3.65766L5.50079 3.65813L5.50173 3.65672L5.49751 3.39703L5.36345 3.6136L5.1272 3.53766L5.28329 3.73875L5.28517 3.73922L5.28142 3.74063L5.13376 3.94969L5.36673 3.86297L5.36767 3.86156V3.86297L5.51485 4.0725L5.5036 3.81141L5.50173 3.80907Z" fill="#FFDA44"/>
</svg>
