<svg width="15" height="15" viewBox="0 0 15 15" fill="none" xmlns="http://www.w3.org/2000/svg">
<path d="M14.7413 12.4138H0.258632C0.11581 12.4138 0 12.298 0 12.1552V2.84484C0 2.70202 0.11581 2.58621 0.258632 2.58621H14.7414C14.8842 2.58621 15 2.70202 15 2.84484V12.1552C15 12.298 14.8842 12.4138 14.7413 12.4138Z" fill="#41479B"/>
<path d="M7.60517 3.7115L7.70888 4.02242L8.03663 4.02497C8.07908 4.02529 8.09666 4.07943 8.06253 4.10466L7.79885 4.29937L7.8977 4.61185C7.91051 4.65227 7.86445 4.68579 7.82991 4.66109L7.56328 4.47049L7.29665 4.66109C7.26214 4.68576 7.21605 4.6523 7.22886 4.61185L7.3277 4.29937L7.06403 4.10466C7.0299 4.07943 7.04748 4.02529 7.08993 4.02497L7.41767 4.02242L7.52138 3.7115C7.53477 3.67124 7.59176 3.67124 7.60517 3.7115Z" fill="#FFE15A"/>
<path d="M7.60517 10.3871L7.70888 10.6981L8.03663 10.7006C8.07908 10.7009 8.09666 10.7551 8.06253 10.7803L7.79885 10.975L7.8977 11.2875C7.91051 11.3279 7.86445 11.3614 7.82991 11.3367L7.56328 11.1461L7.29665 11.3367C7.26214 11.3614 7.21605 11.3279 7.22886 11.2875L7.3277 10.975L7.06403 10.7803C7.0299 10.7551 7.04748 10.7009 7.08993 10.7006L7.41767 10.6981L7.52138 10.3871C7.53477 10.3469 7.59176 10.3469 7.60517 10.3871Z" fill="#FFE15A"/>
<path d="M10.9429 7.04932L11.0467 7.36025L11.3744 7.3628C11.4168 7.36312 11.4344 7.41726 11.4003 7.44249L11.1366 7.6372L11.2355 7.94967C11.2483 7.9901 11.2022 8.02362 11.1677 7.99892L10.901 7.80832L10.6344 7.99892C10.5999 8.02359 10.5538 7.99013 10.5666 7.94967L10.6655 7.6372L10.4018 7.44249C10.3677 7.41726 10.3852 7.36312 10.4277 7.3628L10.7554 7.36025L10.8592 7.04932C10.8725 7.00907 10.9295 7.00907 10.9429 7.04932Z" fill="#FFE15A"/>
<path d="M4.26728 7.04932L4.37099 7.36025L4.69874 7.3628C4.74119 7.36312 4.75877 7.41726 4.72464 7.44249L4.46096 7.6372L4.55981 7.94967C4.57261 7.9901 4.52656 8.02362 4.49202 7.99892L4.22539 7.80832L3.95876 7.99892C3.92425 8.02359 3.87816 7.99013 3.89097 7.94967L3.98981 7.6372L3.72614 7.44249C3.69201 7.41726 3.70959 7.36312 3.75204 7.3628L4.07978 7.36025L4.18349 7.04932C4.19691 7.00907 4.25389 7.00907 4.26728 7.04932Z" fill="#FFE15A"/>
<path d="M4.76838 5.30628L4.87209 5.61721L5.19984 5.61976C5.24229 5.62008 5.25986 5.67422 5.22573 5.69945L4.96206 5.89415L5.06091 6.20663C5.07371 6.24706 5.02766 6.28058 4.99312 6.25588L4.72649 6.06528L4.45986 6.25588C4.42535 6.28055 4.37926 6.24709 4.39206 6.20663L4.49091 5.89415L4.22724 5.69945C4.19311 5.67422 4.21069 5.62008 4.25314 5.61976L4.58088 5.61721L4.68459 5.30628C4.69801 5.26603 4.75493 5.26603 4.76838 5.30628Z" fill="#FFE15A"/>
<path d="M10.5496 8.64408L10.6533 8.95501L10.9811 8.95756C11.0235 8.95788 11.0411 9.01202 11.007 9.03724L10.7433 9.23195L10.8422 9.54443C10.855 9.58486 10.8089 9.61838 10.7744 9.59368L10.5077 9.40308L10.2411 9.59368C10.2066 9.61835 10.1605 9.58489 10.1733 9.54443L10.2722 9.23195L10.0085 9.03724C9.97436 9.01202 9.99194 8.95788 10.0344 8.95756L10.3621 8.95501L10.4658 8.64408C10.4793 8.60383 10.5362 8.60383 10.5496 8.64408Z" fill="#FFE15A"/>
<path d="M9.32795 4.08454L9.43166 4.39547L9.75941 4.39802C9.80186 4.39834 9.81944 4.45248 9.7853 4.47771L9.52163 4.67241L9.62048 4.98489C9.63328 5.02532 9.58723 5.05884 9.55269 5.03414L9.28606 4.84353L9.01943 5.03414C8.98492 5.05881 8.93883 5.02535 8.95163 4.98489L9.05048 4.67241L8.78681 4.47771C8.75268 4.45248 8.77026 4.39834 8.81271 4.39802L9.14045 4.39547L9.24416 4.08454C9.25755 4.04429 9.31447 4.04429 9.32795 4.08454Z" fill="#FFE15A"/>
<path d="M5.99006 9.86582L6.09377 10.1768L6.42152 10.1793C6.46397 10.1796 6.48154 10.2338 6.44741 10.259L6.18374 10.4537L6.28259 10.7662C6.29539 10.8066 6.24934 10.8401 6.2148 10.8154L5.94817 10.6248L5.68154 10.8154C5.64702 10.8401 5.60094 10.8066 5.61374 10.7662L5.71259 10.4537L5.44892 10.259C5.41479 10.2338 5.43237 10.1796 5.47482 10.1793L5.80256 10.1768L5.90627 9.86582C5.91969 9.82557 5.97661 9.82557 5.99006 9.86582Z" fill="#FFE15A"/>
<path d="M10.4658 5.30628L10.3621 5.61721L10.0344 5.61976C9.99194 5.62008 9.97436 5.67422 10.0085 5.69945L10.2722 5.89415L10.1733 6.20663C10.1605 6.24706 10.2066 6.28058 10.2411 6.25588L10.5077 6.06528L10.7744 6.25588C10.8089 6.28055 10.855 6.24709 10.8422 6.20663L10.7433 5.89415L11.007 5.69945C11.0411 5.67422 11.0235 5.62008 10.9811 5.61976L10.6533 5.61721L10.5496 5.30628C10.5362 5.26603 10.4793 5.26603 10.4658 5.30628Z" fill="#FFE15A"/>
<path d="M4.68459 8.64408L4.58088 8.95501L4.25314 8.95756C4.21069 8.95788 4.19311 9.01202 4.22724 9.03724L4.49091 9.23195L4.39206 9.54443C4.37926 9.58486 4.42532 9.61838 4.45986 9.59368L4.72649 9.40308L4.99312 9.59368C5.02763 9.61835 5.07371 9.58489 5.06091 9.54443L4.96206 9.23195L5.22573 9.03724C5.25986 9.01202 5.24229 8.95788 5.19984 8.95756L4.87209 8.95501L4.76838 8.64408C4.75493 8.60383 4.69801 8.60383 4.68459 8.64408Z" fill="#FFE15A"/>
<path d="M5.90627 4.08454L5.80256 4.39547L5.47482 4.39802C5.43237 4.39834 5.41479 4.45248 5.44892 4.47771L5.71259 4.67241L5.61374 4.98489C5.60094 5.02532 5.647 5.05884 5.68154 5.03414L5.94817 4.84353L6.2148 5.03414C6.24931 5.05881 6.29539 5.02535 6.28259 4.98489L6.18374 4.67241L6.44741 4.47771C6.48154 4.45248 6.46397 4.39834 6.42152 4.39802L6.09377 4.39547L5.99006 4.08454C5.97661 4.04429 5.91969 4.04429 5.90627 4.08454Z" fill="#FFE15A"/>
<path d="M9.24416 9.86582L9.14045 10.1768L8.81271 10.1793C8.77026 10.1796 8.75268 10.2338 8.78681 10.259L9.05048 10.4537L8.95163 10.7662C8.93883 10.8066 8.98489 10.8401 9.01943 10.8154L9.28606 10.6248L9.55269 10.8154C9.5872 10.8401 9.63328 10.8066 9.62048 10.7662L9.52163 10.4537L9.7853 10.259C9.81944 10.2338 9.80186 10.1796 9.75941 10.1793L9.43166 10.1768L9.32795 9.86582C9.3145 9.82557 9.25758 9.82557 9.24416 9.86582Z" fill="#FFE15A"/>
</svg>
