<svg width="15" height="15" viewBox="0 0 15 15" fill="none" xmlns="http://www.w3.org/2000/svg">
<path d="M14.7413 12.4138H0.258632C0.11581 12.4138 0 12.298 0 12.1552V2.84484C0 2.70202 0.11581 2.58621 0.258632 2.58621H14.7414C14.8842 2.58621 15 2.70202 15 2.84484V12.1552C15 12.298 14.8842 12.4138 14.7413 12.4138Z" fill="#F5F5F5"/>
<path d="M15 3.34222H0V2.84484C0 2.70202 0.11581 2.58621 0.258632 2.58621H14.7414C14.8842 2.58621 15 2.70202 15 2.84484L15 3.34222Z" fill="#FF4B55"/>
<path d="M15 5.61008H0V6.36605H15V5.61008Z" fill="#FF4B55"/>
<path d="M15 4.09808H0V4.85406H15V4.09808Z" fill="#FF4B55"/>
<path d="M15 7.87801H0.258632C0.11581 7.87801 0 7.7622 0 7.61938V7.12201H15V7.87801Z" fill="#FF4B55"/>
<path d="M15 10.1461H0V10.9021H15V10.1461Z" fill="#FF4B55"/>
<path d="M14.7413 12.4138H0.258632C0.11581 12.4138 0 12.298 0 12.1552V11.6578H15V12.1552C15 12.298 14.8842 12.4138 14.7413 12.4138Z" fill="#FF4B55"/>
<path d="M15 8.63409H0V9.39007H15V8.63409Z" fill="#FF4B55"/>
<path d="M6.72412 2.58624H0.258632C0.11581 2.58624 0 2.70202 0 2.84485V7.61935C0 7.76217 0.11581 7.87798 0.258632 7.87798H6.72415C6.86697 7.87798 6.98278 7.76217 6.98278 7.61935V2.84485C6.98275 2.70202 6.86694 2.58624 6.72412 2.58624Z" fill="#41479B"/>
<path d="M0.726284 3.17994L0.78353 3.35162L0.964497 3.353C0.987934 3.3532 0.997631 3.38309 0.978794 3.397L0.833218 3.50452L0.887827 3.67705C0.894917 3.69938 0.869458 3.71789 0.850386 3.70424L0.703169 3.59903L0.555953 3.70427C0.53688 3.71789 0.51148 3.6994 0.518511 3.67708L0.573121 3.50455L0.427545 3.39703C0.408707 3.38309 0.418404 3.35323 0.441842 3.35303L0.622808 3.35165L0.680054 3.17997C0.687437 3.15771 0.718843 3.15771 0.726284 3.17994Z" fill="#F5F5F5"/>
<path d="M0.726284 4.0779L0.78353 4.24958L0.964497 4.25096C0.987934 4.25116 0.997631 4.28104 0.978794 4.29496L0.833218 4.40248L0.887827 4.57501C0.894917 4.59733 0.869458 4.61585 0.850386 4.6022L0.703169 4.49699L0.555953 4.60223C0.53688 4.61585 0.51148 4.59736 0.518511 4.57504L0.573121 4.40251L0.427545 4.29499C0.408707 4.28104 0.418404 4.25119 0.441842 4.25099L0.622808 4.24961L0.680054 4.07793C0.687437 4.05569 0.718843 4.05569 0.726284 4.0779Z" fill="#F5F5F5"/>
<path d="M0.726284 4.97594L0.78353 5.14762L0.964497 5.149C0.987934 5.1492 0.997631 5.17909 0.978794 5.193L0.833218 5.30052L0.887827 5.47305C0.894917 5.49537 0.869458 5.51389 0.850386 5.50024L0.703169 5.39503L0.555953 5.50027C0.53688 5.51389 0.51148 5.4954 0.518511 5.47308L0.573121 5.30055L0.427545 5.19303C0.408707 5.17909 0.418404 5.14923 0.441842 5.14903L0.622808 5.14765L0.680054 4.97597C0.687437 4.95373 0.718843 4.95373 0.726284 4.97594Z" fill="#F5F5F5"/>
<path d="M0.726284 5.87403L0.78353 6.04571L0.964497 6.04709C0.987934 6.0473 0.997631 6.07718 0.978794 6.09109L0.833218 6.19861L0.887827 6.37114C0.894917 6.39347 0.869458 6.41198 0.850386 6.39833L0.703169 6.29313L0.555953 6.39836C0.53688 6.41198 0.51148 6.3935 0.518511 6.37117L0.573121 6.19864L0.427545 6.09112C0.408707 6.07718 0.418404 6.04732 0.441842 6.04712L0.622808 6.04574L0.680054 5.87406C0.687437 5.8518 0.718843 5.8518 0.726284 5.87403Z" fill="#F5F5F5"/>
<path d="M0.726284 6.77213L0.78353 6.94381L0.964497 6.94518C0.987934 6.94539 0.997631 6.97527 0.978794 6.98919L0.833218 7.09671L0.887827 7.26924C0.894917 7.29156 0.869458 7.31008 0.850386 7.29642L0.703169 7.19122L0.555953 7.29645C0.53688 7.31008 0.51148 7.29159 0.518511 7.26927L0.573121 7.09674L0.427545 6.98922C0.408707 6.97527 0.418404 6.94542 0.441842 6.94521L0.622808 6.94384L0.680054 6.77216C0.687437 6.74986 0.718843 6.74986 0.726284 6.77213Z" fill="#F5F5F5"/>
<path d="M1.42331 3.62014L1.48055 3.79182L1.66152 3.7932C1.68496 3.7934 1.69465 3.82328 1.67582 3.8372L1.53024 3.94472L1.58485 4.11725C1.59194 4.13957 1.56648 4.15809 1.54741 4.14444L1.40019 4.0392L1.25297 4.14444C1.2339 4.15806 1.2085 4.13957 1.21553 4.11725L1.27014 3.94472L1.12457 3.8372C1.10573 3.82326 1.11543 3.7934 1.13886 3.7932L1.31983 3.79182L1.37708 3.62014C1.38443 3.59793 1.41589 3.59793 1.42331 3.62014Z" fill="#F5F5F5"/>
<path d="M1.42331 4.51823L1.48055 4.68991L1.66152 4.69129C1.68496 4.69149 1.69465 4.72138 1.67582 4.73529L1.53024 4.84281L1.58485 5.01534C1.59194 5.03767 1.56648 5.05618 1.54741 5.04253L1.40019 4.9373L1.25297 5.04253C1.2339 5.05615 1.2085 5.0377 1.21553 5.01534L1.27014 4.84281L1.12457 4.73529C1.10573 4.72135 1.11543 4.69149 1.13886 4.69129L1.31983 4.68991L1.37708 4.51823C1.38443 4.496 1.41589 4.496 1.42331 4.51823Z" fill="#F5F5F5"/>
<path d="M1.42331 5.41627L1.48055 5.58795L1.66152 5.58933C1.68496 5.58954 1.69465 5.61942 1.67582 5.63333L1.53024 5.74085L1.58485 5.91338C1.59194 5.93571 1.56648 5.95422 1.54741 5.94057L1.40019 5.83534L1.25297 5.94057C1.2339 5.95419 1.2085 5.93571 1.21553 5.91338L1.27014 5.74085L1.12457 5.63333C1.10573 5.61939 1.11543 5.58954 1.13886 5.58933L1.31983 5.58795L1.37708 5.41627C1.38443 5.39404 1.41589 5.39404 1.42331 5.41627Z" fill="#F5F5F5"/>
<path d="M1.42331 6.31435L1.48055 6.48603L1.66152 6.48741C1.68496 6.48762 1.69465 6.5175 1.67582 6.53141L1.53024 6.63893L1.58485 6.81146C1.59194 6.83379 1.56648 6.8523 1.54741 6.83865L1.40019 6.73342L1.25297 6.83865C1.2339 6.85227 1.2085 6.83379 1.21553 6.81146L1.27014 6.63893L1.12457 6.53141C1.10573 6.51747 1.11543 6.48762 1.13886 6.48741L1.31983 6.48603L1.37708 6.31435C1.38443 6.29215 1.41589 6.29215 1.42331 6.31435Z" fill="#F5F5F5"/>
<path d="M2.12045 3.17982L2.1777 3.3515L2.35866 3.35288C2.3821 3.35309 2.3918 3.38297 2.37296 3.39688L2.22738 3.5044L2.28199 3.67693C2.28908 3.69926 2.26362 3.71777 2.24455 3.70412L2.09733 3.59889L1.95012 3.70412C1.93105 3.71774 1.90564 3.69926 1.91268 3.67693L1.96729 3.5044L1.82171 3.39688C1.80287 3.38294 1.81257 3.35309 1.83601 3.35288L2.01697 3.3515L2.07422 3.17982C2.0816 3.15759 2.11304 3.15759 2.12045 3.17982Z" fill="#F5F5F5"/>
<path d="M2.12045 4.0779L2.1777 4.24958L2.35866 4.25096C2.3821 4.25117 2.3918 4.28105 2.37296 4.29496L2.22738 4.40248L2.28199 4.57501C2.28908 4.59734 2.26362 4.61585 2.24455 4.6022L2.09733 4.49697L1.95012 4.6022C1.93105 4.61582 1.90564 4.59734 1.91268 4.57501L1.96729 4.40248L1.82171 4.29496C1.80287 4.28102 1.81257 4.25117 1.83601 4.25096L2.01697 4.24958L2.07422 4.0779C2.0816 4.0557 2.11304 4.0557 2.12045 4.0779Z" fill="#F5F5F5"/>
<path d="M2.12045 4.97594L2.1777 5.14762L2.35866 5.149C2.3821 5.14921 2.3918 5.17909 2.37296 5.19301L2.22738 5.30052L2.28199 5.47305C2.28908 5.49538 2.26362 5.51389 2.24455 5.50024L2.09733 5.39501L1.95012 5.50024C1.93105 5.51386 1.90564 5.49538 1.91268 5.47305L1.96729 5.30052L1.82171 5.19301C1.80287 5.17906 1.81257 5.14921 1.83601 5.149L2.01697 5.14762L2.07422 4.97594C2.0816 4.95374 2.11304 4.95374 2.12045 4.97594Z" fill="#F5F5F5"/>
<path d="M2.12045 5.87404L2.1777 6.04572L2.35866 6.04709C2.3821 6.0473 2.3918 6.07718 2.37296 6.0911L2.22738 6.19862L2.28199 6.37115C2.28908 6.39347 2.26362 6.41199 2.24455 6.39833L2.09733 6.2931L1.95012 6.39833C1.93105 6.41196 1.90564 6.39347 1.91268 6.37115L1.96729 6.19862L1.82171 6.0911C1.80287 6.07715 1.81257 6.0473 1.83601 6.04709L2.01697 6.04572L2.07422 5.87404C2.0816 5.8518 2.11304 5.8518 2.12045 5.87404Z" fill="#F5F5F5"/>
<path d="M2.12045 6.7721L2.1777 6.94378L2.35866 6.94516C2.3821 6.94536 2.3918 6.97524 2.37296 6.98916L2.22738 7.09668L2.28199 7.26921C2.28908 7.29153 2.26362 7.31005 2.24455 7.2964L2.09733 7.19116L1.95012 7.2964C1.93105 7.31002 1.90564 7.29153 1.91268 7.26921L1.96729 7.09668L1.82171 6.98916C1.80287 6.97522 1.81257 6.94536 1.83601 6.94516L2.01697 6.94378L2.07422 6.7721C2.0816 6.74984 2.11304 6.74984 2.12045 6.7721Z" fill="#F5F5F5"/>
<path d="M2.81747 3.62014L2.87472 3.79182L3.05568 3.7932C3.07912 3.7934 3.08882 3.82328 3.06998 3.8372L2.9244 3.94472L2.97901 4.11725C2.9861 4.13957 2.96064 4.15809 2.94157 4.14444L2.79436 4.0392L2.64714 4.14444C2.62807 4.15806 2.60267 4.13957 2.6097 4.11725L2.66431 3.94472L2.51873 3.8372C2.49989 3.82326 2.50959 3.7934 2.53303 3.7932L2.71399 3.79182L2.77124 3.62014C2.77859 3.59793 2.81006 3.59793 2.81747 3.62014Z" fill="#F5F5F5"/>
<path d="M2.81747 4.51823L2.87472 4.68991L3.05568 4.69129C3.07912 4.69149 3.08882 4.72138 3.06998 4.73529L2.9244 4.84281L2.97901 5.01534C2.9861 5.03767 2.96064 5.05618 2.94157 5.04253L2.79436 4.9373L2.64714 5.04253C2.62807 5.05615 2.60267 5.0377 2.6097 5.01534L2.66431 4.84281L2.51873 4.73529C2.49989 4.72135 2.50959 4.69149 2.53303 4.69129L2.71399 4.68991L2.77124 4.51823C2.77859 4.496 2.81006 4.496 2.81747 4.51823Z" fill="#F5F5F5"/>
<path d="M2.81747 5.41627L2.87472 5.58795L3.05568 5.58933C3.07912 5.58954 3.08882 5.61942 3.06998 5.63333L2.9244 5.74085L2.97901 5.91338C2.9861 5.93571 2.96064 5.95422 2.94157 5.94057L2.79436 5.83534L2.64714 5.94057C2.62807 5.95419 2.60267 5.93571 2.6097 5.91338L2.66431 5.74085L2.51873 5.63333C2.49989 5.61939 2.50959 5.58954 2.53303 5.58933L2.71399 5.58795L2.77124 5.41627C2.77859 5.39404 2.81006 5.39404 2.81747 5.41627Z" fill="#F5F5F5"/>
<path d="M2.81747 6.31435L2.87472 6.48603L3.05568 6.48741C3.07912 6.48762 3.08882 6.5175 3.06998 6.53141L2.9244 6.63893L2.97901 6.81146C2.9861 6.83379 2.96064 6.8523 2.94157 6.83865L2.79436 6.73342L2.64714 6.83865C2.62807 6.85227 2.60267 6.83379 2.6097 6.81146L2.66431 6.63893L2.51873 6.53141C2.49989 6.51747 2.50959 6.48762 2.53303 6.48741L2.71399 6.48603L2.77124 6.31435C2.77859 6.29215 2.81006 6.29215 2.81747 6.31435Z" fill="#F5F5F5"/>
<path d="M3.51452 3.17982L3.57177 3.3515L3.75273 3.35288C3.77617 3.35309 3.78587 3.38297 3.76703 3.39688L3.62146 3.5044L3.67606 3.67693C3.68315 3.69926 3.6577 3.71777 3.63862 3.70412L3.49138 3.59889L3.34416 3.70412C3.32509 3.71774 3.29969 3.69926 3.30672 3.67693L3.36133 3.5044L3.21575 3.39688C3.19691 3.38294 3.20661 3.35309 3.23005 3.35288L3.41102 3.3515L3.46826 3.17982C3.47567 3.15759 3.50711 3.15759 3.51452 3.17982Z" fill="#F5F5F5"/>
<path d="M3.51452 4.0779L3.57177 4.24958L3.75273 4.25096C3.77617 4.25117 3.78587 4.28105 3.76703 4.29496L3.62146 4.40248L3.67606 4.57501C3.68315 4.59734 3.6577 4.61585 3.63862 4.6022L3.49138 4.49697L3.34416 4.6022C3.32509 4.61582 3.29969 4.59734 3.30672 4.57501L3.36133 4.40248L3.21575 4.29496C3.19691 4.28102 3.20661 4.25117 3.23005 4.25096L3.41102 4.24958L3.46826 4.0779C3.47567 4.0557 3.50711 4.0557 3.51452 4.0779Z" fill="#F5F5F5"/>
<path d="M3.51452 4.97594L3.57177 5.14762L3.75273 5.149C3.77617 5.14921 3.78587 5.17909 3.76703 5.19301L3.62146 5.30052L3.67606 5.47305C3.68315 5.49538 3.6577 5.51389 3.63862 5.50024L3.49138 5.39501L3.34416 5.50024C3.32509 5.51386 3.29969 5.49538 3.30672 5.47305L3.36133 5.30052L3.21575 5.19301C3.19691 5.17906 3.20661 5.14921 3.23005 5.149L3.41102 5.14762L3.46826 4.97594C3.47567 4.95374 3.50711 4.95374 3.51452 4.97594Z" fill="#F5F5F5"/>
<path d="M3.51452 5.87404L3.57177 6.04572L3.75273 6.04709C3.77617 6.0473 3.78587 6.07718 3.76703 6.0911L3.62146 6.19862L3.67606 6.37115C3.68315 6.39347 3.6577 6.41199 3.63862 6.39833L3.49138 6.2931L3.34416 6.39833C3.32509 6.41196 3.29969 6.39347 3.30672 6.37115L3.36133 6.19862L3.21575 6.0911C3.19691 6.07715 3.20661 6.0473 3.23005 6.04709L3.41102 6.04572L3.46826 5.87404C3.47567 5.8518 3.50711 5.8518 3.51452 5.87404Z" fill="#F5F5F5"/>
<path d="M3.51452 6.7721L3.57177 6.94378L3.75273 6.94516C3.77617 6.94536 3.78587 6.97524 3.76703 6.98916L3.62146 7.09668L3.67606 7.26921C3.68315 7.29153 3.6577 7.31005 3.63862 7.2964L3.49138 7.19116L3.34416 7.2964C3.32509 7.31002 3.29969 7.29153 3.30672 7.26921L3.36133 7.09668L3.21575 6.98916C3.19691 6.97522 3.20661 6.94536 3.23005 6.94516L3.41102 6.94378L3.46826 6.7721C3.47567 6.74984 3.50711 6.74984 3.51452 6.7721Z" fill="#F5F5F5"/>
<path d="M4.21164 3.62014L4.26888 3.79182L4.44985 3.7932C4.47329 3.7934 4.48298 3.82328 4.46414 3.8372L4.31857 3.94472L4.37318 4.11725C4.38027 4.13957 4.35481 4.15809 4.33574 4.14444L4.18852 4.0392L4.0413 4.14444C4.02223 4.15806 3.99683 4.13957 4.00386 4.11725L4.05847 3.94472L3.9129 3.8372C3.89406 3.82326 3.90376 3.7934 3.92719 3.7932L4.10816 3.79182L4.16541 3.62014C4.17282 3.59793 4.20422 3.59793 4.21164 3.62014Z" fill="#F5F5F5"/>
<path d="M4.21164 4.51823L4.26888 4.68991L4.44985 4.69129C4.47329 4.69149 4.48298 4.72138 4.46414 4.73529L4.31857 4.84281L4.37318 5.01534C4.38027 5.03767 4.35481 5.05618 4.33574 5.04253L4.18852 4.9373L4.0413 5.04253C4.02223 5.05615 3.99683 5.0377 4.00386 5.01534L4.05847 4.84281L3.9129 4.73529C3.89406 4.72135 3.90376 4.69149 3.92719 4.69129L4.10816 4.68991L4.16541 4.51823C4.17282 4.496 4.20422 4.496 4.21164 4.51823Z" fill="#F5F5F5"/>
<path d="M4.21164 5.41627L4.26888 5.58795L4.44985 5.58933C4.47329 5.58954 4.48298 5.61942 4.46414 5.63333L4.31857 5.74085L4.37318 5.91338C4.38027 5.93571 4.35481 5.95422 4.33574 5.94057L4.18852 5.83534L4.0413 5.94057C4.02223 5.95419 3.99683 5.93571 4.00386 5.91338L4.05847 5.74085L3.9129 5.63333C3.89406 5.61939 3.90376 5.58954 3.92719 5.58933L4.10816 5.58795L4.16541 5.41627C4.17282 5.39404 4.20422 5.39404 4.21164 5.41627Z" fill="#F5F5F5"/>
<path d="M4.21164 6.31435L4.26888 6.48603L4.44985 6.48741C4.47329 6.48762 4.48298 6.5175 4.46414 6.53141L4.31857 6.63893L4.37318 6.81146C4.38027 6.83379 4.35481 6.8523 4.33574 6.83865L4.18852 6.73342L4.0413 6.83865C4.02223 6.85227 3.99683 6.83379 4.00386 6.81146L4.05847 6.63893L3.9129 6.53141C3.89406 6.51747 3.90376 6.48762 3.92719 6.48741L4.10816 6.48603L4.16541 6.31435C4.17282 6.29215 4.20422 6.29215 4.21164 6.31435Z" fill="#F5F5F5"/>
<path d="M4.90866 3.17982L4.9659 3.3515L5.14687 3.35288C5.17031 3.35309 5.18 3.38297 5.16117 3.39688L5.01559 3.5044L5.0702 3.67693C5.07729 3.69926 5.05183 3.71777 5.03276 3.70412L4.88554 3.59889L4.73833 3.70412C4.71925 3.71774 4.69385 3.69926 4.70088 3.67693L4.75549 3.5044L4.60992 3.39688C4.59108 3.38294 4.60078 3.35309 4.62421 3.35288L4.80518 3.3515L4.86243 3.17982C4.86978 3.15759 4.90125 3.15759 4.90866 3.17982Z" fill="#F5F5F5"/>
<path d="M4.90866 4.0779L4.9659 4.24958L5.14687 4.25096C5.17031 4.25117 5.18 4.28105 5.16117 4.29496L5.01559 4.40248L5.0702 4.57501C5.07729 4.59734 5.05183 4.61585 5.03276 4.6022L4.88554 4.49697L4.73833 4.6022C4.71925 4.61582 4.69385 4.59734 4.70088 4.57501L4.75549 4.40248L4.60992 4.29496C4.59108 4.28102 4.60078 4.25117 4.62421 4.25096L4.80518 4.24958L4.86243 4.0779C4.86978 4.0557 4.90125 4.0557 4.90866 4.0779Z" fill="#F5F5F5"/>
<path d="M4.90866 4.97594L4.9659 5.14762L5.14687 5.149C5.17031 5.14921 5.18 5.17909 5.16117 5.19301L5.01559 5.30052L5.0702 5.47305C5.07729 5.49538 5.05183 5.51389 5.03276 5.50024L4.88554 5.39501L4.73833 5.50024C4.71925 5.51386 4.69385 5.49538 4.70088 5.47305L4.75549 5.30052L4.60992 5.19301C4.59108 5.17906 4.60078 5.14921 4.62421 5.149L4.80518 5.14762L4.86243 4.97594C4.86978 4.95374 4.90125 4.95374 4.90866 4.97594Z" fill="#F5F5F5"/>
<path d="M4.90866 5.87404L4.9659 6.04572L5.14687 6.04709C5.17031 6.0473 5.18 6.07718 5.16117 6.0911L5.01559 6.19862L5.0702 6.37115C5.07729 6.39347 5.05183 6.41199 5.03276 6.39833L4.88554 6.2931L4.73833 6.39833C4.71925 6.41196 4.69385 6.39347 4.70088 6.37115L4.75549 6.19862L4.60992 6.0911C4.59108 6.07715 4.60078 6.0473 4.62421 6.04709L4.80518 6.04572L4.86243 5.87404C4.86978 5.8518 4.90125 5.8518 4.90866 5.87404Z" fill="#F5F5F5"/>
<path d="M4.90866 6.7721L4.9659 6.94378L5.14687 6.94516C5.17031 6.94536 5.18 6.97524 5.16117 6.98916L5.01559 7.09668L5.0702 7.26921C5.07729 7.29153 5.05183 7.31005 5.03276 7.2964L4.88554 7.19116L4.73833 7.2964C4.71925 7.31002 4.69385 7.29153 4.70088 7.26921L4.75549 7.09668L4.60992 6.98916C4.59108 6.97522 4.60078 6.94536 4.62421 6.94516L4.80518 6.94378L4.86243 6.7721C4.86978 6.74984 4.90125 6.74984 4.90866 6.7721Z" fill="#F5F5F5"/>
<path d="M5.6058 3.62014L5.66305 3.79182L5.84401 3.7932C5.86745 3.7934 5.87715 3.82328 5.85831 3.8372L5.71273 3.94472L5.76734 4.11725C5.77443 4.13957 5.74897 4.15809 5.7299 4.14444L5.58269 4.0392L5.43547 4.14444C5.4164 4.15806 5.391 4.13957 5.39803 4.11725L5.45264 3.94472L5.30706 3.8372C5.28822 3.82326 5.29792 3.7934 5.32136 3.7932L5.50232 3.79182L5.55957 3.62014C5.56695 3.59793 5.59842 3.59793 5.6058 3.62014Z" fill="#F5F5F5"/>
<path d="M5.6058 4.51823L5.66305 4.68991L5.84401 4.69129C5.86745 4.69149 5.87715 4.72138 5.85831 4.73529L5.71273 4.84281L5.76734 5.01534C5.77443 5.03767 5.74897 5.05618 5.7299 5.04253L5.58269 4.9373L5.43547 5.04253C5.4164 5.05615 5.391 5.0377 5.39803 5.01534L5.45264 4.84281L5.30706 4.73529C5.28822 4.72135 5.29792 4.69149 5.32136 4.69129L5.50232 4.68991L5.55957 4.51823C5.56695 4.496 5.59842 4.496 5.6058 4.51823Z" fill="#F5F5F5"/>
<path d="M5.6058 5.41627L5.66305 5.58795L5.84401 5.58933C5.86745 5.58954 5.87715 5.61942 5.85831 5.63333L5.71273 5.74085L5.76734 5.91338C5.77443 5.93571 5.74897 5.95422 5.7299 5.94057L5.58269 5.83534L5.43547 5.94057C5.4164 5.95419 5.391 5.93571 5.39803 5.91338L5.45264 5.74085L5.30706 5.63333C5.28822 5.61939 5.29792 5.58954 5.32136 5.58933L5.50232 5.58795L5.55957 5.41627C5.56695 5.39404 5.59842 5.39404 5.6058 5.41627Z" fill="#F5F5F5"/>
<path d="M5.6058 6.31435L5.66305 6.48603L5.84401 6.48741C5.86745 6.48762 5.87715 6.5175 5.85831 6.53141L5.71273 6.63893L5.76734 6.81146C5.77443 6.83379 5.74897 6.8523 5.7299 6.83865L5.58269 6.73342L5.43547 6.83865C5.4164 6.85227 5.391 6.83379 5.39803 6.81146L5.45264 6.63893L5.30706 6.53141C5.28822 6.51747 5.29792 6.48762 5.32136 6.48741L5.50232 6.48603L5.55957 6.31435C5.56695 6.29215 5.59842 6.29215 5.6058 6.31435Z" fill="#F5F5F5"/>
<path d="M6.30282 3.17982L6.36007 3.3515L6.54103 3.35288C6.56447 3.35309 6.57417 3.38297 6.55533 3.39688L6.40976 3.5044L6.46437 3.67693C6.47145 3.69926 6.446 3.71777 6.42692 3.70412L6.27971 3.59889L6.13249 3.70412C6.11342 3.71774 6.08802 3.69926 6.09505 3.67693L6.14966 3.5044L6.00408 3.39688C5.98524 3.38294 5.99494 3.35309 6.01838 3.35288L6.19935 3.3515L6.25659 3.17982C6.26397 3.15759 6.29538 3.15759 6.30282 3.17982Z" fill="#F5F5F5"/>
<path d="M6.30282 4.0779L6.36007 4.24958L6.54103 4.25096C6.56447 4.25117 6.57417 4.28105 6.55533 4.29496L6.40976 4.40248L6.46437 4.57501C6.47145 4.59734 6.446 4.61585 6.42692 4.6022L6.27971 4.49697L6.13249 4.6022C6.11342 4.61582 6.08802 4.59734 6.09505 4.57501L6.14966 4.40248L6.00408 4.29496C5.98524 4.28102 5.99494 4.25117 6.01838 4.25096L6.19935 4.24958L6.25659 4.0779C6.26397 4.0557 6.29538 4.0557 6.30282 4.0779Z" fill="#F5F5F5"/>
<path d="M6.30282 4.97594L6.36007 5.14762L6.54103 5.149C6.56447 5.14921 6.57417 5.17909 6.55533 5.19301L6.40976 5.30052L6.46437 5.47305C6.47145 5.49538 6.446 5.51389 6.42692 5.50024L6.27971 5.39501L6.13249 5.50024C6.11342 5.51386 6.08802 5.49538 6.09505 5.47305L6.14966 5.30052L6.00408 5.19301C5.98524 5.17906 5.99494 5.14921 6.01838 5.149L6.19935 5.14762L6.25659 4.97594C6.26397 4.95374 6.29538 4.95374 6.30282 4.97594Z" fill="#F5F5F5"/>
<path d="M6.30282 5.87404L6.36007 6.04572L6.54103 6.04709C6.56447 6.0473 6.57417 6.07718 6.55533 6.0911L6.40976 6.19862L6.46437 6.37115C6.47145 6.39347 6.446 6.41199 6.42692 6.39833L6.27971 6.2931L6.13249 6.39833C6.11342 6.41196 6.08802 6.39347 6.09505 6.37115L6.14966 6.19862L6.00408 6.0911C5.98524 6.07715 5.99494 6.0473 6.01838 6.04709L6.19935 6.04572L6.25659 5.87404C6.26397 5.8518 6.29538 5.8518 6.30282 5.87404Z" fill="#F5F5F5"/>
<path d="M6.30282 6.7721L6.36007 6.94378L6.54103 6.94516C6.56447 6.94536 6.57417 6.97524 6.55533 6.98916L6.40976 7.09668L6.46437 7.26921C6.47145 7.29153 6.446 7.31005 6.42692 7.2964L6.27971 7.19116L6.13249 7.2964C6.11342 7.31002 6.08802 7.29153 6.09505 7.26921L6.14966 7.09668L6.00408 6.98916C5.98524 6.97522 5.99494 6.94536 6.01838 6.94516L6.19935 6.94378L6.25659 6.7721C6.26397 6.74984 6.29538 6.74984 6.30282 6.7721Z" fill="#F5F5F5"/>
</svg>
